{"glyphs":{"0":{"ha":782,"x_min":0,"x_max":0,"o":"m 705 349 b 620 83 705 237 677 149 b 391 -14 563 18 487 -14 b 162 83 296 -14 220 18 b 77 349 105 149 77 237 l 77 639 b 162 903 77 750 105 838 b 390 1002 218 969 295 1002 b 620 903 486 1002 562 969 b 705 639 677 838 705 750 l 705 349 m 572 667 b 524 835 572 738 556 794 b 390 897 493 876 448 897 b 257 835 333 897 288 876 b 210 667 226 794 210 738 l 210 321 b 258 153 210 250 226 194 b 391 90 290 111 334 90 b 525 152 449 90 494 111 b 572 321 556 194 572 250 l 572 667 "},"1":{"ha":782,"x_min":0,"x_max":0,"o":"m 347 0 l 347 864 l 132 862 l 132 965 l 481 1002 l 481 0 "},"2":{"ha":782,"x_min":0,"x_max":0,"o":"m 102 0 l 102 92 l 412 461 b 524 621 467 528 504 581 b 553 741 544 660 553 700 b 513 853 553 786 540 824 b 403 897 487 882 450 897 b 270 843 345 897 300 879 b 224 709 239 807 224 763 l 95 709 l 94 713 b 174 918 91 794 118 862 b 403 1002 230 974 307 1002 b 611 928 491 1002 560 977 b 687 739 662 880 687 817 b 644 587 687 687 673 636 b 513 399 615 537 571 474 l 264 108 l 265 104 l 715 104 l 715 0 "},"3":{"ha":782,"x_min":0,"x_max":0,"o":"m 393 562 b 519 606 452 562 494 576 b 556 730 544 636 556 677 b 516 851 556 780 543 820 b 396 897 489 881 449 897 b 268 849 345 897 302 881 b 218 729 235 817 218 777 l 90 729 l 88 733 b 172 923 86 807 114 871 b 396 1002 231 975 305 1002 b 612 932 488 1002 560 978 b 690 728 664 886 690 818 b 653 602 690 682 678 640 b 552 513 629 564 595 534 b 666 422 602 493 640 463 b 705 275 692 382 705 333 b 619 63 705 185 676 114 b 396 -14 562 11 487 -14 b 174 60 312 -14 238 11 b 81 256 110 110 79 175 l 83 260 l 210 260 b 262 139 210 212 228 172 b 396 90 297 107 341 90 b 524 141 450 90 493 107 b 571 273 555 174 571 218 b 528 412 571 335 557 381 b 393 458 499 442 454 458 l 283 458 l 283 562 l 393 562 "},"4":{"ha":782,"x_min":0,"x_max":0,"o":"m 742 332 l 742 228 l 606 228 l 606 0 l 473 0 l 473 228 l 49 228 l 49 303 l 465 987 l 606 987 l 606 332 m 473 332 l 473 795 l 469 796 l 456 762 l 192 332 "},"5":{"ha":782,"x_min":0,"x_max":0,"o":"m 176 987 l 670 987 l 670 869 l 288 869 l 256 585 b 327 624 278 600 301 613 b 415 640 353 634 382 639 b 630 554 506 640 578 612 b 707 315 681 496 707 416 b 628 76 707 216 681 136 b 395 -14 575 16 497 -14 b 186 54 312 -14 242 9 b 106 256 131 100 104 167 l 108 260 l 229 260 b 275 135 229 206 244 164 b 395 90 306 105 346 90 b 527 150 452 90 496 110 b 574 313 558 190 574 244 b 527 466 574 376 558 427 b 395 524 495 505 451 524 b 281 500 343 524 305 516 b 229 427 258 485 241 460 l 119 439 "},"6":{"ha":782,"x_min":0,"x_max":0,"o":"m 435 1002 b 550 990 474 1002 512 998 b 644 961 588 982 619 973 l 616 859 b 534 886 590 870 563 879 b 435 897 506 893 473 897 b 284 817 373 897 322 870 b 226 616 245 764 226 697 l 226 540 b 324 605 253 567 286 589 b 446 629 362 621 402 629 b 647 543 531 629 598 600 b 722 319 697 486 722 411 b 638 76 722 217 694 137 b 414 -14 583 16 508 -14 b 185 90 323 -14 247 20 b 93 374 124 159 93 254 l 93 602 b 192 888 93 717 126 813 b 435 1002 257 964 338 1002 m 403 529 b 295 502 361 529 325 520 b 226 430 265 484 242 460 l 226 361 b 280 163 226 278 244 212 b 414 90 317 114 361 90 b 543 154 470 90 513 111 b 588 319 573 196 588 251 b 539 472 588 383 572 434 b 403 529 507 510 462 529 "},"7":{"ha":782,"x_min":0,"x_max":0,"o":"m 721 882 b 468 490 596 734 512 603 b 402 108 424 376 402 249 l 402 0 l 269 0 l 269 108 b 351 511 269 257 296 391 b 589 882 406 631 485 754 l 66 882 l 66 987 l 721 987 l 721 882 "},"8":{"ha":782,"x_min":0,"x_max":0,"o":"m 685 735 b 642 599 685 684 670 638 b 526 511 613 560 574 531 b 661 418 582 492 627 461 b 712 271 695 376 712 327 b 624 60 712 180 683 110 b 398 -14 565 11 489 -14 b 161 60 301 -14 222 11 b 69 271 100 110 69 180 b 121 418 69 327 86 376 b 261 512 156 461 202 492 b 141 599 210 531 170 560 b 97 735 112 638 97 684 b 180 933 97 821 125 887 b 397 1002 235 979 308 1002 b 604 933 481 1002 550 979 b 685 735 658 887 685 821 m 579 274 b 527 407 579 328 562 372 b 397 459 492 442 448 459 b 258 407 341 459 294 442 b 203 274 221 372 203 328 b 257 140 203 218 221 174 b 398 90 294 107 341 90 b 527 141 450 90 493 107 b 579 274 562 174 579 219 m 551 733 b 507 850 551 781 537 820 b 397 897 477 881 441 897 b 277 852 348 897 309 882 b 231 733 246 823 231 783 b 278 611 231 683 246 642 b 398 564 310 580 350 564 b 508 611 442 564 478 580 b 551 733 537 642 551 683 "},"9":{"ha":782,"x_min":0,"x_max":0,"o":"m 340 90 b 495 157 404 90 456 112 b 555 345 535 201 555 264 l 555 429 b 474 356 533 397 506 373 b 368 332 441 340 406 332 b 144 419 273 332 198 361 b 63 663 90 478 63 559 b 149 907 63 763 92 844 b 362 1002 207 970 278 1002 b 600 909 461 1002 540 971 b 689 646 659 847 689 759 l 689 347 b 591 81 689 233 656 145 b 340 -14 526 18 442 -14 b 233 -3 305 -14 269 -11 b 131 28 197 4 163 14 l 151 130 b 239 99 181 116 210 105 b 340 90 268 93 301 90 m 368 436 b 485 468 414 436 453 447 b 555 549 517 489 540 516 l 555 666 b 505 837 555 740 538 797 b 366 897 472 877 426 897 b 245 832 318 897 277 875 b 197 663 213 789 197 732 b 241 499 197 595 212 541 b 368 436 271 457 313 436 "},"\n":{"ha":345,"x_min":0,"x_max":0,"o":""},"\u000b":{"ha":345,"x_min":0,"x_max":0,"o":""},"\f":{"ha":345,"x_min":0,"x_max":0,"o":""},"ˈ":{"ha":345,"x_min":0,"x_max":0,"o":""},"̂":{"ha":345,"x_min":0,"x_max":0,"o":""},"ϓ":{"ha":345,"x_min":0,"x_max":0,"o":""},"ϔ":{"ha":345,"x_min":0,"x_max":0,"o":""},"ϕ":{"ha":345,"x_min":0,"x_max":0,"o":""},"‣":{"ha":345,"x_min":0,"x_max":0,"o":""},"․":{"ha":345,"x_min":0,"x_max":0,"o":""},"‱":{"ha":345,"x_min":0,"x_max":0,"o":""},"※":{"ha":345,"x_min":0,"x_max":0,"o":""},"₥":{"ha":345,"x_min":0,"x_max":0,"o":""},"₦":{"ha":345,"x_min":0,"x_max":0,"o":""},"₨":{"ha":345,"x_min":0,"x_max":0,"o":""},"₩":{"ha":345,"x_min":0,"x_max":0,"o":""},"₪":{"ha":345,"x_min":0,"x_max":0,"o":""},"℔":{"ha":345,"x_min":0,"x_max":0,"o":""},"ℕ":{"ha":345,"x_min":0,"x_max":0,"o":""},"℣":{"ha":345,"x_min":0,"x_max":0,"o":""},"ℤ":{"ha":345,"x_min":0,"x_max":0,"o":""},"℥":{"ha":345,"x_min":0,"x_max":0,"o":""},"∃":{"ha":345,"x_min":0,"x_max":0,"o":""},"∄":{"ha":345,"x_min":0,"x_max":0,"o":""},"∅":{"ha":345,"x_min":0,"x_max":0,"o":""},"∐":{"ha":345,"x_min":0,"x_max":0,"o":""},"∛":{"ha":345,"x_min":0,"x_max":0,"o":""},"∜":{"ha":345,"x_min":0,"x_max":0,"o":""},"∝":{"ha":345,"x_min":0,"x_max":0,"o":""},"≡":{"ha":345,"x_min":0,"x_max":0,"o":""},"≢":{"ha":345,"x_min":0,"x_max":0,"o":""},"≣":{"ha":345,"x_min":0,"x_max":0,"o":""},"\u0000":{"ha":0,"x_min":0,"x_max":0,"o":""},"\t":{"ha":0,"x_min":0,"x_max":0,"o":""},"\r":{"ha":345,"x_min":0,"x_max":0,"o":""}," ":{"ha":345,"x_min":0,"x_max":0,"o":""},"!":{"ha":366,"x_min":0,"x_max":0,"o":"m 116 324 l 116 987 l 250 987 l 250 324 m 116 0 l 116 138 l 250 138 l 250 0 "},"\"":{"ha":497,"x_min":0,"x_max":0,"o":"m 361 635 l 295 635 l 295 987 l 429 987 l 429 804 m 151 635 l 85 635 l 86 798 l 86 987 l 220 987 l 220 804 "},"#":{"ha":865,"x_min":0,"x_max":0,"o":"m 310 278 l 256 0 l 153 0 l 208 278 l 47 278 l 47 373 l 227 373 l 273 609 l 99 609 l 99 705 l 292 705 l 347 987 l 450 987 l 394 705 l 567 705 l 623 987 l 725 987 l 669 705 l 804 705 l 804 609 l 651 609 l 605 373 l 753 373 l 753 278 l 586 278 l 532 0 l 429 0 l 483 278 m 502 373 l 548 609 l 375 609 l 329 373 "},"$":{"ha":809,"x_min":0,"x_max":0,"o":"m 587 255 b 544 359 587 296 572 330 b 401 436 515 388 467 413 b 194 547 309 464 241 500 b 124 731 147 593 124 654 b 189 913 124 806 146 866 b 366 998 231 961 290 989 l 366 1148 l 473 1148 l 473 998 b 649 905 548 988 607 957 b 711 696 690 853 711 783 l 578 696 b 536 836 578 753 564 800 b 418 889 507 871 468 889 b 298 847 364 889 324 875 b 258 733 271 820 258 781 b 299 627 258 689 271 654 b 448 549 327 600 376 574 b 653 438 540 519 608 482 b 720 256 698 393 720 333 b 650 71 720 179 697 117 b 458 -11 604 25 540 -2 l 458 -141 l 352 -141 l 352 -12 b 161 74 274 -3 210 25 b 89 288 111 122 87 194 l 90 291 l 219 291 b 272 142 219 221 237 172 b 401 98 307 112 350 98 b 537 139 459 98 505 112 b 587 255 570 167 587 206 "},"%":{"ha":1016,"x_min":0,"x_max":0,"o":"m 71 798 b 126 943 71 855 89 903 b 275 1002 163 982 213 1002 b 423 943 337 1002 386 982 b 479 798 460 904 479 855 l 479 745 b 424 601 479 688 460 640 b 276 543 387 562 338 543 b 126 601 214 543 164 562 b 71 745 89 640 71 688 l 71 798 m 170 745 b 197 660 170 712 179 683 b 276 625 215 637 242 625 b 353 660 309 625 335 637 b 380 745 371 683 380 711 l 380 798 b 352 883 380 831 371 860 b 275 919 334 907 308 919 b 197 883 241 919 215 907 b 170 798 179 860 170 831 l 170 745 m 549 242 b 604 387 549 300 567 348 b 753 446 641 426 691 446 b 901 387 814 446 864 426 b 957 242 938 348 957 300 l 957 189 b 901 44 957 131 938 83 b 754 -14 864 5 815 -14 b 605 44 692 -14 642 5 b 549 189 567 83 549 131 l 549 242 m 648 189 b 675 103 648 155 657 127 b 754 68 693 80 720 68 b 831 103 787 68 813 80 b 858 189 849 127 858 155 l 858 242 b 830 328 858 276 849 304 b 753 363 812 351 786 363 b 675 328 719 363 693 351 b 648 242 657 304 648 276 l 648 189 m 237 120 l 719 892 l 793 846 l 311 75 "},"&":{"ha":865,"x_min":0,"x_max":0,"o":"m 43 266 b 91 411 43 321 59 369 b 234 535 123 452 171 493 b 155 655 199 580 172 620 b 130 763 138 690 130 726 b 196 940 130 839 152 898 b 378 1002 240 981 300 1002 b 552 940 449 1002 507 981 b 619 791 597 899 619 849 b 584 676 619 747 607 709 b 478 577 560 644 525 611 l 404 523 l 635 245 b 678 343 653 275 668 307 b 694 456 689 379 694 417 l 813 456 b 787 291 813 397 804 342 b 710 155 769 240 743 195 l 836 3 l 834 0 l 679 0 l 621 69 b 501 7 585 42 545 21 b 365 -14 457 -7 412 -14 b 131 64 267 -14 189 12 b 43 266 72 116 43 183 m 365 90 b 461 107 397 90 430 96 b 551 155 493 118 523 134 l 306 450 l 279 430 b 197 342 238 399 210 370 b 177 266 184 314 177 288 b 225 140 177 215 193 173 b 365 90 257 107 304 90 m 263 764 b 281 689 263 740 269 715 b 336 604 294 663 312 635 l 430 669 b 483 725 456 686 473 705 b 496 791 492 745 496 767 b 464 865 496 819 485 843 b 378 897 442 886 413 897 b 293 858 341 897 313 884 b 263 764 273 833 263 801 "},"'":{"ha":302,"x_min":0,"x_max":0,"o":"m 151 645 l 85 645 l 86 825 l 86 987 l 220 987 l 220 836 "},"(":{"ha":460,"x_min":0,"x_max":0,"o":"m 90 401 b 197 857 90 579 125 731 b 424 1109 269 983 345 1067 l 428 1109 l 454 1030 b 292 798 392 982 338 904 b 223 402 246 691 223 559 l 223 393 b 292 -2 223 236 246 105 b 454 -241 337 -109 391 -188 l 428 -314 l 424 -314 b 197 -62 345 -272 269 -188 b 90 395 125 64 90 216 l 90 401 "},")":{"ha":466,"x_min":0,"x_max":0,"o":"m 368 395 b 260 -62 368 216 332 64 b 34 -314 188 -188 113 -272 l 30 -314 l 4 -241 b 165 -6 65 -193 119 -115 b 235 393 211 102 235 236 l 235 402 b 163 798 235 557 211 689 b 4 1036 115 907 62 987 l 30 1109 l 34 1109 b 260 857 113 1067 188 983 b 368 401 332 731 368 579 l 368 395 "},"*":{"ha":600,"x_min":0,"x_max":0,"o":"m 60 517 l 93 622 l 253 561 l 246 733 l 355 733 l 349 557 l 507 617 l 539 511 l 375 465 l 479 330 l 389 264 l 294 412 l 203 270 l 113 332 l 220 472 "},"+":{"ha":788,"x_min":0,"x_max":0,"o":"m 730 531 l 730 410 l 459 410 l 459 99 l 326 99 l 326 410 l 53 410 l 53 531 l 326 531 l 326 818 l 459 818 l 459 531 "},",":{"ha":274,"x_min":0,"x_max":0,"o":"m 112 -175 l 33 -175 l 80 39 l 80 150 l 214 150 l 214 33 "},"-":{"ha":626,"x_min":0,"x_max":0,"o":"m 113 365 l 113 469 l 513 469 l 513 365 "},".":{"ha":372,"x_min":0,"x_max":0,"o":"m 109 0 l 109 137 l 243 137 l 243 0 "},"/":{"ha":576,"x_min":0,"x_max":0,"o":"m 11 -85 l 423 987 l 536 987 l 125 -85 "},":":{"ha":351,"x_min":0,"x_max":0,"o":"m 109 0 l 109 137 l 243 137 l 243 0 m 109 594 l 109 731 l 243 731 l 243 594 "},";":{"ha":356,"x_min":0,"x_max":0,"o":"m 110 594 l 110 731 l 243 731 l 243 594 m 146 -175 l 67 -175 l 115 39 l 115 150 l 248 150 l 248 33 "},"<":{"ha":705,"x_min":0,"x_max":0,"o":"m 165 380 l 165 376 l 222 363 l 602 209 l 602 73 l 48 330 l 48 431 l 602 687 l 602 551 l 222 393 "},"=":{"ha":782,"x_min":0,"x_max":0,"o":"m 103 558 l 103 669 l 669 669 l 669 558 m 103 276 l 103 387 l 669 387 l 669 276 "},">":{"ha":727,"x_min":0,"x_max":0,"o":"m 92 673 l 673 417 l 673 316 l 92 59 l 92 192 l 498 353 l 555 365 l 555 369 l 498 382 l 92 541 "},"?":{"ha":661,"x_min":0,"x_max":0,"o":"m 241 278 b 258 414 241 344 247 389 b 343 515 269 440 297 473 b 439 637 388 568 420 608 b 467 740 458 665 467 700 b 429 850 467 788 454 825 b 319 889 403 876 367 889 b 214 856 278 889 243 878 b 171 757 185 833 171 800 l 43 757 l 41 761 b 118 936 40 834 66 892 b 319 1002 171 980 238 1002 b 527 933 408 1002 478 979 b 601 743 576 888 601 825 b 553 583 601 685 585 632 b 427 435 521 535 479 485 b 382 369 402 410 387 388 b 374 278 377 349 374 319 l 241 278 m 239 0 l 239 141 l 379 141 l 379 0 "},"@":{"ha":1243,"x_min":0,"x_max":0,"o":"m 1175 340 b 1093 91 1171 244 1143 160 b 868 -14 1043 21 968 -14 b 783 14 835 -14 807 -5 b 731 94 759 33 741 59 b 648 13 708 57 681 30 b 534 -14 616 -5 578 -14 b 403 67 478 -14 434 13 b 368 282 372 122 360 194 b 461 564 379 399 410 493 b 651 670 513 635 576 670 b 766 652 699 670 737 664 b 860 598 795 641 826 623 l 857 595 l 861 595 l 827 199 b 841 96 823 149 827 115 b 897 68 855 77 873 68 b 1030 145 952 68 997 93 b 1086 340 1064 196 1082 261 b 988 744 1093 513 1060 648 b 652 889 916 841 804 889 b 316 732 512 889 400 837 b 178 324 231 628 185 492 b 280 -79 170 154 204 20 b 607 -227 356 -178 465 -227 b 728 -213 647 -227 687 -222 b 831 -174 769 -203 803 -190 l 857 -247 b 742 -291 827 -266 788 -281 b 604 -307 695 -302 649 -307 b 206 -138 432 -307 300 -251 b 77 324 112 -25 69 129 b 246 791 86 515 142 671 b 654 970 350 911 486 970 b 1049 801 826 970 957 914 b 1175 340 1140 688 1182 534 m 488 282 b 503 136 483 218 488 169 b 575 85 518 102 542 85 b 654 102 604 85 630 91 b 720 161 678 113 700 133 b 720 179 720 167 720 173 b 722 199 720 185 721 191 l 753 564 b 716 576 742 569 729 573 b 676 581 704 580 690 581 b 547 507 620 581 576 556 b 488 282 517 457 497 382 "},"A":{"ha":878,"x_min":0,"x_max":0,"o":"m 254 254 l 165 0 l 29 0 l 385 987 l 500 987 l 848 0 l 712 0 l 625 254 m 587 366 l 444 790 l 439 790 l 292 366 "},"B":{"ha":883,"x_min":0,"x_max":0,"o":"m 115 987 l 437 987 b 680 921 541 987 621 965 b 767 720 738 876 767 809 b 728 606 767 678 754 640 b 623 529 701 572 667 547 b 777 445 688 520 739 492 b 833 279 815 398 833 342 b 745 72 833 188 804 119 b 507 0 687 24 607 0 l 115 0 m 249 104 l 507 104 b 649 150 568 104 615 119 b 699 277 682 180 699 222 b 648 410 699 332 682 376 b 509 463 613 443 567 461 l 500 463 l 249 463 m 465 568 b 587 609 515 568 555 581 b 633 723 618 636 633 674 b 583 843 633 776 617 816 b 437 882 549 869 501 882 l 249 882 l 249 568 "},"C":{"ha":880,"x_min":0,"x_max":0,"o":"m 821 312 b 724 79 823 219 791 142 b 458 -14 657 17 568 -14 b 185 104 347 -14 256 25 b 80 406 115 184 80 284 l 80 581 b 185 883 80 703 115 803 b 458 1002 256 962 347 1002 b 725 912 570 1002 659 972 b 821 676 791 853 823 774 l 820 672 l 692 672 b 631 836 692 741 671 796 b 458 897 590 876 533 897 b 280 806 384 897 324 866 b 214 583 236 746 214 672 l 214 406 b 280 180 214 316 236 241 b 458 90 324 120 384 90 b 631 150 533 90 590 110 b 692 316 671 190 692 245 l 820 316 "},"D":{"ha":941,"x_min":0,"x_max":0,"o":"m 115 987 l 426 987 b 737 868 555 987 658 948 b 854 561 815 789 854 687 l 854 426 b 737 118 854 300 815 197 b 426 0 658 39 555 0 l 115 0 m 249 104 l 426 104 b 642 195 517 104 589 135 b 721 426 695 255 721 332 l 721 562 b 642 792 721 655 695 732 b 426 882 589 852 517 882 l 249 882 "},"E":{"ha":766,"x_min":0,"x_max":0,"o":"m 249 458 l 249 104 l 724 104 l 724 0 l 115 0 l 115 987 l 716 987 l 716 882 l 249 882 l 249 563 l 654 563 l 654 458 "},"F":{"ha":766,"x_min":0,"x_max":0,"o":"m 249 437 l 249 0 l 115 0 l 115 987 l 734 987 l 734 882 l 249 882 l 249 542 l 665 542 l 665 437 "},"G":{"ha":941,"x_min":0,"x_max":0,"o":"m 825 133 b 703 32 802 96 761 63 b 477 -14 645 1 569 -14 b 194 99 363 -14 269 24 b 82 392 119 175 82 272 l 82 595 b 190 888 82 715 118 813 b 468 1002 262 964 354 1002 b 728 914 578 1002 665 972 b 821 690 792 855 823 781 l 820 686 l 692 686 b 633 837 692 746 672 797 b 468 897 595 877 539 897 b 286 812 392 897 332 868 b 216 597 239 755 216 684 l 216 392 b 290 175 216 304 241 232 b 477 90 338 119 401 90 b 615 113 535 90 581 98 b 692 167 650 128 675 146 l 692 389 l 468 389 l 468 494 l 825 494 l 825 133 "},"H":{"ha":977,"x_min":0,"x_max":0,"o":"m 728 0 l 728 436 l 249 436 l 249 0 l 115 0 l 115 987 l 249 987 l 249 541 l 728 541 l 728 987 l 862 987 l 862 0 "},"I":{"ha":393,"x_min":0,"x_max":0,"o":"m 129 0 l 129 987 l 263 987 l 263 0 "},"J":{"ha":762,"x_min":0,"x_max":0,"o":"m 648 987 l 648 286 b 565 67 648 194 620 121 b 347 -14 509 13 436 -14 b 131 58 256 -14 184 10 b 54 268 77 106 51 176 l 55 272 l 183 272 b 226 135 183 210 197 165 b 347 90 254 105 295 90 b 468 144 397 90 437 108 b 515 286 499 179 515 227 l 515 987 "},"K":{"ha":883,"x_min":0,"x_max":0,"o":"m 249 446 l 249 0 l 115 0 l 115 987 l 249 987 l 249 551 l 322 551 l 688 987 l 839 987 l 840 984 l 440 517 l 869 3 l 867 0 l 705 0 l 336 446 "},"L":{"ha":764,"x_min":0,"x_max":0,"o":"m 730 104 l 730 0 l 115 0 l 115 987 l 249 987 l 249 104 "},"M":{"ha":1206,"x_min":0,"x_max":0,"o":"m 609 185 l 924 987 l 1090 987 l 1090 0 l 957 0 l 957 740 l 953 741 l 654 0 l 561 0 l 253 765 l 249 764 l 249 0 l 115 0 l 115 987 l 291 987 l 605 185 "},"N":{"ha":978,"x_min":0,"x_max":0,"o":"m 728 0 l 253 754 l 249 753 l 249 0 l 115 0 l 115 987 l 249 987 l 724 234 l 728 235 l 728 987 l 862 987 l 862 0 "},"O":{"ha":947,"x_min":0,"x_max":0,"o":"m 869 406 b 757 105 869 285 832 185 b 466 -14 682 26 585 -14 b 185 105 351 -14 257 26 b 77 406 113 185 77 285 l 77 581 b 185 882 77 701 113 802 b 466 1002 257 962 351 1002 b 757 882 585 1002 682 962 b 869 581 832 802 869 702 l 869 406 m 736 583 b 663 805 736 673 711 747 b 466 892 614 863 548 892 b 280 805 388 892 326 863 b 210 583 233 747 210 673 l 210 406 b 280 182 210 314 233 240 b 466 95 326 124 388 95 b 663 181 549 95 614 124 b 736 406 712 239 736 314 l 736 583 "},"P":{"ha":883,"x_min":0,"x_max":0,"o":"m 249 0 l 115 0 l 115 987 l 493 987 b 739 906 598 987 680 960 b 827 692 797 852 827 780 b 739 477 827 602 797 531 b 493 396 680 423 598 396 l 249 396 m 493 500 b 643 554 560 500 610 518 b 692 690 676 590 692 636 b 643 827 692 745 676 791 b 493 882 609 864 559 882 l 249 882 l 249 500 "},"Q":{"ha":968,"x_min":0,"x_max":0,"o":"m 869 406 b 847 258 869 354 862 304 b 782 134 832 212 810 170 l 929 -9 l 838 -97 l 687 47 b 584 1 655 27 621 12 b 466 -14 547 -9 507 -14 b 185 105 351 -14 257 26 b 77 406 113 185 77 285 l 77 581 b 185 882 77 701 113 802 b 466 1002 257 962 351 1002 b 757 882 585 1002 682 962 b 869 581 832 802 869 702 l 869 406 m 736 583 b 663 805 736 673 711 747 b 466 892 614 863 548 892 b 280 805 388 892 326 863 b 210 583 233 747 210 673 l 210 406 b 280 182 210 314 233 240 b 466 95 326 124 388 95 b 663 181 549 95 614 124 b 736 406 712 239 736 314 l 736 583 "},"R":{"ha":884,"x_min":0,"x_max":0,"o":"m 249 0 l 115 0 l 115 987 l 453 987 b 701 915 561 987 644 963 b 786 706 758 867 786 797 b 746 574 786 655 773 611 b 631 484 720 536 681 506 b 748 398 685 467 724 438 b 783 252 771 359 783 310 l 783 159 b 793 76 783 128 787 100 b 829 16 800 52 812 32 l 829 0 l 691 0 b 657 68 673 15 662 38 b 650 160 652 98 650 128 l 650 250 b 603 379 650 304 634 347 b 477 428 572 412 530 428 l 249 428 m 439 533 b 603 576 515 533 569 547 b 652 707 636 605 652 649 b 604 837 652 763 636 806 b 453 882 572 867 521 882 l 249 882 l 249 533 "},"S":{"ha":849,"x_min":0,"x_max":0,"o":"m 642 249 b 593 361 642 294 625 331 b 424 439 561 392 505 418 b 189 549 323 464 245 500 b 104 731 133 597 104 658 b 195 924 104 808 135 873 b 431 1002 256 976 335 1002 b 680 913 535 1002 618 972 b 770 707 742 854 772 785 l 768 703 l 640 703 b 582 842 640 759 621 805 b 431 897 542 878 492 897 b 288 851 369 897 321 881 b 238 733 255 821 238 781 b 293 626 238 690 256 654 b 470 550 329 597 388 572 b 697 436 569 524 645 486 b 775 250 749 386 775 324 b 681 58 775 171 744 107 b 436 -14 619 10 537 -14 b 183 66 341 -14 256 12 b 77 280 110 119 75 191 l 79 284 l 206 284 b 277 141 206 222 230 174 b 436 90 324 107 377 90 b 586 133 499 90 549 104 b 642 249 623 161 642 200 "},"T":{"ha":831,"x_min":0,"x_max":0,"o":"m 480 882 l 480 0 l 347 0 l 347 882 l 25 882 l 25 987 l 806 987 l 806 882 "},"U":{"ha":940,"x_min":0,"x_max":0,"o":"m 844 332 b 738 77 844 223 808 138 b 465 -14 667 16 576 -14 b 202 78 358 -14 270 16 b 100 332 134 139 100 224 l 100 987 l 233 987 l 233 332 b 298 154 233 256 255 197 b 465 90 341 112 397 90 b 642 154 538 90 596 112 b 710 332 687 197 710 256 l 710 987 l 844 987 "},"V":{"ha":878,"x_min":0,"x_max":0,"o":"m 437 177 l 441 177 l 464 259 l 719 987 l 863 987 l 496 0 l 382 0 l 15 987 l 160 987 l 415 259 "},"W":{"ha":1196,"x_min":0,"x_max":0,"o":"m 330 213 l 334 212 l 357 342 l 532 987 l 663 987 l 840 342 l 863 210 l 867 210 l 885 342 l 1026 987 l 1171 987 l 932 0 l 813 0 l 616 685 l 601 774 l 597 774 l 583 685 l 382 0 l 263 0 l 25 987 l 170 987 l 313 342 "},"X":{"ha":878,"x_min":0,"x_max":0,"o":"m 671 987 l 833 987 l 519 498 l 840 0 l 680 0 l 444 392 l 206 0 l 45 0 l 365 498 l 52 987 l 212 987 l 441 602 "},"Y":{"ha":878,"x_min":0,"x_max":0,"o":"m 695 987 l 848 987 l 501 347 l 501 0 l 368 0 l 368 357 l 27 987 l 180 987 l 437 486 "},"Z":{"ha":831,"x_min":0,"x_max":0,"o":"m 768 104 l 768 0 l 66 0 l 66 99 l 593 882 l 73 882 l 73 987 l 746 987 l 746 892 l 216 104 "},"[":{"ha":374,"x_min":0,"x_max":0,"o":"m 231 1023 l 231 -106 l 358 -106 l 358 -212 l 97 -212 l 97 1128 l 358 1128 l 358 1023 "},"\\":{"ha":574,"x_min":0,"x_max":0,"o":"m 153 987 l 565 -85 l 439 -85 l 26 987 "},"]":{"ha":374,"x_min":0,"x_max":0,"o":"m 269 1128 l 269 -212 l 7 -212 l 7 -106 l 136 -106 l 136 1023 l 7 1023 l 7 1128 "},"^":{"ha":581,"x_min":0,"x_max":0,"o":"m 41 494 l 244 987 l 335 987 l 537 494 l 414 494 l 302 779 l 291 826 l 287 826 l 276 779 l 165 494 "},"_":{"ha":631,"x_min":0,"x_max":0,"o":"m 3 -104 l 3 0 l 629 0 l 629 -104 "},"`":{"ha":435,"x_min":0,"x_max":0,"o":"m 225 849 l 56 1025 l 58 1029 l 214 1029 l 332 849 "},"a":{"ha":764,"x_min":0,"x_max":0,"o":"m 548 0 b 537 59 543 22 540 42 b 533 110 535 76 533 93 b 436 21 508 75 476 45 b 307 -14 396 -2 353 -14 b 132 44 230 -14 172 5 b 72 206 92 84 72 137 b 157 371 72 276 100 331 b 388 430 214 410 291 430 l 533 430 l 533 503 b 494 605 533 545 520 579 b 382 642 467 630 430 642 b 277 610 339 642 304 631 b 237 532 251 588 237 562 l 111 530 l 109 534 b 184 681 106 588 131 637 b 390 747 237 725 306 747 b 591 684 473 747 540 726 b 667 501 641 642 667 581 l 667 148 b 671 72 667 122 668 96 b 686 0 673 47 678 24 l 548 0 m 326 98 b 457 135 375 98 418 110 b 533 220 496 160 521 188 l 533 340 l 383 340 b 254 299 329 340 286 326 b 205 203 222 272 205 240 b 236 126 205 171 216 145 b 326 98 256 107 286 98 "},"b":{"ha":789,"x_min":0,"x_max":0,"o":"m 724 339 b 647 83 724 233 698 148 b 437 -14 596 18 526 -14 b 310 15 389 -14 346 -5 b 221 100 274 34 245 62 l 199 0 l 97 0 l 97 1058 l 231 1058 l 231 647 b 316 722 254 680 282 704 b 436 747 351 739 390 747 b 648 639 526 747 597 711 b 724 353 698 566 724 471 l 724 339 m 590 353 b 544 559 590 437 575 506 b 402 639 513 612 465 639 b 298 609 361 639 326 629 b 231 528 270 589 247 562 l 231 210 b 298 125 248 173 270 145 b 404 94 326 104 361 94 b 544 161 466 94 513 117 b 590 339 575 206 590 265 l 590 353 "},"c":{"ha":727,"x_min":0,"x_max":0,"o":"m 389 90 b 496 131 430 90 466 104 b 543 232 527 159 543 192 l 663 232 l 665 228 b 584 59 667 165 640 108 b 389 -14 528 10 463 -14 b 150 91 286 -14 206 21 b 66 353 94 161 66 248 l 66 381 b 150 642 66 485 94 572 b 389 747 207 712 286 747 b 590 671 470 747 537 722 b 665 485 642 621 667 559 l 664 481 l 543 481 b 499 595 543 526 528 564 b 389 642 470 627 433 642 b 245 566 323 642 275 617 b 200 381 215 515 200 453 l 200 353 b 244 166 200 279 215 217 b 389 90 274 116 322 90 "},"d":{"ha":789,"x_min":0,"x_max":0,"o":"m 66 353 b 142 639 66 471 92 566 b 354 747 192 711 263 747 b 468 724 397 747 435 739 b 553 654 502 708 530 685 l 553 1058 l 687 1058 l 687 0 l 585 0 l 564 93 b 475 13 540 58 511 31 b 353 -14 440 -5 399 -14 b 142 83 263 -14 193 18 b 66 339 92 148 66 233 l 66 353 m 200 339 b 245 161 200 265 215 206 b 387 94 276 117 323 94 b 487 121 426 94 460 103 b 553 197 514 139 536 165 l 553 540 b 487 612 536 570 514 594 b 388 639 459 630 426 639 b 246 559 324 639 276 612 b 200 353 215 507 200 438 l 200 339 "},"e":{"ha":727,"x_min":0,"x_max":0,"o":"m 401 -14 b 154 87 295 -14 213 19 b 66 353 95 154 66 243 l 66 382 b 157 644 66 488 96 575 b 380 747 218 713 292 747 b 601 656 478 747 551 717 b 674 412 650 595 674 514 l 674 342 l 205 342 l 203 338 b 252 159 203 265 219 205 b 401 90 284 113 334 90 b 520 110 446 90 486 97 b 608 163 554 122 583 140 l 660 76 b 556 12 634 51 599 29 b 401 -14 513 -6 461 -14 m 380 642 b 264 588 333 642 295 624 b 208 450 234 552 215 506 l 210 447 l 541 447 l 541 458 b 501 590 541 511 527 555 b 380 642 475 625 434 642 "},"f":{"ha":457,"x_min":0,"x_max":0,"o":"m 153 635 l 38 635 l 38 734 l 153 734 l 153 827 b 214 1008 153 905 173 965 b 385 1072 255 1051 312 1072 b 432 1068 401 1072 416 1071 b 484 1058 447 1066 465 1062 l 467 956 b 438 961 459 958 449 960 b 401 963 426 962 414 963 b 315 928 363 963 334 951 b 286 827 296 905 286 871 l 286 734 l 419 734 l 419 635 l 286 635 l 286 0 l 153 0 "},"g":{"ha":789,"x_min":0,"x_max":0,"o":"m 73 353 b 149 639 73 471 98 566 b 360 747 199 711 270 747 b 483 719 407 747 448 738 b 572 638 518 700 548 673 l 588 734 l 694 734 l 694 -4 b 612 -221 694 -98 667 -170 b 376 -296 558 -271 479 -296 b 261 -282 340 -296 302 -291 b 153 -242 221 -272 184 -259 l 174 -138 b 267 -171 199 -152 230 -163 b 374 -184 303 -180 339 -184 b 516 -139 439 -184 487 -169 b 561 -4 546 -110 561 -65 l 561 79 b 475 9 537 49 508 25 b 359 -14 441 -6 403 -14 b 149 83 269 -14 199 18 b 73 339 98 148 73 233 l 73 353 m 207 339 b 252 161 207 265 222 206 b 393 94 283 117 329 94 b 494 122 433 94 467 103 b 561 199 521 140 543 166 l 561 537 b 494 611 544 568 521 593 b 394 639 466 630 433 639 b 253 559 330 639 283 612 b 207 353 222 507 207 438 l 207 339 "},"h":{"ha":789,"x_min":0,"x_max":0,"o":"m 231 635 b 324 718 256 671 287 698 b 446 747 361 738 401 747 b 629 677 524 747 585 724 b 694 460 673 630 694 557 l 694 0 l 561 0 l 561 461 b 522 595 561 522 548 566 b 406 639 496 624 457 639 b 302 615 366 639 331 631 b 231 550 272 600 249 578 l 231 0 l 97 0 l 97 1058 l 231 1058 l 231 635 "},"i":{"ha":350,"x_min":0,"x_max":0,"o":"m 108 0 l 108 734 l 241 734 l 241 0 m 108 922 l 108 1058 l 241 1058 l 241 922 "},"j":{"ha":359,"x_min":0,"x_max":0,"o":"m 251 -60 b 193 -235 251 -136 231 -194 b 31 -296 154 -276 100 -296 b -8 -293 17 -296 4 -295 b -45 -284 -19 -291 -32 -288 l -35 -179 b -8 -185 -29 -181 -20 -183 b 21 -187 4 -186 13 -187 b 91 -157 50 -187 74 -177 b 117 -60 109 -137 117 -105 l 117 734 l 251 734 m 113 924 l 113 1058 l 247 1058 l 247 924 "},"k":{"ha":712,"x_min":0,"x_max":0,"o":"m 231 338 l 231 0 l 98 0 l 98 1058 l 231 1058 l 231 445 l 298 445 l 519 734 l 679 734 l 412 395 l 702 0 l 544 0 l 300 338 "},"l":{"ha":350,"x_min":0,"x_max":0,"o":"m 108 0 l 108 1058 l 241 1058 l 241 0 "},"m":{"ha":1214,"x_min":0,"x_max":0,"o":"m 226 637 b 317 719 250 672 280 699 b 446 747 354 738 397 747 b 571 713 494 747 536 736 b 650 612 606 691 633 657 b 742 711 674 654 705 687 b 875 747 780 735 824 747 b 1052 670 949 747 1008 722 b 1117 439 1095 619 1117 542 l 1117 0 l 983 0 l 983 440 b 946 594 983 512 971 564 b 835 639 921 624 884 639 b 724 591 789 639 752 623 b 674 471 696 560 679 520 l 674 466 l 674 0 l 540 0 l 540 440 b 502 591 540 509 527 559 b 391 639 476 623 439 639 b 291 614 351 639 317 630 b 231 543 265 597 245 574 l 231 0 l 97 0 l 97 734 l 216 734 "},"n":{"ha":789,"x_min":0,"x_max":0,"o":"m 226 625 b 318 715 250 663 281 694 b 444 747 355 737 397 747 b 627 678 523 747 584 724 b 692 463 671 631 692 560 l 692 0 l 559 0 l 559 460 b 520 598 559 525 546 571 b 404 639 495 625 456 639 b 299 614 362 639 327 631 b 231 545 270 598 247 574 l 231 0 l 97 0 l 97 734 l 216 734 "},"o":{"ha":789,"x_min":0,"x_max":0,"o":"m 66 374 b 154 642 66 482 95 572 b 393 747 213 712 293 747 b 634 642 495 747 575 712 b 723 374 693 572 723 483 l 723 359 b 635 90 723 249 694 160 b 395 -14 576 21 496 -14 b 154 91 293 -14 213 21 b 66 359 95 160 66 250 l 66 374 m 199 359 b 249 166 199 281 216 217 b 395 90 281 116 330 90 b 540 166 458 90 507 116 b 589 359 573 217 589 281 l 589 374 b 539 566 589 451 573 515 b 393 642 506 617 458 642 b 249 566 330 642 281 617 b 199 374 216 515 199 451 l 199 359 "},"p":{"ha":789,"x_min":0,"x_max":0,"o":"m 722 339 b 646 83 722 233 697 148 b 437 -14 596 18 526 -14 b 318 8 392 -14 352 -7 b 231 77 284 24 255 46 l 231 -282 l 97 -282 l 97 734 l 199 734 l 220 639 b 310 720 244 674 274 701 b 435 747 346 738 387 747 b 647 639 526 747 596 711 b 722 353 697 567 722 472 l 722 339 m 589 353 b 539 558 589 437 572 505 b 395 639 507 612 458 639 b 296 613 356 639 323 630 b 231 541 269 595 247 571 l 231 186 b 296 116 247 156 269 133 b 396 90 323 99 357 90 b 540 160 459 90 507 113 b 589 339 572 206 589 266 l 589 353 "},"q":{"ha":789,"x_min":0,"x_max":0,"o":"m 66 353 b 142 639 66 471 92 566 b 354 747 192 711 263 747 b 471 722 398 747 437 739 b 558 648 505 705 534 680 l 577 734 l 680 734 l 680 -282 l 546 -282 l 546 69 b 463 7 522 42 495 21 b 353 -14 430 -7 394 -14 b 142 83 263 -14 193 18 b 66 339 92 148 66 233 l 66 353 m 200 339 b 246 159 200 265 215 205 b 387 90 276 113 323 90 b 480 115 423 90 454 98 b 546 183 506 131 528 154 l 546 553 b 480 618 528 581 506 603 b 388 642 454 634 424 642 b 246 561 324 642 277 615 b 200 353 215 507 200 438 l 200 339 "},"r":{"ha":486,"x_min":0,"x_max":0,"o":"m 376 620 b 287 595 340 620 311 611 b 231 524 262 578 244 555 l 231 0 l 97 0 l 97 734 l 216 734 l 229 627 b 306 715 250 665 276 694 b 412 747 337 737 372 747 b 440 745 422 747 431 747 b 463 740 449 743 457 742 l 444 616 "},"s":{"ha":726,"x_min":0,"x_max":0,"o":"m 524 197 b 490 269 524 227 512 251 b 363 318 468 288 425 304 b 164 396 276 337 210 363 b 94 530 117 430 94 474 b 171 684 94 590 120 641 b 368 747 221 726 287 747 b 570 680 451 747 519 725 b 644 522 622 634 647 582 l 643 517 l 515 517 b 474 604 515 549 502 578 b 368 642 446 629 411 642 b 263 610 321 642 286 632 b 228 534 240 589 228 564 b 258 467 228 505 238 483 b 382 424 278 451 320 437 b 587 343 472 405 541 378 b 657 207 634 308 657 263 b 578 47 657 142 631 89 b 372 -14 525 6 457 -14 b 151 57 278 -14 204 9 b 74 223 97 104 71 160 l 75 227 l 203 227 b 256 123 205 180 223 145 b 372 90 289 101 327 90 b 483 120 419 90 456 100 b 524 197 510 140 524 166 "},"t":{"ha":468,"x_min":0,"x_max":0,"o":"m 283 734 l 422 734 l 422 635 l 283 635 l 283 189 b 304 117 283 155 290 131 b 361 96 318 103 337 96 b 387 99 368 96 377 97 b 410 105 396 101 404 103 l 429 14 b 385 -6 419 5 404 -1 b 327 -14 365 -12 346 -14 b 197 35 273 -14 229 2 b 149 189 165 68 149 119 l 149 635 l 33 635 l 33 734 l 149 734 l 149 911 l 283 911 "},"u":{"ha":789,"x_min":0,"x_max":0,"o":"m 563 109 b 474 18 540 69 510 39 b 349 -14 438 -4 396 -14 b 161 62 269 -14 206 11 b 94 301 117 113 94 193 l 94 734 l 228 734 l 228 300 b 262 138 228 222 239 168 b 370 94 286 109 321 94 b 488 123 418 94 457 104 b 558 205 519 142 542 170 l 558 734 l 692 734 l 692 0 l 572 0 l 563 109 "},"v":{"ha":699,"x_min":0,"x_max":0,"o":"m 353 165 l 357 165 l 370 216 l 539 734 l 675 734 l 406 0 l 304 0 l 31 734 l 168 734 l 342 216 "},"w":{"ha":1051,"x_min":0,"x_max":0,"o":"m 302 173 l 306 173 l 323 267 l 470 734 l 577 734 l 724 267 l 743 162 l 747 162 l 769 267 l 878 734 l 1017 734 l 804 0 l 696 0 l 551 447 l 524 564 l 519 564 l 494 447 l 351 0 l 243 0 l 31 734 l 170 734 l 285 267 "},"x":{"ha":699,"x_min":0,"x_max":0,"o":"m 502 734 l 658 734 l 420 371 l 665 0 l 511 0 l 349 277 l 186 0 l 31 0 l 276 371 l 38 734 l 192 734 l 346 463 "},"y":{"ha":699,"x_min":0,"x_max":0,"o":"m 345 180 l 349 180 l 530 734 l 678 734 l 370 -113 b 290 -241 351 -162 325 -205 b 150 -296 255 -278 209 -296 b 109 -293 139 -296 125 -295 b 70 -286 92 -290 79 -288 l 83 -180 b 107 -182 81 -180 89 -180 b 143 -184 126 -183 138 -184 b 213 -146 172 -184 195 -171 b 258 -62 231 -120 246 -92 l 290 15 l 18 734 l 167 734 l 321 272 "},"z":{"ha":699,"x_min":0,"x_max":0,"o":"m 647 104 l 647 0 l 64 0 l 64 94 l 460 628 l 68 628 l 68 734 l 624 734 l 624 643 l 223 104 "},"{":{"ha":472,"x_min":0,"x_max":0,"o":"m 428 -247 b 240 -128 340 -222 277 -182 b 184 68 203 -74 184 -8 l 184 208 b 150 326 184 258 173 298 b 43 368 126 354 91 368 l 43 468 b 150 510 91 468 126 482 b 184 628 173 537 184 577 l 184 768 b 240 965 184 845 203 911 b 428 1083 277 1019 340 1058 l 455 1004 b 349 919 405 988 370 959 b 318 768 328 878 318 827 l 318 628 b 289 503 318 581 308 539 b 203 418 270 466 241 438 b 289 332 241 397 270 368 b 318 208 308 296 318 254 l 318 68 b 349 -82 318 9 328 -41 b 455 -167 370 -122 405 -151 l 428 -247 "},"|":{"ha":344,"x_min":0,"x_max":0,"o":"m 98 -183 l 98 987 l 232 987 l 232 -183 "},"}":{"ha":472,"x_min":0,"x_max":0,"o":"m 14 -167 b 120 -82 64 -151 99 -122 b 152 68 141 -41 152 9 l 152 208 b 182 334 152 256 162 298 b 277 418 203 371 234 398 b 182 500 234 436 203 464 b 152 628 162 536 152 579 l 152 768 b 120 919 152 827 141 878 b 14 1004 99 959 64 988 l 42 1083 b 230 965 130 1058 192 1019 b 286 768 267 911 286 845 l 286 628 b 320 510 286 577 297 537 b 427 468 343 482 378 468 l 427 368 b 320 326 378 368 343 354 b 286 208 297 298 286 258 l 286 68 b 230 -128 286 -8 267 -74 b 42 -247 192 -182 130 -222 l 14 -167 "},"~":{"ha":943,"x_min":0,"x_max":0,"o":"m 857 502 b 798 340 857 440 838 386 b 651 272 759 295 710 272 b 540 294 610 272 573 279 b 433 367 507 309 471 333 b 359 416 406 389 382 405 b 292 432 337 427 315 432 b 215 396 262 432 236 420 b 182 309 193 372 182 343 l 87 321 b 145 479 87 383 106 435 b 292 545 183 523 233 545 b 403 521 332 545 369 537 b 511 450 437 506 473 482 b 583 400 538 427 562 411 b 651 385 605 390 628 385 b 729 423 681 385 707 397 b 762 514 751 449 762 479 l 857 502 "}," ":{"ha":345,"x_min":0,"x_max":0,"o":""},"¡":{"ha":344,"x_min":0,"x_max":0,"o":"m 98 -254 l 98 410 l 231 410 l 231 -254 m 98 594 l 98 734 l 231 734 l 231 594 "},"¢":{"ha":761,"x_min":0,"x_max":0,"o":"m 389 90 b 496 131 430 90 466 104 b 543 232 527 159 543 192 l 665 232 l 666 229 b 608 83 667 176 648 127 b 458 -5 567 38 518 9 l 458 -166 l 324 -166 l 324 -8 b 133 113 241 6 177 46 b 66 353 88 180 66 260 l 66 381 b 133 618 66 472 88 552 b 324 741 178 685 241 726 l 324 894 l 458 894 l 458 740 b 611 649 522 726 573 696 b 667 484 649 601 668 547 l 665 481 l 543 481 b 499 595 543 526 528 564 b 389 642 470 627 433 642 b 245 566 323 642 275 617 b 200 381 215 515 200 453 l 200 353 b 244 166 200 279 215 217 b 389 90 274 116 322 90 "},"£":{"ha":810,"x_min":0,"x_max":0,"o":"m 296 316 b 285 200 296 275 292 237 b 255 104 278 163 268 131 l 753 104 l 753 0 l 91 0 l 91 104 l 98 104 b 146 180 119 110 136 135 b 163 316 157 224 163 269 l 159 417 l 47 417 l 47 522 l 155 522 l 148 705 b 224 923 148 798 173 870 b 427 1002 274 975 342 1002 b 637 931 518 1002 588 978 b 709 743 687 884 711 821 l 708 739 l 579 739 b 536 858 579 793 565 832 b 427 897 508 884 472 897 b 321 846 382 897 347 880 b 281 705 295 812 281 765 l 288 522 l 572 522 l 572 417 l 292 417 "},"¤":{"ha":987,"x_min":0,"x_max":0,"o":"m 744 73 b 629 9 709 45 671 24 b 498 -14 587 -6 543 -14 b 367 8 452 -14 408 -6 b 253 72 325 23 287 44 l 165 -18 l 71 76 l 164 171 b 112 284 142 205 124 243 b 94 412 100 325 94 368 b 114 545 94 458 101 503 b 170 662 126 588 145 627 l 71 763 l 165 857 l 262 758 b 372 816 295 783 332 802 b 498 837 413 830 454 837 b 624 816 542 837 584 830 b 735 757 664 802 701 782 l 834 858 l 929 763 l 827 659 b 882 544 851 624 869 585 b 901 412 895 502 901 458 b 883 285 901 368 895 326 b 833 173 871 245 854 207 l 929 76 l 834 -18 l 744 73 m 218 412 b 299 195 218 327 245 255 b 498 105 354 135 420 105 b 695 195 575 105 640 135 b 777 412 749 255 777 327 b 695 628 777 496 749 568 b 498 718 640 688 575 718 b 299 628 420 718 354 688 b 218 412 245 568 218 496 "},"¥":{"ha":843,"x_min":0,"x_max":0,"o":"m 661 987 l 813 987 l 530 500 l 741 500 l 741 417 l 481 417 l 481 304 l 741 304 l 741 221 l 481 221 l 481 0 l 348 0 l 348 221 l 94 221 l 94 304 l 348 304 l 348 417 l 94 417 l 94 500 l 304 500 l 20 987 l 174 987 l 417 538 "},"¦":{"ha":338,"x_min":0,"x_max":0,"o":"m 98 354 l 232 354 l 232 -183 l 98 -183 m 98 473 l 98 987 l 232 987 l 232 473 "},"§":{"ha":854,"x_min":0,"x_max":0,"o":"m 779 292 b 746 181 779 250 768 213 b 654 106 724 149 694 125 b 725 26 686 83 709 57 b 749 -87 741 -5 749 -42 b 659 -270 749 -165 719 -225 b 416 -336 598 -314 517 -336 b 163 -266 316 -336 232 -313 b 64 -47 95 -220 62 -147 l 66 -43 l 193 -42 b 259 -185 193 -107 215 -154 b 416 -231 302 -215 355 -231 b 562 -190 478 -231 526 -217 b 615 -88 597 -163 615 -129 b 566 8 615 -47 599 -15 b 379 85 534 31 471 56 b 140 191 271 113 191 149 b 64 374 89 233 64 294 b 96 483 64 415 74 451 b 186 559 117 515 147 540 b 117 640 156 581 133 608 b 94 753 102 671 94 709 b 185 933 94 828 125 888 b 428 1002 246 979 327 1002 b 674 926 533 1002 615 976 b 760 713 733 876 761 805 l 758 709 l 630 709 b 576 843 630 763 612 807 b 428 897 541 879 491 897 b 279 856 362 897 313 883 b 228 754 245 829 228 795 b 273 653 228 709 243 676 b 462 581 304 631 366 607 b 703 472 572 549 653 513 b 779 292 753 431 779 371 m 409 467 b 349 484 388 473 368 478 b 296 503 330 490 313 496 b 222 456 263 494 239 478 b 197 375 206 433 197 406 b 243 272 197 330 213 296 b 432 197 274 249 337 224 b 495 178 457 190 478 183 b 543 163 512 173 528 168 b 618 210 575 172 600 188 b 646 290 637 232 646 259 b 596 388 646 331 629 364 b 409 467 563 412 500 439 "},"¨":{"ha":692,"x_min":0,"x_max":0,"o":"m 434 852 l 434 987 l 583 987 l 583 852 m 115 852 l 115 987 l 264 987 l 264 852 "},"©":{"ha":1088,"x_min":0,"x_max":0,"o":"m 755 400 b 698 244 757 332 738 280 b 532 191 658 209 603 191 b 359 263 459 191 402 215 b 296 454 317 312 296 375 l 296 534 b 359 724 296 613 317 676 b 532 797 402 773 459 797 b 698 743 603 797 658 779 b 755 589 738 708 757 656 l 754 585 l 655 585 b 624 679 655 628 645 659 b 532 708 604 698 573 708 b 433 660 489 708 456 692 b 399 535 410 628 399 587 l 399 454 b 433 327 399 401 410 359 b 532 279 456 295 489 279 b 624 309 573 279 604 289 b 654 404 644 328 654 360 l 753 404 m 142 494 b 258 191 142 375 181 274 b 541 68 336 109 430 68 b 824 191 652 68 746 109 b 941 494 902 274 941 375 b 824 795 941 613 902 714 b 541 918 746 877 652 918 b 258 795 430 918 336 877 b 142 494 181 714 142 613 m 60 494 b 200 854 60 637 106 757 b 541 1001 294 952 407 1001 b 882 854 675 1001 788 952 b 1022 494 975 757 1022 637 b 881 133 1022 352 975 231 b 541 -14 787 35 674 -14 b 200 133 407 -14 294 35 b 60 494 106 231 60 352 "},"ª":{"ha":622,"x_min":0,"x_max":0,"o":"m 416 479 b 407 509 412 488 409 498 b 401 543 405 520 403 531 b 341 490 387 522 366 504 b 250 469 315 476 285 469 b 125 511 196 469 155 483 b 81 624 96 538 81 576 b 139 739 81 674 100 712 b 305 780 177 766 232 780 l 399 780 l 399 815 b 379 881 399 844 393 866 b 319 904 366 896 346 904 b 249 886 289 904 266 898 b 224 834 233 873 224 856 l 115 843 l 114 847 b 167 958 111 891 129 928 b 319 1002 205 987 256 1002 b 463 954 380 1002 428 986 b 516 814 498 921 516 875 l 516 602 b 520 538 516 579 517 558 b 534 479 523 518 527 498 l 416 479 m 279 564 b 350 584 302 564 326 570 b 399 628 375 597 391 612 l 399 703 l 306 703 b 227 680 272 703 246 695 b 199 627 208 665 199 647 b 218 580 199 606 205 591 b 279 564 231 569 252 564 "},"«":{"ha":655,"x_min":0,"x_max":0,"o":"m 366 79 l 266 79 l 66 343 l 66 356 l 266 620 l 366 620 l 193 349 m 593 79 l 493 79 l 293 343 l 293 356 l 493 620 l 593 620 l 420 349 "},"¬":{"ha":771,"x_min":0,"x_max":0,"o":"m 518 254 l 518 432 l 86 432 l 86 544 l 652 544 l 652 254 "},"­":{"ha":626,"x_min":0,"x_max":0,"o":"m 113 365 l 113 469 l 513 469 l 513 365 "},"®":{"ha":1088,"x_min":0,"x_max":0,"o":"m 60 494 b 200 854 60 637 106 757 b 541 1001 294 952 407 1001 b 882 854 675 1001 788 952 b 1022 494 975 757 1022 637 b 881 133 1022 352 975 231 b 541 -14 787 35 674 -14 b 200 133 407 -14 294 35 b 60 494 106 231 60 352 m 142 494 b 258 191 142 374 181 273 b 541 68 336 109 430 68 b 823 191 651 68 746 109 b 940 494 901 274 940 375 b 824 796 940 614 901 714 b 541 918 746 877 652 918 b 258 796 430 918 336 877 b 142 494 181 714 142 614 m 443 214 l 342 214 l 342 791 l 532 791 b 693 746 600 791 654 776 b 752 616 733 717 752 673 b 730 543 752 588 745 564 b 665 490 715 521 693 504 b 729 436 694 478 716 460 b 749 349 743 412 749 383 l 749 311 b 752 261 749 293 750 276 b 761 225 753 247 756 235 l 761 214 l 657 214 b 650 256 653 224 651 238 b 648 312 649 274 648 293 l 648 349 b 626 420 648 381 641 405 b 551 444 610 436 585 444 l 443 444 m 546 532 b 621 554 575 532 600 539 b 652 613 641 568 652 588 b 625 683 652 646 643 669 b 532 703 607 696 576 703 l 443 703 l 443 532 "},"¯":{"ha":644,"x_min":0,"x_max":0,"o":"m 83 888 l 83 987 l 572 987 l 572 888 "},"ˉ":{"ha":644,"x_min":0,"x_max":0,"o":"m 572 888 l 572 987 l 83 987 l 83 888 "},"°":{"ha":517,"x_min":0,"x_max":0,"o":"m 87 825 b 138 949 87 873 104 914 b 261 1002 173 984 214 1002 b 381 949 308 1002 348 984 b 432 825 415 914 432 873 b 382 701 432 776 415 735 b 261 650 348 667 308 650 b 138 701 213 650 172 667 b 87 825 104 735 87 776 m 176 825 b 200 763 176 800 184 779 b 261 739 217 747 237 739 b 320 763 285 739 304 747 b 345 825 336 779 345 800 b 320 887 345 850 336 870 b 261 913 304 904 284 913 b 200 887 237 913 217 904 b 176 825 184 870 176 850 "},"±":{"ha":744,"x_min":0,"x_max":0,"o":"m 688 581 l 688 476 l 446 476 l 446 196 l 326 196 l 326 476 l 67 476 l 67 581 l 326 581 l 326 859 l 446 859 l 446 581 m 92 3 l 92 108 l 659 108 l 659 3 "},"²":{"ha":589,"x_min":0,"x_max":0,"o":"m 83 452 l 83 541 l 288 718 b 349 784 319 745 339 767 b 364 838 359 801 364 819 b 345 893 364 861 358 879 b 286 914 332 907 312 914 b 216 892 256 914 232 907 b 191 837 199 878 191 859 l 82 837 l 81 841 b 134 956 78 886 96 924 b 286 1003 172 987 222 1003 b 429 960 347 1003 395 989 b 481 838 464 931 481 890 b 451 745 481 801 471 771 b 342 636 431 720 394 684 l 238 545 l 239 541 l 484 541 l 484 452 "},"³":{"ha":594,"x_min":0,"x_max":0,"o":"m 288 771 b 355 790 318 771 340 778 b 377 845 370 803 377 821 b 352 894 377 864 369 881 b 281 913 336 907 312 913 b 219 897 255 913 235 908 b 196 854 204 886 196 872 l 86 854 l 85 858 b 138 962 82 900 100 935 b 281 1002 176 989 224 1002 b 436 962 346 1002 398 989 b 493 847 474 935 493 897 b 469 779 493 822 485 799 b 403 730 453 758 431 742 b 476 682 434 720 459 704 b 502 604 493 661 502 634 b 441 486 502 553 481 514 b 281 444 400 458 347 444 b 133 484 223 444 174 457 b 76 598 92 510 73 548 l 77 602 l 187 602 b 213 552 187 581 196 565 b 281 532 230 539 252 532 b 358 552 313 532 339 539 b 387 605 377 566 387 583 b 362 666 387 633 378 653 b 288 686 345 679 321 686 l 198 686 l 198 771 l 288 771 "},"´":{"ha":444,"x_min":0,"x_max":0,"o":"m 370 1029 l 372 1025 l 189 849 l 89 849 l 214 1029 "},"µ":{"ha":789,"x_min":0,"x_max":0,"o":"m 237 298 b 276 134 238 218 251 163 b 381 90 301 105 336 90 b 489 115 425 90 461 98 b 551 186 516 131 537 155 l 551 734 l 685 734 l 685 0 l 565 0 l 559 73 b 486 8 539 45 515 23 b 387 -14 457 -7 424 -14 b 301 -3 354 -14 325 -11 b 237 32 276 4 255 16 l 237 -282 l 104 -282 l 104 734 l 237 734 "},"¶":{"ha":682,"x_min":0,"x_max":0,"o":"m 433 353 l 376 353 b 131 440 271 353 189 382 b 43 670 72 499 43 576 b 131 899 43 764 72 840 b 376 987 189 958 271 987 l 567 987 l 567 0 l 433 0 "},"·":{"ha":366,"x_min":0,"x_max":0,"o":"m 109 423 l 109 567 l 243 567 l 243 423 "},"¸":{"ha":345,"x_min":0,"x_max":0,"o":"m 190 -35 b 263 -71 219 -40 244 -52 b 292 -153 283 -89 292 -116 b 239 -256 292 -196 274 -231 b 85 -295 203 -282 152 -295 l 81 -221 b 159 -204 113 -221 139 -216 b 189 -155 179 -193 189 -177 b 165 -109 189 -133 181 -118 b 81 -92 149 -101 121 -95 l 103 0 l 198 0 "},"¹":{"ha":378,"x_min":0,"x_max":0,"o":"m 151 451 l 151 895 l 64 895 l 64 986 l 269 1002 l 269 451 "},"º":{"ha":633,"x_min":0,"x_max":0,"o":"m 81 774 b 145 938 81 841 103 896 b 315 1002 188 981 244 1002 b 486 938 387 1002 444 981 b 550 774 529 896 550 841 l 550 695 b 487 531 550 628 529 573 b 317 469 444 490 388 469 b 145 531 245 469 188 490 b 81 695 103 573 81 628 l 81 774 m 199 695 b 229 600 199 655 209 624 b 317 564 248 576 278 564 b 403 600 354 564 383 576 b 433 695 423 624 433 656 l 433 774 b 403 868 433 812 423 844 b 315 904 382 892 353 904 b 229 868 277 904 248 892 b 199 774 209 844 199 812 l 199 695 "},"»":{"ha":655,"x_min":0,"x_max":0,"o":"m 79 631 l 179 631 l 368 389 l 371 389 l 372 382 l 375 379 l 374 373 l 375 367 l 372 363 l 371 358 l 368 358 l 179 115 l 79 115 l 235 373 m 313 631 l 414 631 l 602 389 l 606 389 l 606 382 l 610 379 l 608 373 l 610 367 l 606 363 l 606 358 l 603 358 l 414 115 l 313 115 l 470 373 "},"¼":{"ha":1082,"x_min":0,"x_max":0,"o":"m 211 450 l 211 895 l 125 895 l 125 985 l 329 1001 l 329 450 m 230 125 l 712 897 l 786 852 l 304 80 m 1021 191 l 1021 103 l 936 103 l 936 0 l 821 0 l 821 103 l 538 103 l 532 172 l 819 543 l 936 543 l 936 191 m 821 191 l 821 401 l 817 402 l 808 387 l 656 191 "},"½":{"ha":1158,"x_min":0,"x_max":0,"o":"m 239 125 l 721 897 l 795 852 l 313 80 m 211 450 l 211 895 l 125 895 l 125 985 l 329 1001 l 329 450 m 633 0 l 633 88 l 838 266 b 899 332 869 293 889 315 b 914 386 909 349 914 367 b 895 441 914 408 908 427 b 836 462 882 455 862 462 b 766 440 806 462 782 455 b 741 385 749 426 741 407 l 632 385 l 631 389 b 684 503 628 433 646 472 b 836 551 722 535 772 551 b 979 507 897 551 945 536 b 1031 385 1014 478 1031 438 b 1001 293 1031 349 1021 318 b 892 184 981 268 944 231 l 788 92 l 789 88 l 1034 88 l 1034 0 "},"¾":{"ha":1208,"x_min":0,"x_max":0,"o":"m 354 125 l 836 897 l 910 852 l 428 80 m 1149 191 l 1149 103 l 1064 103 l 1064 0 l 949 0 l 949 103 l 666 103 l 661 172 l 947 543 l 1064 543 l 1064 191 m 949 191 l 949 401 l 945 402 l 936 387 l 784 191 m 298 772 b 366 791 329 772 351 778 b 388 846 381 804 388 822 b 363 895 388 865 380 881 b 292 914 347 908 323 914 b 230 898 266 914 246 909 b 207 854 215 887 207 873 l 97 854 l 96 859 b 149 963 93 901 111 936 b 292 1003 187 990 235 1003 b 447 963 357 1003 409 990 b 504 848 485 936 504 897 b 480 780 504 823 496 800 b 414 731 464 759 442 743 b 487 683 445 721 470 705 b 513 604 504 661 513 635 b 452 487 513 554 492 515 b 292 445 411 459 358 445 b 144 484 234 445 185 458 b 87 599 103 510 84 549 l 87 603 l 198 603 b 223 552 198 582 207 565 b 292 533 240 539 263 533 b 369 553 324 533 350 540 b 397 606 388 566 397 584 b 373 667 397 634 389 654 b 298 686 356 680 331 686 l 209 686 l 209 772 l 298 772 "},"¿":{"ha":687,"x_min":0,"x_max":0,"o":"m 437 456 b 420 319 437 390 431 344 b 335 219 409 293 381 260 b 239 96 290 166 258 125 b 211 -5 220 68 211 34 b 249 -116 211 -53 224 -90 b 359 -155 274 -142 311 -155 b 464 -121 399 -155 434 -143 b 507 -22 493 -99 507 -66 l 635 -22 l 637 -26 b 559 -201 638 -99 612 -158 b 359 -267 506 -245 440 -267 b 151 -199 269 -267 200 -244 b 77 -9 102 -154 77 -90 b 125 150 77 49 93 101 b 252 299 156 198 199 248 b 296 364 276 323 290 345 b 304 456 301 384 304 414 l 437 456 m 439 734 l 439 593 l 299 593 l 299 734 "},"À":{"ha":878,"x_min":0,"x_max":0,"o":"m 254 254 l 165 0 l 29 0 l 385 987 l 500 987 l 848 0 l 712 0 l 625 254 m 587 366 l 444 790 l 439 790 l 292 366 m 389 1086 l 219 1262 l 221 1266 l 377 1266 l 496 1086 "},"Á":{"ha":878,"x_min":0,"x_max":0,"o":"m 254 254 l 165 0 l 29 0 l 385 987 l 500 987 l 848 0 l 712 0 l 625 254 m 587 366 l 444 790 l 439 790 l 292 366 m 660 1263 l 661 1259 l 479 1083 l 378 1083 l 504 1263 "},"Â":{"ha":878,"x_min":0,"x_max":0,"o":"m 254 254 l 165 0 l 29 0 l 385 987 l 500 987 l 848 0 l 712 0 l 625 254 m 587 366 l 444 790 l 439 790 l 292 366 m 648 1086 l 539 1086 l 439 1186 l 340 1086 l 232 1086 l 232 1103 l 399 1264 l 480 1264 l 648 1103 "},"Ã":{"ha":878,"x_min":0,"x_max":0,"o":"m 254 254 l 165 0 l 29 0 l 385 987 l 500 987 l 848 0 l 712 0 l 625 254 m 587 366 l 444 790 l 439 790 l 292 366 m 675 1251 b 634 1143 675 1208 661 1172 b 533 1099 608 1113 574 1099 b 433 1130 501 1099 467 1109 b 346 1162 398 1151 369 1162 b 297 1140 326 1162 310 1154 b 277 1086 284 1125 277 1107 l 204 1104 b 244 1214 204 1146 217 1183 b 346 1260 271 1245 305 1260 b 441 1228 371 1260 403 1249 b 533 1196 479 1207 510 1196 b 581 1218 552 1196 568 1204 b 602 1272 595 1233 602 1251 l 675 1251 "},"Ä":{"ha":878,"x_min":0,"x_max":0,"o":"m 254 254 l 165 0 l 29 0 l 385 987 l 500 987 l 848 0 l 712 0 l 625 254 m 587 366 l 444 790 l 439 790 l 292 366 m 525 1088 l 525 1224 l 673 1224 l 673 1088 m 206 1088 l 206 1224 l 355 1224 l 355 1088 "},"Å":{"ha":878,"x_min":0,"x_max":0,"o":"m 254 254 l 165 0 l 29 0 l 385 987 l 500 987 l 848 0 l 712 0 l 625 254 m 587 366 l 444 790 l 439 790 l 292 366 m 319 1176 b 354 1258 319 1208 331 1236 b 439 1291 378 1280 406 1291 b 522 1258 471 1291 499 1280 b 556 1176 545 1236 556 1208 b 522 1096 556 1143 545 1116 b 439 1065 499 1075 471 1065 b 354 1096 405 1065 377 1075 b 319 1176 331 1117 319 1143 m 387 1176 b 402 1140 387 1162 392 1150 b 439 1126 413 1131 425 1126 b 474 1140 452 1126 464 1131 b 488 1176 483 1149 488 1161 b 474 1213 488 1190 483 1203 b 439 1228 464 1223 452 1228 b 402 1213 424 1228 412 1223 b 387 1176 392 1203 387 1190 "},"Æ":{"ha":1356,"x_min":0,"x_max":0,"o":"m 698 0 l 688 237 l 310 237 l 174 0 l 9 0 l 607 987 l 1263 987 l 1263 882 l 794 882 l 808 566 l 1208 566 l 1208 461 l 812 461 l 827 104 l 1305 104 l 1305 0 m 683 359 l 662 840 l 659 842 l 380 359 "},"Ç":{"ha":880,"x_min":0,"x_max":0,"o":"m 821 312 b 724 79 823 219 791 142 b 458 -14 657 17 568 -14 b 185 104 347 -14 256 25 b 80 406 115 184 80 284 l 80 581 b 185 883 80 703 115 803 b 458 1002 256 962 347 1002 b 725 912 570 1002 659 972 b 821 676 791 853 823 774 l 820 672 l 692 672 b 631 836 692 741 671 796 b 458 897 590 876 533 897 b 280 806 384 897 324 866 b 214 583 236 746 214 672 l 214 406 b 280 180 214 316 236 241 b 458 90 324 120 384 90 b 631 150 533 90 590 110 b 692 316 671 190 692 245 l 820 316 m 503 -41 b 576 -77 533 -46 557 -58 b 606 -159 596 -95 606 -123 b 552 -262 606 -202 588 -237 b 399 -301 516 -288 465 -301 l 394 -227 b 473 -211 427 -227 453 -222 b 503 -161 493 -199 503 -183 b 478 -115 503 -139 494 -124 b 395 -98 462 -107 434 -101 l 416 -6 l 511 -6 "},"È":{"ha":766,"x_min":0,"x_max":0,"o":"m 249 458 l 249 104 l 724 104 l 724 0 l 115 0 l 115 987 l 716 987 l 716 882 l 249 882 l 249 563 l 654 563 l 654 458 m 369 1086 l 199 1262 l 201 1266 l 357 1266 l 476 1086 "},"É":{"ha":766,"x_min":0,"x_max":0,"o":"m 249 458 l 249 104 l 724 104 l 724 0 l 115 0 l 115 987 l 716 987 l 716 882 l 249 882 l 249 563 l 654 563 l 654 458 m 640 1263 l 642 1259 l 459 1083 l 359 1083 l 484 1263 "},"Ê":{"ha":766,"x_min":0,"x_max":0,"o":"m 249 458 l 249 104 l 724 104 l 724 0 l 115 0 l 115 987 l 716 987 l 716 882 l 249 882 l 249 563 l 654 563 l 654 458 m 629 1086 l 519 1086 l 420 1186 l 321 1086 l 212 1086 l 212 1103 l 379 1264 l 460 1264 l 629 1103 "},"Ë":{"ha":766,"x_min":0,"x_max":0,"o":"m 249 458 l 249 104 l 724 104 l 724 0 l 115 0 l 115 987 l 716 987 l 716 882 l 249 882 l 249 563 l 654 563 l 654 458 m 505 1088 l 505 1224 l 654 1224 l 654 1088 m 186 1088 l 186 1224 l 335 1224 l 335 1088 "},"Ì":{"ha":393,"x_min":0,"x_max":0,"o":"m 129 0 l 129 987 l 263 987 l 263 0 m 146 1086 l -24 1262 l -22 1266 l 134 1266 l 253 1086 "},"Í":{"ha":393,"x_min":0,"x_max":0,"o":"m 129 0 l 129 987 l 263 987 l 263 0 m 416 1263 l 418 1259 l 235 1083 l 135 1083 l 260 1263 "},"Î":{"ha":393,"x_min":0,"x_max":0,"o":"m 129 0 l 129 987 l 263 987 l 263 0 m 406 1086 l 296 1086 l 197 1186 l 98 1086 l -11 1086 l -11 1103 l 156 1264 l 237 1264 l 406 1103 "},"Ï":{"ha":393,"x_min":0,"x_max":0,"o":"m 129 0 l 129 987 l 263 987 l 263 0 m 282 1088 l 282 1224 l 431 1224 l 431 1088 m -37 1088 l -37 1224 l 112 1224 l 112 1088 "},"Ð":{"ha":941,"x_min":0,"x_max":0,"o":"m 115 450 l 1 450 l 1 555 l 115 555 l 115 987 l 426 987 b 737 868 555 987 658 948 b 854 561 815 789 854 687 l 854 426 b 737 118 854 300 815 197 b 426 0 658 39 555 0 l 115 0 m 249 450 l 249 104 l 426 104 b 642 195 517 104 589 135 b 721 426 695 255 721 332 l 721 562 b 642 792 721 655 695 732 b 426 882 589 852 517 882 l 249 882 l 249 555 l 436 555 l 436 450 "},"Ñ":{"ha":978,"x_min":0,"x_max":0,"o":"m 728 0 l 253 754 l 249 753 l 249 0 l 115 0 l 115 987 l 249 987 l 724 234 l 728 235 l 728 987 l 862 987 l 862 0 m 723 1251 b 683 1143 723 1208 709 1172 b 581 1099 656 1113 622 1099 b 481 1130 549 1099 516 1109 b 394 1162 446 1151 417 1162 b 345 1140 375 1162 358 1154 b 326 1086 332 1125 326 1107 l 252 1104 b 292 1214 252 1146 266 1183 b 394 1260 319 1245 353 1260 b 489 1228 419 1260 451 1249 b 581 1196 527 1207 558 1196 b 629 1218 600 1196 616 1204 b 650 1272 643 1233 650 1251 l 723 1251 "},"Ò":{"ha":947,"x_min":0,"x_max":0,"o":"m 869 406 b 757 105 869 285 832 185 b 466 -14 682 26 585 -14 b 185 105 351 -14 257 26 b 77 406 113 185 77 285 l 77 581 b 185 882 77 701 113 802 b 466 1002 257 962 351 1002 b 757 882 585 1002 682 962 b 869 581 832 802 869 702 l 869 406 m 736 583 b 663 805 736 673 711 747 b 466 892 614 863 548 892 b 280 805 388 892 326 863 b 210 583 233 747 210 673 l 210 406 b 280 182 210 314 233 240 b 466 95 326 124 388 95 b 663 181 549 95 614 124 b 736 406 712 239 736 314 l 736 583 m 422 1100 l 253 1276 l 255 1280 l 411 1280 l 530 1100 "},"Ó":{"ha":947,"x_min":0,"x_max":0,"o":"m 869 406 b 757 105 869 285 832 185 b 466 -14 682 26 585 -14 b 185 105 351 -14 257 26 b 77 406 113 185 77 285 l 77 581 b 185 882 77 701 113 802 b 466 1002 257 962 351 1002 b 757 882 585 1002 682 962 b 869 581 832 802 869 702 l 869 406 m 736 583 b 663 805 736 673 711 747 b 466 892 614 863 548 892 b 280 805 388 892 326 863 b 210 583 233 747 210 673 l 210 406 b 280 182 210 314 233 240 b 466 95 326 124 388 95 b 663 181 549 95 614 124 b 736 406 712 239 736 314 l 736 583 m 694 1278 l 695 1274 l 513 1097 l 412 1097 l 538 1278 "},"Ô":{"ha":947,"x_min":0,"x_max":0,"o":"m 869 406 b 757 105 869 285 832 185 b 466 -14 682 26 585 -14 b 185 105 351 -14 257 26 b 77 406 113 185 77 285 l 77 581 b 185 882 77 701 113 802 b 466 1002 257 962 351 1002 b 757 882 585 1002 682 962 b 869 581 832 802 869 702 l 869 406 m 736 583 b 663 805 736 673 711 747 b 466 892 614 863 548 892 b 280 805 388 892 326 863 b 210 583 233 747 210 673 l 210 406 b 280 182 210 314 233 240 b 466 95 326 124 388 95 b 663 181 549 95 614 124 b 736 406 712 239 736 314 l 736 583 m 682 1100 l 573 1100 l 473 1200 l 374 1100 l 266 1100 l 266 1118 l 433 1278 l 514 1278 l 682 1117 "},"Õ":{"ha":947,"x_min":0,"x_max":0,"o":"m 869 406 b 757 105 869 285 832 185 b 466 -14 682 26 585 -14 b 185 105 351 -14 257 26 b 77 406 113 185 77 285 l 77 581 b 185 882 77 701 113 802 b 466 1002 257 962 351 1002 b 757 882 585 1002 682 962 b 869 581 832 802 869 702 l 869 406 m 736 583 b 663 805 736 673 711 747 b 466 892 614 863 548 892 b 280 805 388 892 326 863 b 210 583 233 747 210 673 l 210 406 b 280 182 210 314 233 240 b 466 95 326 124 388 95 b 663 181 549 95 614 124 b 736 406 712 239 736 314 l 736 583 m 709 1265 b 668 1157 709 1222 695 1186 b 567 1113 641 1128 608 1113 b 467 1144 535 1113 501 1123 b 380 1176 432 1165 403 1176 b 331 1154 360 1176 344 1169 b 311 1101 318 1139 311 1121 l 238 1118 b 278 1228 238 1160 251 1197 b 380 1274 305 1259 339 1274 b 475 1242 405 1274 437 1264 b 567 1211 513 1221 543 1211 b 615 1233 585 1211 602 1218 b 635 1286 629 1247 635 1265 l 709 1265 "},"Ö":{"ha":947,"x_min":0,"x_max":0,"o":"m 869 406 b 757 105 869 285 832 185 b 466 -14 682 26 585 -14 b 185 105 351 -14 257 26 b 77 406 113 185 77 285 l 77 581 b 185 882 77 701 113 802 b 466 1002 257 962 351 1002 b 757 882 585 1002 682 962 b 869 581 832 802 869 702 l 869 406 m 736 583 b 663 805 736 673 711 747 b 466 892 614 863 548 892 b 280 805 388 892 326 863 b 210 583 233 747 210 673 l 210 406 b 280 182 210 314 233 240 b 466 95 326 124 388 95 b 663 181 549 95 614 124 b 736 406 712 239 736 314 l 736 583 m 559 1103 l 559 1238 l 707 1238 l 707 1103 m 240 1103 l 240 1238 l 389 1238 l 389 1103 "},"×":{"ha":743,"x_min":0,"x_max":0,"o":"m 281 465 l 60 691 l 145 777 l 366 551 l 588 777 l 673 691 l 451 465 l 673 238 l 588 153 l 366 378 l 145 153 l 60 238 "},"Ø":{"ha":947,"x_min":0,"x_max":0,"o":"m 869 406 b 757 105 869 285 832 185 b 466 -14 682 26 585 -14 b 357 0 427 -14 391 -10 b 262 41 323 9 291 23 l 201 -64 l 100 -64 l 194 95 b 107 232 156 133 127 179 b 77 406 87 285 77 343 l 77 581 b 185 882 77 701 113 802 b 466 1002 257 962 351 1002 b 587 984 508 1002 549 996 b 693 936 625 973 661 957 l 748 1029 l 849 1029 l 760 879 b 841 745 794 841 821 796 b 869 581 860 694 869 640 l 869 406 m 210 406 b 223 298 210 367 215 331 b 260 214 232 265 244 237 l 264 213 l 633 834 b 557 877 610 853 585 867 b 466 892 529 887 498 892 b 280 805 388 892 326 863 b 210 583 233 747 210 673 l 210 406 m 736 583 b 725 679 736 616 732 649 b 693 758 717 709 707 736 l 689 759 l 322 141 b 388 106 342 126 364 114 b 466 95 412 99 438 95 b 663 181 549 95 614 124 b 736 406 712 239 736 314 l 736 583 "},"Ù":{"ha":940,"x_min":0,"x_max":0,"o":"m 844 332 b 738 77 844 223 808 138 b 465 -14 667 16 576 -14 b 202 78 358 -14 270 16 b 100 332 134 139 100 224 l 100 987 l 233 987 l 233 332 b 298 154 233 256 255 197 b 465 90 341 112 397 90 b 642 154 538 90 596 112 b 710 332 687 197 710 256 l 710 987 l 844 987 m 422 1086 l 252 1262 l 254 1266 l 410 1266 l 529 1086 "},"Ú":{"ha":940,"x_min":0,"x_max":0,"o":"m 844 332 b 738 77 844 223 808 138 b 465 -14 667 16 576 -14 b 202 78 358 -14 270 16 b 100 332 134 139 100 224 l 100 987 l 233 987 l 233 332 b 298 154 233 256 255 197 b 465 90 341 112 397 90 b 642 154 538 90 596 112 b 710 332 687 197 710 256 l 710 987 l 844 987 m 693 1263 l 694 1259 l 512 1083 l 412 1083 l 537 1263 "},"Û":{"ha":940,"x_min":0,"x_max":0,"o":"m 844 332 b 738 77 844 223 808 138 b 465 -14 667 16 576 -14 b 202 78 358 -14 270 16 b 100 332 134 139 100 224 l 100 987 l 233 987 l 233 332 b 298 154 233 256 255 197 b 465 90 341 112 397 90 b 642 154 538 90 596 112 b 710 332 687 197 710 256 l 710 987 l 844 987 m 682 1086 l 572 1086 l 473 1186 l 374 1086 l 265 1086 l 265 1103 l 432 1264 l 513 1264 l 682 1103 "},"Ü":{"ha":940,"x_min":0,"x_max":0,"o":"m 844 332 b 738 77 844 223 808 138 b 465 -14 667 16 576 -14 b 202 78 358 -14 270 16 b 100 332 134 139 100 224 l 100 987 l 233 987 l 233 332 b 298 154 233 256 255 197 b 465 90 341 112 397 90 b 642 154 538 90 596 112 b 710 332 687 197 710 256 l 710 987 l 844 987 m 558 1088 l 558 1224 l 707 1224 l 707 1088 m 239 1088 l 239 1224 l 388 1224 l 388 1088 "},"Ý":{"ha":878,"x_min":0,"x_max":0,"o":"m 695 987 l 848 987 l 501 347 l 501 0 l 368 0 l 368 357 l 27 987 l 180 987 l 437 486 m 659 1263 l 660 1259 l 477 1082 l 377 1082 l 503 1263 "},"Þ":{"ha":820,"x_min":0,"x_max":0,"o":"m 244 789 l 427 789 b 672 709 531 789 613 762 b 760 500 731 655 760 586 b 672 292 760 415 731 345 b 427 212 613 239 531 212 l 244 212 l 244 0 l 111 0 l 111 987 l 244 987 m 244 317 l 427 317 b 576 370 493 317 543 334 b 626 499 609 405 626 448 b 576 630 626 551 609 594 b 427 684 543 666 493 684 l 244 684 "},"ß":{"ha":828,"x_min":0,"x_max":0,"o":"m 93 0 l 93 734 b 173 970 93 835 119 913 b 376 1055 226 1026 294 1055 b 554 996 449 1055 508 1035 b 623 825 600 957 623 900 b 579 670 623 771 608 720 b 535 557 550 620 535 583 b 653 405 535 520 574 469 b 770 214 731 341 770 277 b 700 43 770 139 747 82 b 508 -14 652 5 588 -14 b 391 0 470 -14 431 -10 b 306 34 351 9 323 20 l 336 142 b 409 106 355 129 380 117 b 494 90 438 96 467 90 b 602 122 543 90 579 101 b 637 208 625 144 637 172 b 519 362 637 245 598 297 b 401 558 441 427 401 492 b 449 687 401 594 417 637 b 497 814 481 737 497 779 b 463 913 497 856 486 889 b 383 950 439 938 413 950 b 269 893 336 950 298 931 b 226 734 240 856 226 802 l 226 0 "},"à":{"ha":764,"x_min":0,"x_max":0,"o":"m 548 0 b 537 59 543 22 540 42 b 533 110 535 76 533 93 b 436 21 508 75 476 45 b 307 -14 396 -2 353 -14 b 132 44 230 -14 172 5 b 72 206 92 84 72 137 b 157 371 72 276 100 331 b 388 430 214 410 291 430 l 533 430 l 533 503 b 494 605 533 545 520 579 b 382 642 467 630 430 642 b 277 610 339 642 304 631 b 237 532 251 588 237 562 l 111 530 l 109 534 b 184 681 106 588 131 637 b 390 747 237 725 306 747 b 591 684 473 747 540 726 b 667 501 641 642 667 581 l 667 148 b 671 72 667 122 668 96 b 686 0 673 47 678 24 l 548 0 m 326 98 b 457 135 375 98 418 110 b 533 220 496 160 521 188 l 533 340 l 383 340 b 254 299 329 340 286 326 b 205 203 222 272 205 240 b 236 126 205 171 216 145 b 326 98 256 107 286 98 m 326 867 l 156 1044 l 158 1048 l 314 1048 l 433 867 "},"á":{"ha":764,"x_min":0,"x_max":0,"o":"m 548 0 b 537 59 543 22 540 42 b 533 110 535 76 533 93 b 436 21 508 75 476 45 b 307 -14 396 -2 353 -14 b 132 44 230 -14 172 5 b 72 206 92 84 72 137 b 157 371 72 276 100 331 b 388 430 214 410 291 430 l 533 430 l 533 503 b 494 605 533 545 520 579 b 382 642 467 630 430 642 b 277 610 339 642 304 631 b 237 532 251 588 237 562 l 111 530 l 109 534 b 184 681 106 588 131 637 b 390 747 237 725 306 747 b 591 684 473 747 540 726 b 667 501 641 642 667 581 l 667 148 b 671 72 667 122 668 96 b 686 0 673 47 678 24 l 548 0 m 326 98 b 457 135 375 98 418 110 b 533 220 496 160 521 188 l 533 340 l 383 340 b 254 299 329 340 286 326 b 205 203 222 272 205 240 b 236 126 205 171 216 145 b 326 98 256 107 286 98 m 597 1045 l 598 1041 l 416 865 l 315 865 l 441 1045 "},"â":{"ha":764,"x_min":0,"x_max":0,"o":"m 548 0 b 537 59 543 22 540 42 b 533 110 535 76 533 93 b 436 21 508 75 476 45 b 307 -14 396 -2 353 -14 b 132 44 230 -14 172 5 b 72 206 92 84 72 137 b 157 371 72 276 100 331 b 388 430 214 410 291 430 l 533 430 l 533 503 b 494 605 533 545 520 579 b 382 642 467 630 430 642 b 277 610 339 642 304 631 b 237 532 251 588 237 562 l 111 530 l 109 534 b 184 681 106 588 131 637 b 390 747 237 725 306 747 b 591 684 473 747 540 726 b 667 501 641 642 667 581 l 667 148 b 671 72 667 122 668 96 b 686 0 673 47 678 24 l 548 0 m 326 98 b 457 135 375 98 418 110 b 533 220 496 160 521 188 l 533 340 l 383 340 b 254 299 329 340 286 326 b 205 203 222 272 205 240 b 236 126 205 171 216 145 b 326 98 256 107 286 98 m 585 867 l 476 867 l 376 968 l 277 867 l 169 867 l 169 885 l 336 1046 l 417 1046 l 585 884 "},"ã":{"ha":764,"x_min":0,"x_max":0,"o":"m 548 0 b 537 59 543 22 540 42 b 533 110 535 76 533 93 b 436 21 508 75 476 45 b 307 -14 396 -2 353 -14 b 132 44 230 -14 172 5 b 72 206 92 84 72 137 b 157 371 72 276 100 331 b 388 430 214 410 291 430 l 533 430 l 533 503 b 494 605 533 545 520 579 b 382 642 467 630 430 642 b 277 610 339 642 304 631 b 237 532 251 588 237 562 l 111 530 l 109 534 b 184 681 106 588 131 637 b 390 747 237 725 306 747 b 591 684 473 747 540 726 b 667 501 641 642 667 581 l 667 148 b 671 72 667 122 668 96 b 686 0 673 47 678 24 l 548 0 m 326 98 b 457 135 375 98 418 110 b 533 220 496 160 521 188 l 533 340 l 383 340 b 254 299 329 340 286 326 b 205 203 222 272 205 240 b 236 126 205 171 216 145 b 326 98 256 107 286 98 m 612 1032 b 571 924 612 990 598 954 b 470 880 544 895 511 880 b 370 912 438 880 404 891 b 283 943 335 933 306 943 b 234 921 263 943 247 936 b 214 868 221 907 214 889 l 141 886 b 181 995 141 928 154 964 b 283 1042 208 1026 242 1042 b 378 1010 308 1042 340 1031 b 470 978 416 989 446 978 b 518 1000 489 978 505 985 b 538 1054 532 1015 538 1033 l 612 1032 "},"ä":{"ha":764,"x_min":0,"x_max":0,"o":"m 548 0 b 537 59 543 22 540 42 b 533 110 535 76 533 93 b 436 21 508 75 476 45 b 307 -14 396 -2 353 -14 b 132 44 230 -14 172 5 b 72 206 92 84 72 137 b 157 371 72 276 100 331 b 388 430 214 410 291 430 l 533 430 l 533 503 b 494 605 533 545 520 579 b 382 642 467 630 430 642 b 277 610 339 642 304 631 b 237 532 251 588 237 562 l 111 530 l 109 534 b 184 681 106 588 131 637 b 390 747 237 725 306 747 b 591 684 473 747 540 726 b 667 501 641 642 667 581 l 667 148 b 671 72 667 122 668 96 b 686 0 673 47 678 24 l 548 0 m 326 98 b 457 135 375 98 418 110 b 533 220 496 160 521 188 l 533 340 l 383 340 b 254 299 329 340 286 326 b 205 203 222 272 205 240 b 236 126 205 171 216 145 b 326 98 256 107 286 98 m 462 870 l 462 1006 l 610 1006 l 610 870 m 143 870 l 143 1006 l 292 1006 l 292 870 "},"å":{"ha":764,"x_min":0,"x_max":0,"o":"m 548 0 b 537 59 543 22 540 42 b 533 110 535 76 533 93 b 436 21 508 75 476 45 b 307 -14 396 -2 353 -14 b 132 44 230 -14 172 5 b 72 206 92 84 72 137 b 157 371 72 276 100 331 b 388 430 214 410 291 430 l 533 430 l 533 503 b 494 605 533 545 520 579 b 382 642 467 630 430 642 b 277 610 339 642 304 631 b 237 532 251 588 237 562 l 111 530 l 109 534 b 184 681 106 588 131 637 b 390 747 237 725 306 747 b 591 684 473 747 540 726 b 667 501 641 642 667 581 l 667 148 b 671 72 667 122 668 96 b 686 0 673 47 678 24 l 548 0 m 326 98 b 457 135 375 98 418 110 b 533 220 496 160 521 188 l 533 340 l 383 340 b 254 299 329 340 286 326 b 205 203 222 272 205 240 b 236 126 205 171 216 145 b 326 98 256 107 286 98 m 256 958 b 291 1039 256 990 268 1017 b 376 1072 315 1061 343 1072 b 459 1039 408 1072 436 1061 b 493 958 482 1017 493 990 b 459 877 493 925 482 898 b 376 846 436 857 408 846 b 291 878 342 846 314 857 b 256 958 268 898 256 925 m 324 958 b 339 922 324 944 329 932 b 376 907 350 912 362 907 b 411 922 389 907 401 912 b 425 958 420 931 425 943 b 411 995 425 972 420 984 b 376 1010 401 1005 389 1010 b 339 995 361 1010 349 1005 b 324 958 329 984 324 972 "},"æ":{"ha":1213,"x_min":0,"x_max":0,"o":"m 876 -14 b 713 19 815 -14 760 -3 b 598 113 666 41 628 72 b 485 22 573 77 535 47 b 300 -14 434 -2 373 -14 b 122 45 224 -14 164 5 b 60 206 81 84 60 138 b 138 371 60 277 86 332 b 365 429 190 410 265 429 l 520 429 l 520 488 b 485 601 520 536 508 574 b 384 642 461 629 428 642 b 273 605 337 642 300 630 b 231 515 245 580 231 550 l 104 527 l 102 531 b 177 686 100 593 125 645 b 384 747 229 727 298 747 b 520 720 435 747 481 738 b 614 640 560 702 591 675 b 716 719 643 674 677 700 b 844 747 756 738 799 747 b 1068 659 941 747 1016 718 b 1146 416 1120 600 1146 519 l 1146 336 l 665 336 l 664 332 b 718 157 664 260 682 202 b 876 90 753 113 806 90 b 991 109 923 90 961 96 b 1089 162 1021 121 1054 139 l 1135 68 b 1035 12 1111 49 1077 30 b 876 -14 992 -5 939 -14 m 327 90 b 435 120 361 90 397 100 b 520 188 472 139 501 162 l 520 333 l 366 333 b 239 295 312 333 270 320 b 193 203 209 270 193 240 b 227 122 193 170 205 143 b 327 90 250 101 283 90 m 844 642 b 721 585 793 642 752 623 b 667 437 690 547 672 498 l 668 434 l 1013 434 l 1013 455 b 972 590 1013 510 999 555 b 844 642 945 625 902 642 "},"ç":{"ha":727,"x_min":0,"x_max":0,"o":"m 389 90 b 496 131 430 90 466 104 b 543 232 527 159 543 192 l 663 232 l 665 228 b 584 59 667 165 640 108 b 389 -14 528 10 463 -14 b 150 91 286 -14 206 21 b 66 353 94 161 66 248 l 66 381 b 150 642 66 485 94 572 b 389 747 207 712 286 747 b 590 671 470 747 537 722 b 665 485 642 621 667 559 l 664 481 l 543 481 b 499 595 543 526 528 564 b 389 642 470 627 433 642 b 245 566 323 642 275 617 b 200 381 215 515 200 453 l 200 353 b 244 166 200 279 215 217 b 389 90 274 116 322 90 m 414 -41 b 488 -77 444 -46 468 -58 b 517 -159 507 -95 517 -123 b 463 -262 517 -202 499 -237 b 310 -301 427 -288 376 -301 l 305 -227 b 384 -211 338 -227 364 -222 b 414 -161 404 -199 414 -183 b 389 -115 414 -139 406 -124 b 306 -98 373 -107 345 -101 l 328 -6 l 422 -6 "},"è":{"ha":727,"x_min":0,"x_max":0,"o":"m 401 -14 b 154 87 295 -14 213 19 b 66 353 95 154 66 243 l 66 382 b 157 644 66 488 96 575 b 380 747 218 713 292 747 b 601 656 478 747 551 717 b 674 412 650 595 674 514 l 674 342 l 205 342 l 203 338 b 252 159 203 265 219 205 b 401 90 284 113 334 90 b 520 110 446 90 486 97 b 608 163 554 122 583 140 l 660 76 b 556 12 634 51 599 29 b 401 -14 513 -6 461 -14 m 380 642 b 264 588 333 642 295 624 b 208 450 234 552 215 506 l 210 447 l 541 447 l 541 458 b 501 590 541 511 527 555 b 380 642 475 625 434 642 m 315 868 l 145 1044 l 147 1048 l 303 1048 l 422 868 "},"é":{"ha":727,"x_min":0,"x_max":0,"o":"m 401 -14 b 154 87 295 -14 213 19 b 66 353 95 154 66 243 l 66 382 b 157 644 66 488 96 575 b 380 747 218 713 292 747 b 601 656 478 747 551 717 b 674 412 650 595 674 514 l 674 342 l 205 342 l 203 338 b 252 159 203 265 219 205 b 401 90 284 113 334 90 b 520 110 446 90 486 97 b 608 163 554 122 583 140 l 660 76 b 556 12 634 51 599 29 b 401 -14 513 -6 461 -14 m 380 642 b 264 588 333 642 295 624 b 208 450 234 552 215 506 l 210 447 l 541 447 l 541 458 b 501 590 541 511 527 555 b 380 642 475 625 434 642 m 586 1046 l 587 1042 l 405 865 l 304 865 l 430 1046 "},"ê":{"ha":727,"x_min":0,"x_max":0,"o":"m 401 -14 b 154 87 295 -14 213 19 b 66 353 95 154 66 243 l 66 382 b 157 644 66 488 96 575 b 380 747 218 713 292 747 b 601 656 478 747 551 717 b 674 412 650 595 674 514 l 674 342 l 205 342 l 203 338 b 252 159 203 265 219 205 b 401 90 284 113 334 90 b 520 110 446 90 486 97 b 608 163 554 122 583 140 l 660 76 b 556 12 634 51 599 29 b 401 -14 513 -6 461 -14 m 380 642 b 264 588 333 642 295 624 b 208 450 234 552 215 506 l 210 447 l 541 447 l 541 458 b 501 590 541 511 527 555 b 380 642 475 625 434 642 m 574 868 l 465 868 l 366 968 l 267 868 l 158 868 l 158 886 l 325 1046 l 406 1046 l 574 885 "},"ë":{"ha":727,"x_min":0,"x_max":0,"o":"m 401 -14 b 154 87 295 -14 213 19 b 66 353 95 154 66 243 l 66 382 b 157 644 66 488 96 575 b 380 747 218 713 292 747 b 601 656 478 747 551 717 b 674 412 650 595 674 514 l 674 342 l 205 342 l 203 338 b 252 159 203 265 219 205 b 401 90 284 113 334 90 b 520 110 446 90 486 97 b 608 163 554 122 583 140 l 660 76 b 556 12 634 51 599 29 b 401 -14 513 -6 461 -14 m 380 642 b 264 588 333 642 295 624 b 208 450 234 552 215 506 l 210 447 l 541 447 l 541 458 b 501 590 541 511 527 555 b 380 642 475 625 434 642 m 451 871 l 451 1006 l 600 1006 l 600 871 m 132 871 l 132 1006 l 281 1006 l 281 871 "},"ì":{"ha":349,"x_min":0,"x_max":0,"o":"m 104 0 l 104 734 l 237 734 l 237 0 m 121 853 l -49 1029 l -47 1034 l 109 1034 l 228 853 "},"í":{"ha":349,"x_min":0,"x_max":0,"o":"m 104 0 l 104 734 l 237 734 l 237 0 m 391 1031 l 393 1027 l 210 850 l 110 850 l 235 1031 "},"î":{"ha":349,"x_min":0,"x_max":0,"o":"m 104 0 l 104 734 l 237 734 l 237 0 m 380 853 l 271 853 l 172 954 l 73 853 l -36 853 l -36 871 l 131 1031 l 212 1031 l 380 870 "},"ï":{"ha":349,"x_min":0,"x_max":0,"o":"m 104 0 l 104 734 l 237 734 l 237 0 m 257 856 l 257 991 l 406 991 l 406 856 m -62 856 l -62 991 l 87 991 l 87 856 "},"ð":{"ha":815,"x_min":0,"x_max":0,"o":"m 592 880 b 692 716 635 833 668 778 b 727 512 715 654 727 586 l 727 363 b 629 91 727 252 694 162 b 386 -14 564 21 483 -14 b 143 81 287 -14 207 17 b 49 316 80 144 49 222 b 142 567 49 419 80 503 b 380 663 205 631 284 663 b 495 638 421 663 459 655 b 585 572 531 621 561 600 l 587 576 b 552 709 583 625 572 670 b 477 814 533 749 508 784 l 281 702 l 229 771 l 402 870 b 348 897 385 880 366 889 b 290 918 329 904 309 911 l 330 1029 b 433 994 366 1020 400 1008 b 524 940 465 979 496 961 l 672 1025 l 724 956 l 592 880 m 389 90 b 536 168 449 90 498 116 b 593 363 574 219 593 284 l 593 463 b 515 531 578 490 551 512 b 380 558 479 549 434 558 b 237 488 321 558 273 535 b 182 316 201 441 182 383 b 238 158 182 256 201 204 b 389 90 275 113 325 90 "},"ñ":{"ha":789,"x_min":0,"x_max":0,"o":"m 226 625 b 318 715 250 663 281 694 b 444 747 355 737 397 747 b 627 678 523 747 584 724 b 692 463 671 631 692 560 l 692 0 l 559 0 l 559 460 b 520 598 559 525 546 571 b 404 639 495 625 456 639 b 299 614 362 639 327 631 b 231 545 270 598 247 574 l 231 0 l 97 0 l 97 734 l 216 734 m 627 1032 b 587 924 627 990 614 954 b 486 880 560 895 526 880 b 385 912 453 880 420 891 b 298 943 350 933 321 943 b 250 921 279 943 263 936 b 230 868 236 907 230 889 l 157 886 b 197 995 157 928 170 964 b 298 1042 223 1026 257 1042 b 393 1010 324 1042 355 1031 b 486 978 431 989 462 978 b 534 1000 504 978 520 985 b 554 1054 547 1015 554 1033 l 627 1032 "},"ò":{"ha":789,"x_min":0,"x_max":0,"o":"m 66 374 b 154 642 66 482 95 572 b 393 747 213 712 293 747 b 634 642 495 747 575 712 b 723 374 693 572 723 483 l 723 359 b 635 90 723 249 694 160 b 395 -14 576 21 496 -14 b 154 91 293 -14 213 21 b 66 359 95 160 66 250 l 66 374 m 199 359 b 249 166 199 281 216 217 b 395 90 281 116 330 90 b 540 166 458 90 507 116 b 589 359 573 217 589 281 l 589 374 b 539 566 589 451 573 515 b 393 642 506 617 458 642 b 249 566 330 642 281 617 b 199 374 216 515 199 451 l 199 359 m 344 867 l 174 1044 l 176 1048 l 332 1048 l 451 867 "},"ó":{"ha":789,"x_min":0,"x_max":0,"o":"m 66 374 b 154 642 66 482 95 572 b 393 747 213 712 293 747 b 634 642 495 747 575 712 b 723 374 693 572 723 483 l 723 359 b 635 90 723 249 694 160 b 395 -14 576 21 496 -14 b 154 91 293 -14 213 21 b 66 359 95 160 66 250 l 66 374 m 199 359 b 249 166 199 281 216 217 b 395 90 281 116 330 90 b 540 166 458 90 507 116 b 589 359 573 217 589 281 l 589 374 b 539 566 589 451 573 515 b 393 642 506 617 458 642 b 249 566 330 642 281 617 b 199 374 216 515 199 451 l 199 359 m 615 1045 l 616 1041 l 434 865 l 334 865 l 459 1045 "},"ô":{"ha":789,"x_min":0,"x_max":0,"o":"m 66 374 b 154 642 66 482 95 572 b 393 747 213 712 293 747 b 634 642 495 747 575 712 b 723 374 693 572 723 483 l 723 359 b 635 90 723 249 694 160 b 395 -14 576 21 496 -14 b 154 91 293 -14 213 21 b 66 359 95 160 66 250 l 66 374 m 199 359 b 249 166 199 281 216 217 b 395 90 281 116 330 90 b 540 166 458 90 507 116 b 589 359 573 217 589 281 l 589 374 b 539 566 589 451 573 515 b 393 642 506 617 458 642 b 249 566 330 642 281 617 b 199 374 216 515 199 451 l 199 359 m 604 867 l 494 867 l 395 968 l 296 867 l 187 867 l 187 885 l 354 1046 l 435 1046 l 604 884 "},"õ":{"ha":789,"x_min":0,"x_max":0,"o":"m 66 374 b 154 642 66 482 95 572 b 393 747 213 712 293 747 b 634 642 495 747 575 712 b 723 374 693 572 723 483 l 723 359 b 635 90 723 249 694 160 b 395 -14 576 21 496 -14 b 154 91 293 -14 213 21 b 66 359 95 160 66 250 l 66 374 m 199 359 b 249 166 199 281 216 217 b 395 90 281 116 330 90 b 540 166 458 90 507 116 b 589 359 573 217 589 281 l 589 374 b 539 566 589 451 573 515 b 393 642 506 617 458 642 b 249 566 330 642 281 617 b 199 374 216 515 199 451 l 199 359 m 630 1032 b 590 924 630 990 617 954 b 488 880 563 895 529 880 b 388 912 456 880 423 891 b 301 943 353 933 324 943 b 252 921 282 943 265 936 b 233 868 239 907 233 889 l 159 886 b 199 995 159 928 173 964 b 301 1042 226 1026 260 1042 b 396 1010 326 1042 358 1031 b 488 978 434 989 465 978 b 536 1000 507 978 523 985 b 557 1054 550 1015 557 1033 l 630 1032 "},"ö":{"ha":789,"x_min":0,"x_max":0,"o":"m 66 374 b 154 642 66 482 95 572 b 393 747 213 712 293 747 b 634 642 495 747 575 712 b 723 374 693 572 723 483 l 723 359 b 635 90 723 249 694 160 b 395 -14 576 21 496 -14 b 154 91 293 -14 213 21 b 66 359 95 160 66 250 l 66 374 m 199 359 b 249 166 199 281 216 217 b 395 90 281 116 330 90 b 540 166 458 90 507 116 b 589 359 573 217 589 281 l 589 374 b 539 566 589 451 573 515 b 393 642 506 617 458 642 b 249 566 330 642 281 617 b 199 374 216 515 199 451 l 199 359 m 480 870 l 480 1006 l 629 1006 l 629 870 m 161 870 l 161 1006 l 310 1006 l 310 870 "},"÷":{"ha":793,"x_min":0,"x_max":0,"o":"m 48 405 l 48 532 l 725 532 l 725 405 m 320 677 l 320 815 l 454 815 l 454 677 m 320 122 l 320 260 l 454 260 l 454 122 "},"ø":{"ha":789,"x_min":0,"x_max":0,"o":"m 66 374 b 154 642 66 482 95 572 b 393 747 213 712 293 747 b 466 740 419 747 443 745 b 532 719 490 735 512 728 l 583 820 l 670 820 l 600 677 b 691 548 639 643 670 600 b 723 374 712 496 723 437 l 723 359 b 635 90 723 249 694 160 b 395 -14 576 21 496 -14 b 329 -8 372 -14 350 -12 b 269 8 308 -5 288 1 l 220 -92 l 133 -92 l 201 47 b 101 176 157 79 124 122 b 66 359 77 231 66 291 l 66 374 m 199 359 b 213 246 199 318 204 280 b 254 162 222 212 236 184 l 258 162 l 484 619 b 441 636 470 626 456 632 b 393 642 426 640 410 642 b 249 566 330 642 281 617 b 199 374 216 515 199 451 l 199 359 m 589 374 b 577 476 589 410 585 444 b 544 555 570 508 558 534 l 540 555 l 318 106 b 353 94 329 100 341 96 b 395 90 366 91 380 90 b 540 166 458 90 507 116 b 589 359 573 217 589 281 l 589 374 "},"ù":{"ha":789,"x_min":0,"x_max":0,"o":"m 563 109 b 474 18 540 69 510 39 b 349 -14 438 -4 396 -14 b 161 62 269 -14 206 11 b 94 301 117 113 94 193 l 94 734 l 228 734 l 228 300 b 262 138 228 222 239 168 b 370 94 286 109 321 94 b 488 123 418 94 457 104 b 558 205 519 142 542 170 l 558 734 l 692 734 l 692 0 l 572 0 l 563 109 m 342 853 l 173 1029 l 175 1034 l 331 1034 l 450 853 "},"ú":{"ha":789,"x_min":0,"x_max":0,"o":"m 563 109 b 474 18 540 69 510 39 b 349 -14 438 -4 396 -14 b 161 62 269 -14 206 11 b 94 301 117 113 94 193 l 94 734 l 228 734 l 228 300 b 262 138 228 222 239 168 b 370 94 286 109 321 94 b 488 123 418 94 457 104 b 558 205 519 142 542 170 l 558 734 l 692 734 l 692 0 l 572 0 l 563 109 m 614 1031 l 615 1027 l 433 850 l 332 850 l 458 1031 "},"û":{"ha":789,"x_min":0,"x_max":0,"o":"m 563 109 b 474 18 540 69 510 39 b 349 -14 438 -4 396 -14 b 161 62 269 -14 206 11 b 94 301 117 113 94 193 l 94 734 l 228 734 l 228 300 b 262 138 228 222 239 168 b 370 94 286 109 321 94 b 488 123 418 94 457 104 b 558 205 519 142 542 170 l 558 734 l 692 734 l 692 0 l 572 0 l 563 109 m 602 853 l 493 853 l 393 954 l 294 853 l 186 853 l 186 871 l 353 1031 l 434 1031 l 602 870 "},"ü":{"ha":789,"x_min":0,"x_max":0,"o":"m 563 109 b 474 18 540 69 510 39 b 349 -14 438 -4 396 -14 b 161 62 269 -14 206 11 b 94 301 117 113 94 193 l 94 734 l 228 734 l 228 300 b 262 138 228 222 239 168 b 370 94 286 109 321 94 b 488 123 418 94 457 104 b 558 205 519 142 542 170 l 558 734 l 692 734 l 692 0 l 572 0 l 563 109 m 479 856 l 479 991 l 627 991 l 627 856 m 160 856 l 160 991 l 309 991 l 309 856 "},"ý":{"ha":699,"x_min":0,"x_max":0,"o":"m 345 180 l 349 180 l 530 734 l 678 734 l 370 -113 b 290 -241 351 -162 325 -205 b 150 -296 255 -278 209 -296 b 109 -293 139 -296 125 -295 b 70 -286 92 -290 79 -288 l 83 -180 b 107 -182 81 -180 89 -180 b 143 -184 126 -183 138 -184 b 213 -146 172 -184 195 -171 b 258 -62 231 -120 246 -92 l 290 15 l 18 734 l 167 734 l 321 272 m 569 1031 l 570 1027 l 388 850 l 288 850 l 413 1031 "},"þ":{"ha":804,"x_min":0,"x_max":0,"o":"m 729 339 b 653 83 729 233 704 148 b 444 -14 602 18 533 -14 b 325 8 398 -14 359 -7 b 237 77 290 24 261 46 l 237 -282 l 104 -282 l 104 1058 l 237 1058 l 237 652 b 324 723 261 683 290 707 b 441 747 358 739 397 747 b 653 639 532 747 603 711 b 729 353 704 567 729 472 l 729 339 m 595 353 b 546 558 595 437 579 505 b 401 639 513 612 465 639 b 303 613 363 639 330 630 b 237 541 276 595 254 571 l 237 186 b 303 116 254 156 276 133 b 403 90 330 99 363 90 b 547 160 466 90 514 113 b 595 339 579 206 595 266 l 595 353 "},"ÿ":{"ha":699,"x_min":0,"x_max":0,"o":"m 345 180 l 349 180 l 530 734 l 678 734 l 370 -113 b 290 -241 351 -162 325 -205 b 150 -296 255 -278 209 -296 b 109 -293 139 -296 125 -295 b 70 -286 92 -290 79 -288 l 83 -180 b 107 -182 81 -180 89 -180 b 143 -184 126 -183 138 -184 b 213 -146 172 -184 195 -171 b 258 -62 231 -120 246 -92 l 290 15 l 18 734 l 167 734 l 321 272 m 434 856 l 434 991 l 583 991 l 583 856 m 115 856 l 115 991 l 264 991 l 264 856 "},"Ā":{"ha":878,"x_min":0,"x_max":0,"o":"m 254 254 l 165 0 l 29 0 l 385 987 l 500 987 l 848 0 l 712 0 l 625 254 m 587 366 l 444 790 l 439 790 l 292 366 m 199 1112 l 199 1211 l 688 1211 l 688 1112 "},"ā":{"ha":764,"x_min":0,"x_max":0,"o":"m 548 0 b 537 59 543 22 540 42 b 533 110 535 76 533 93 b 436 21 508 75 476 45 b 307 -14 396 -2 353 -14 b 132 44 230 -14 172 5 b 72 206 92 84 72 137 b 157 371 72 276 100 331 b 388 430 214 410 291 430 l 533 430 l 533 503 b 494 605 533 545 520 579 b 382 642 467 630 430 642 b 277 610 339 642 304 631 b 237 532 251 588 237 562 l 111 530 l 109 534 b 184 681 106 588 131 637 b 390 747 237 725 306 747 b 591 684 473 747 540 726 b 667 501 641 642 667 581 l 667 148 b 671 72 667 122 668 96 b 686 0 673 47 678 24 l 548 0 m 326 98 b 457 135 375 98 418 110 b 533 220 496 160 521 188 l 533 340 l 383 340 b 254 299 329 340 286 326 b 205 203 222 272 205 240 b 236 126 205 171 216 145 b 326 98 256 107 286 98 m 136 894 l 136 993 l 625 993 l 625 894 "},"Ă":{"ha":878,"x_min":0,"x_max":0,"o":"m 254 254 l 165 0 l 29 0 l 385 987 l 500 987 l 848 0 l 712 0 l 625 254 m 587 366 l 444 790 l 439 790 l 292 366 m 640 1264 b 588 1136 642 1212 625 1169 b 440 1086 551 1103 502 1086 b 292 1136 378 1086 328 1103 b 240 1264 255 1169 238 1212 l 241 1268 l 344 1268 b 367 1196 344 1238 352 1214 b 440 1168 382 1177 407 1168 b 513 1196 473 1168 497 1177 b 536 1268 529 1215 536 1239 l 639 1268 "},"ă":{"ha":764,"x_min":0,"x_max":0,"o":"m 548 0 b 537 59 543 22 540 42 b 533 110 535 76 533 93 b 436 21 508 75 476 45 b 307 -14 396 -2 353 -14 b 132 44 230 -14 172 5 b 72 206 92 84 72 137 b 157 371 72 276 100 331 b 388 430 214 410 291 430 l 533 430 l 533 503 b 494 605 533 545 520 579 b 382 642 467 630 430 642 b 277 610 339 642 304 631 b 237 532 251 588 237 562 l 111 530 l 109 534 b 184 681 106 588 131 637 b 390 747 237 725 306 747 b 591 684 473 747 540 726 b 667 501 641 642 667 581 l 667 148 b 671 72 667 122 668 96 b 686 0 673 47 678 24 l 548 0 m 326 98 b 457 135 375 98 418 110 b 533 220 496 160 521 188 l 533 340 l 383 340 b 254 299 329 340 286 326 b 205 203 222 272 205 240 b 236 126 205 171 216 145 b 326 98 256 107 286 98 m 577 1046 b 525 918 579 993 562 951 b 377 868 488 885 439 868 b 229 918 315 868 265 885 b 177 1046 192 951 175 993 l 178 1050 l 281 1050 b 304 977 281 1020 288 996 b 377 949 319 959 344 949 b 450 978 410 949 434 959 b 473 1050 465 996 473 1020 l 576 1050 "},"Ą":{"ha":878,"x_min":0,"x_max":0,"o":"m 254 254 l 165 0 l 29 0 l 385 987 l 500 987 l 848 0 l 712 0 l 625 254 m 587 366 l 444 790 l 439 790 l 292 366 m 832 0 b 758 -67 800 -24 776 -46 b 731 -136 740 -89 731 -112 b 746 -181 731 -155 736 -170 b 796 -197 756 -192 773 -197 b 830 -192 808 -197 820 -196 b 863 -180 840 -189 852 -185 l 886 -263 b 832 -284 869 -272 851 -279 b 762 -293 812 -290 789 -293 b 656 -256 719 -293 683 -281 b 615 -151 629 -231 615 -196 b 656 -48 615 -115 629 -81 b 783 39 683 -16 726 13 l 832 0 "},"ą":{"ha":764,"x_min":0,"x_max":0,"o":"m 548 0 b 537 59 543 22 540 42 b 533 110 535 76 533 93 b 436 21 508 75 476 45 b 307 -14 396 -2 353 -14 b 132 44 230 -14 172 5 b 72 206 92 84 72 137 b 157 371 72 276 100 331 b 388 430 214 410 291 430 l 533 430 l 533 503 b 494 605 533 545 520 579 b 382 642 467 630 430 642 b 277 610 339 642 304 631 b 237 532 251 588 237 562 l 111 530 l 109 534 b 184 681 106 588 131 637 b 390 747 237 725 306 747 b 591 684 473 747 540 726 b 667 501 641 642 667 581 l 667 148 b 671 72 667 122 668 96 b 686 0 673 47 678 24 l 548 0 m 326 98 b 457 135 375 98 418 110 b 533 220 496 160 521 188 l 533 340 l 383 340 b 254 299 329 340 286 326 b 205 203 222 272 205 240 b 236 126 205 171 216 145 b 326 98 256 107 286 98 m 669 0 b 595 -67 638 -24 613 -46 b 568 -136 577 -89 568 -112 b 584 -181 568 -155 573 -170 b 633 -197 594 -192 610 -197 b 667 -192 646 -197 657 -196 b 701 -180 678 -189 689 -185 l 723 -263 b 669 -284 707 -272 689 -279 b 599 -293 649 -290 626 -293 b 493 -256 556 -293 521 -281 b 452 -151 466 -231 452 -196 b 493 -48 452 -115 466 -81 b 621 39 521 -16 563 13 l 669 0 "},"Ć":{"ha":880,"x_min":0,"x_max":0,"o":"m 821 312 b 724 79 823 219 791 142 b 458 -14 657 17 568 -14 b 185 104 347 -14 256 25 b 80 406 115 184 80 284 l 80 581 b 185 883 80 703 115 803 b 458 1002 256 962 347 1002 b 725 912 570 1002 659 972 b 821 676 791 853 823 774 l 820 672 l 692 672 b 631 836 692 741 671 796 b 458 897 590 876 533 897 b 280 806 384 897 324 866 b 214 583 236 746 214 672 l 214 406 b 280 180 214 316 236 241 b 458 90 324 120 384 90 b 631 150 533 90 590 110 b 692 316 671 190 692 245 l 820 316 m 680 1278 l 682 1274 l 499 1097 l 399 1097 l 524 1278 "},"ć":{"ha":727,"x_min":0,"x_max":0,"o":"m 389 90 b 496 131 430 90 466 104 b 543 232 527 159 543 192 l 663 232 l 665 228 b 584 59 667 165 640 108 b 389 -14 528 10 463 -14 b 150 91 286 -14 206 21 b 66 353 94 161 66 248 l 66 381 b 150 642 66 485 94 572 b 389 747 207 712 286 747 b 590 671 470 747 537 722 b 665 485 642 621 667 559 l 664 481 l 543 481 b 499 595 543 526 528 564 b 389 642 470 627 433 642 b 245 566 323 642 275 617 b 200 381 215 515 200 453 l 200 353 b 244 166 200 279 215 217 b 389 90 274 116 322 90 m 591 1045 l 593 1041 l 410 865 l 310 865 l 435 1045 "},"Ĉ":{"ha":880,"x_min":0,"x_max":0,"o":"m 821 312 b 724 79 823 219 791 142 b 458 -14 657 17 568 -14 b 185 104 347 -14 256 25 b 80 406 115 184 80 284 l 80 581 b 185 883 80 703 115 803 b 458 1002 256 962 347 1002 b 725 912 570 1002 659 972 b 821 676 791 853 823 774 l 820 672 l 692 672 b 631 836 692 741 671 796 b 458 897 590 876 533 897 b 280 806 384 897 324 866 b 214 583 236 746 214 672 l 214 406 b 280 180 214 316 236 241 b 458 90 324 120 384 90 b 631 150 533 90 590 110 b 692 316 671 190 692 245 l 820 316 m 669 1100 l 559 1100 l 460 1200 l 361 1100 l 252 1100 l 252 1118 l 419 1278 l 500 1278 l 669 1117 "},"ĉ":{"ha":727,"x_min":0,"x_max":0,"o":"m 389 90 b 496 131 430 90 466 104 b 543 232 527 159 543 192 l 663 232 l 665 228 b 584 59 667 165 640 108 b 389 -14 528 10 463 -14 b 150 91 286 -14 206 21 b 66 353 94 161 66 248 l 66 381 b 150 642 66 485 94 572 b 389 747 207 712 286 747 b 590 671 470 747 537 722 b 665 485 642 621 667 559 l 664 481 l 543 481 b 499 595 543 526 528 564 b 389 642 470 627 433 642 b 245 566 323 642 275 617 b 200 381 215 515 200 453 l 200 353 b 244 166 200 279 215 217 b 389 90 274 116 322 90 m 580 867 l 471 867 l 371 968 l 272 867 l 163 867 l 163 885 l 330 1046 l 412 1046 l 580 884 "},"Ċ":{"ha":880,"x_min":0,"x_max":0,"o":"m 821 312 b 724 79 823 219 791 142 b 458 -14 657 17 568 -14 b 185 104 347 -14 256 25 b 80 406 115 184 80 284 l 80 581 b 185 883 80 703 115 803 b 458 1002 256 962 347 1002 b 725 912 570 1002 659 972 b 821 676 791 853 823 774 l 820 672 l 692 672 b 631 836 692 741 671 796 b 458 897 590 876 533 897 b 280 806 384 897 324 866 b 214 583 236 746 214 672 l 214 406 b 280 180 214 316 236 241 b 458 90 324 120 384 90 b 631 150 533 90 590 110 b 692 316 671 190 692 245 l 820 316 m 386 1102 l 386 1238 l 534 1238 l 534 1102 "},"ċ":{"ha":727,"x_min":0,"x_max":0,"o":"m 389 90 b 496 131 430 90 466 104 b 543 232 527 159 543 192 l 663 232 l 665 228 b 584 59 667 165 640 108 b 389 -14 528 10 463 -14 b 150 91 286 -14 206 21 b 66 353 94 161 66 248 l 66 381 b 150 642 66 485 94 572 b 389 747 207 712 286 747 b 590 671 470 747 537 722 b 665 485 642 621 667 559 l 664 481 l 543 481 b 499 595 543 526 528 564 b 389 642 470 627 433 642 b 245 566 323 642 275 617 b 200 381 215 515 200 453 l 200 353 b 244 166 200 279 215 217 b 389 90 274 116 322 90 m 297 869 l 297 1006 l 445 1006 l 445 869 "},"Č":{"ha":880,"x_min":0,"x_max":0,"o":"m 821 312 b 724 79 823 219 791 142 b 458 -14 657 17 568 -14 b 185 104 347 -14 256 25 b 80 406 115 184 80 284 l 80 581 b 185 883 80 703 115 803 b 458 1002 256 962 347 1002 b 725 912 570 1002 659 972 b 821 676 791 853 823 774 l 820 672 l 692 672 b 631 836 692 741 671 796 b 458 897 590 876 533 897 b 280 806 384 897 324 866 b 214 583 236 746 214 672 l 214 406 b 280 180 214 316 236 241 b 458 90 324 120 384 90 b 631 150 533 90 590 110 b 692 316 671 190 692 245 l 820 316 m 559 1279 l 674 1279 l 674 1267 l 500 1101 l 419 1101 l 247 1265 l 247 1279 l 359 1279 l 459 1179 "},"č":{"ha":727,"x_min":0,"x_max":0,"o":"m 389 90 b 496 131 430 90 466 104 b 543 232 527 159 543 192 l 663 232 l 665 228 b 584 59 667 165 640 108 b 389 -14 528 10 463 -14 b 150 91 286 -14 206 21 b 66 353 94 161 66 248 l 66 381 b 150 642 66 485 94 572 b 389 747 207 712 286 747 b 590 671 470 747 537 722 b 665 485 642 621 667 559 l 664 481 l 543 481 b 499 595 543 526 528 564 b 389 642 470 627 433 642 b 245 566 323 642 275 617 b 200 381 215 515 200 453 l 200 353 b 244 166 200 279 215 217 b 389 90 274 116 322 90 m 470 1046 l 585 1046 l 585 1034 l 411 868 l 330 868 l 158 1033 l 158 1046 l 271 1046 l 370 946 "},"Ď":{"ha":941,"x_min":0,"x_max":0,"o":"m 115 987 l 426 987 b 737 868 555 987 658 948 b 854 561 815 789 854 687 l 854 426 b 737 118 854 300 815 197 b 426 0 658 39 555 0 l 115 0 m 249 104 l 426 104 b 642 195 517 104 589 135 b 721 426 695 255 721 332 l 721 562 b 642 792 721 655 695 732 b 426 882 589 852 517 882 l 249 882 m 513 1265 l 629 1265 l 629 1253 l 454 1086 l 374 1086 l 201 1251 l 201 1265 l 314 1265 l 414 1164 "},"ď":{"ha":789,"x_min":0,"x_max":0,"o":"m 66 353 b 142 639 66 471 92 566 b 354 747 192 711 263 747 b 468 724 397 747 435 739 b 553 654 502 708 530 685 l 553 1058 l 687 1058 l 687 0 l 585 0 l 564 93 b 475 13 540 58 511 31 b 353 -14 440 -5 399 -14 b 142 83 263 -14 193 18 b 66 339 92 148 66 233 l 66 353 m 200 339 b 245 161 200 265 215 206 b 387 94 276 117 323 94 b 487 121 426 94 460 103 b 553 197 514 139 536 165 l 553 540 b 487 612 536 570 514 594 b 388 639 459 630 426 639 b 246 559 324 639 276 612 b 200 353 215 507 200 438 l 200 339 m 805 802 l 739 802 l 781 969 l 781 1058 l 888 1058 l 888 963 "},"Đ":{"ha":941,"x_min":0,"x_max":0,"o":"m 115 450 l 1 450 l 1 555 l 115 555 l 115 987 l 426 987 b 737 868 555 987 658 948 b 854 561 815 789 854 687 l 854 426 b 737 118 854 300 815 197 b 426 0 658 39 555 0 l 115 0 m 249 450 l 249 104 l 426 104 b 642 195 517 104 589 135 b 721 426 695 255 721 332 l 721 562 b 642 792 721 655 695 732 b 426 882 589 852 517 882 l 249 882 l 249 555 l 436 555 l 436 450 "},"đ":{"ha":789,"x_min":0,"x_max":0,"o":"m 687 835 l 687 0 l 585 0 l 564 93 b 475 13 540 58 511 31 b 353 -14 440 -5 399 -14 b 142 83 263 -14 193 18 b 66 339 92 148 66 233 l 66 353 b 142 639 66 471 92 566 b 354 747 192 711 263 747 b 468 724 397 747 435 739 b 553 654 502 708 530 685 l 553 835 l 386 835 l 386 940 l 553 940 l 553 1058 l 687 1058 l 687 940 l 821 940 l 821 835 m 200 339 b 245 161 200 265 215 206 b 387 94 276 117 323 94 b 487 121 426 94 460 103 b 553 197 514 139 536 165 l 553 540 b 487 612 536 570 514 594 b 388 639 459 630 426 639 b 246 559 324 639 276 612 b 200 353 215 507 200 438 l 200 339 "},"Ē":{"ha":766,"x_min":0,"x_max":0,"o":"m 249 458 l 249 104 l 724 104 l 724 0 l 115 0 l 115 987 l 716 987 l 716 882 l 249 882 l 249 563 l 654 563 l 654 458 m 179 1112 l 179 1211 l 668 1211 l 668 1112 "},"ē":{"ha":727,"x_min":0,"x_max":0,"o":"m 401 -14 b 154 87 295 -14 213 19 b 66 353 95 154 66 243 l 66 382 b 157 644 66 488 96 575 b 380 747 218 713 292 747 b 601 656 478 747 551 717 b 674 412 650 595 674 514 l 674 342 l 205 342 l 203 338 b 252 159 203 265 219 205 b 401 90 284 113 334 90 b 520 110 446 90 486 97 b 608 163 554 122 583 140 l 660 76 b 556 12 634 51 599 29 b 401 -14 513 -6 461 -14 m 380 642 b 264 588 333 642 295 624 b 208 450 234 552 215 506 l 210 447 l 541 447 l 541 458 b 501 590 541 511 527 555 b 380 642 475 625 434 642 m 125 895 l 125 994 l 614 994 l 614 895 "},"Ĕ":{"ha":766,"x_min":0,"x_max":0,"o":"m 249 458 l 249 104 l 724 104 l 724 0 l 115 0 l 115 987 l 716 987 l 716 882 l 249 882 l 249 563 l 654 563 l 654 458 m 621 1264 b 568 1136 622 1212 605 1169 b 420 1086 532 1103 482 1086 b 272 1136 358 1086 309 1103 b 220 1264 235 1169 218 1212 l 222 1268 l 324 1268 b 347 1196 324 1238 332 1214 b 420 1168 363 1177 387 1168 b 493 1196 453 1168 477 1177 b 517 1268 509 1215 517 1239 l 619 1268 "},"ĕ":{"ha":727,"x_min":0,"x_max":0,"o":"m 401 -14 b 154 87 295 -14 213 19 b 66 353 95 154 66 243 l 66 382 b 157 644 66 488 96 575 b 380 747 218 713 292 747 b 601 656 478 747 551 717 b 674 412 650 595 674 514 l 674 342 l 205 342 l 203 338 b 252 159 203 265 219 205 b 401 90 284 113 334 90 b 520 110 446 90 486 97 b 608 163 554 122 583 140 l 660 76 b 556 12 634 51 599 29 b 401 -14 513 -6 461 -14 m 380 642 b 264 588 333 642 295 624 b 208 450 234 552 215 506 l 210 447 l 541 447 l 541 458 b 501 590 541 511 527 555 b 380 642 475 625 434 642 m 566 1046 b 514 918 568 994 551 951 b 366 869 477 885 428 869 b 218 918 304 869 254 885 b 166 1046 181 951 164 994 l 168 1050 l 270 1050 b 293 978 270 1021 278 996 b 366 950 308 959 333 950 b 439 978 399 950 423 959 b 463 1050 455 997 463 1021 l 565 1050 "},"Ė":{"ha":766,"x_min":0,"x_max":0,"o":"m 249 458 l 249 104 l 724 104 l 724 0 l 115 0 l 115 987 l 716 987 l 716 882 l 249 882 l 249 563 l 654 563 l 654 458 m 346 1088 l 346 1224 l 494 1224 l 494 1088 "},"ė":{"ha":727,"x_min":0,"x_max":0,"o":"m 401 -14 b 154 87 295 -14 213 19 b 66 353 95 154 66 243 l 66 382 b 157 644 66 488 96 575 b 380 747 218 713 292 747 b 601 656 478 747 551 717 b 674 412 650 595 674 514 l 674 342 l 205 342 l 203 338 b 252 159 203 265 219 205 b 401 90 284 113 334 90 b 520 110 446 90 486 97 b 608 163 554 122 583 140 l 660 76 b 556 12 634 51 599 29 b 401 -14 513 -6 461 -14 m 380 642 b 264 588 333 642 295 624 b 208 450 234 552 215 506 l 210 447 l 541 447 l 541 458 b 501 590 541 511 527 555 b 380 642 475 625 434 642 m 292 870 l 292 1006 l 439 1006 l 439 870 "},"Ę":{"ha":766,"x_min":0,"x_max":0,"o":"m 249 458 l 249 104 l 724 104 l 724 0 l 115 0 l 115 987 l 716 987 l 716 882 l 249 882 l 249 563 l 654 563 l 654 458 m 465 0 b 390 -67 433 -24 408 -46 b 363 -136 372 -89 363 -112 b 379 -181 363 -155 369 -170 b 429 -197 389 -192 406 -197 b 463 -192 441 -197 452 -196 b 496 -180 473 -189 484 -185 l 518 -263 b 464 -284 502 -272 484 -279 b 394 -293 445 -290 421 -293 b 289 -256 351 -293 316 -281 b 248 -151 261 -231 248 -196 b 289 -48 248 -115 261 -81 b 416 39 316 -16 358 13 l 465 0 "},"ę":{"ha":727,"x_min":0,"x_max":0,"o":"m 401 -14 b 154 87 295 -14 213 19 b 66 353 95 154 66 243 l 66 382 b 157 644 66 488 96 575 b 380 747 218 713 292 747 b 601 656 478 747 551 717 b 674 412 650 595 674 514 l 674 342 l 205 342 l 203 338 b 252 159 203 265 219 205 b 401 90 284 113 334 90 b 520 110 446 90 486 97 b 608 163 554 122 583 140 l 660 76 b 556 12 634 51 599 29 b 401 -14 513 -6 461 -14 m 380 642 b 264 588 333 642 295 624 b 208 450 234 552 215 506 l 210 447 l 541 447 l 541 458 b 501 590 541 511 527 555 b 380 642 475 625 434 642 m 600 41 b 525 -27 568 17 543 -5 b 498 -96 507 -48 498 -71 b 514 -140 498 -115 504 -130 b 564 -157 524 -151 541 -157 b 597 -152 576 -157 587 -155 b 631 -139 608 -148 619 -144 l 653 -222 b 599 -244 637 -231 619 -238 b 529 -252 579 -249 556 -252 b 424 -215 486 -252 451 -240 b 382 -111 396 -190 382 -155 b 424 -7 382 -74 396 -40 b 551 79 451 25 493 54 l 600 41 "},"Ě":{"ha":766,"x_min":0,"x_max":0,"o":"m 249 458 l 249 104 l 724 104 l 724 0 l 115 0 l 115 987 l 716 987 l 716 882 l 249 882 l 249 563 l 654 563 l 654 458 m 519 1265 l 634 1265 l 634 1253 l 460 1086 l 379 1086 l 207 1251 l 207 1265 l 319 1265 l 419 1164 "},"ě":{"ha":727,"x_min":0,"x_max":0,"o":"m 401 -14 b 154 87 295 -14 213 19 b 66 353 95 154 66 243 l 66 382 b 157 644 66 488 96 575 b 380 747 218 713 292 747 b 601 656 478 747 551 717 b 674 412 650 595 674 514 l 674 342 l 205 342 l 203 338 b 252 159 203 265 219 205 b 401 90 284 113 334 90 b 520 110 446 90 486 97 b 608 163 554 122 583 140 l 660 76 b 556 12 634 51 599 29 b 401 -14 513 -6 461 -14 m 380 642 b 264 588 333 642 295 624 b 208 450 234 552 215 506 l 210 447 l 541 447 l 541 458 b 501 590 541 511 527 555 b 380 642 475 625 434 642 m 465 1047 l 580 1047 l 580 1035 l 406 869 l 325 869 l 153 1034 l 153 1047 l 265 1047 l 365 947 "},"Ĝ":{"ha":941,"x_min":0,"x_max":0,"o":"m 825 133 b 703 32 802 96 761 63 b 477 -14 645 1 569 -14 b 194 99 363 -14 269 24 b 82 392 119 175 82 272 l 82 595 b 190 888 82 715 118 813 b 468 1002 262 964 354 1002 b 728 914 578 1002 665 972 b 821 690 792 855 823 781 l 820 686 l 692 686 b 633 837 692 746 672 797 b 468 897 595 877 539 897 b 286 812 392 897 332 868 b 216 597 239 755 216 684 l 216 392 b 290 175 216 304 241 232 b 477 90 338 119 401 90 b 615 113 535 90 581 98 b 692 167 650 128 675 146 l 692 389 l 468 389 l 468 494 l 825 494 l 825 133 m 663 1100 l 553 1100 l 454 1200 l 355 1100 l 246 1100 l 246 1118 l 413 1278 l 494 1278 l 663 1117 "},"ĝ":{"ha":789,"x_min":0,"x_max":0,"o":"m 73 353 b 149 639 73 471 98 566 b 360 747 199 711 270 747 b 483 719 407 747 448 738 b 572 638 518 700 548 673 l 588 734 l 694 734 l 694 -4 b 612 -221 694 -98 667 -170 b 376 -296 558 -271 479 -296 b 261 -282 340 -296 302 -291 b 153 -242 221 -272 184 -259 l 174 -138 b 267 -171 199 -152 230 -163 b 374 -184 303 -180 339 -184 b 516 -139 439 -184 487 -169 b 561 -4 546 -110 561 -65 l 561 79 b 475 9 537 49 508 25 b 359 -14 441 -6 403 -14 b 149 83 269 -14 199 18 b 73 339 98 148 73 233 l 73 353 m 207 339 b 252 161 207 265 222 206 b 393 94 283 117 329 94 b 494 122 433 94 467 103 b 561 199 521 140 543 166 l 561 537 b 494 611 544 568 521 593 b 394 639 466 630 433 639 b 253 559 330 639 283 612 b 207 353 222 507 207 438 l 207 339 m 593 867 l 484 867 l 385 968 l 286 867 l 177 867 l 177 885 l 344 1046 l 425 1046 l 593 884 "},"Ğ":{"ha":941,"x_min":0,"x_max":0,"o":"m 825 133 b 703 32 802 96 761 63 b 477 -14 645 1 569 -14 b 194 99 363 -14 269 24 b 82 392 119 175 82 272 l 82 595 b 190 888 82 715 118 813 b 468 1002 262 964 354 1002 b 728 914 578 1002 665 972 b 821 690 792 855 823 781 l 820 686 l 692 686 b 633 837 692 746 672 797 b 468 897 595 877 539 897 b 286 812 392 897 332 868 b 216 597 239 755 216 684 l 216 392 b 290 175 216 304 241 232 b 477 90 338 119 401 90 b 615 113 535 90 581 98 b 692 167 650 128 675 146 l 692 389 l 468 389 l 468 494 l 825 494 l 825 133 m 654 1278 b 602 1150 656 1226 639 1183 b 454 1101 566 1117 516 1101 b 306 1150 392 1101 342 1117 b 254 1278 269 1183 252 1226 l 256 1282 l 358 1282 b 381 1210 358 1253 366 1228 b 454 1182 397 1191 421 1182 b 527 1210 487 1182 511 1191 b 551 1282 543 1229 551 1253 l 653 1282 "},"ğ":{"ha":789,"x_min":0,"x_max":0,"o":"m 73 353 b 149 639 73 471 98 566 b 360 747 199 711 270 747 b 483 719 407 747 448 738 b 572 638 518 700 548 673 l 588 734 l 694 734 l 694 -4 b 612 -221 694 -98 667 -170 b 376 -296 558 -271 479 -296 b 261 -282 340 -296 302 -291 b 153 -242 221 -272 184 -259 l 174 -138 b 267 -171 199 -152 230 -163 b 374 -184 303 -180 339 -184 b 516 -139 439 -184 487 -169 b 561 -4 546 -110 561 -65 l 561 79 b 475 9 537 49 508 25 b 359 -14 441 -6 403 -14 b 149 83 269 -14 199 18 b 73 339 98 148 73 233 l 73 353 m 207 339 b 252 161 207 265 222 206 b 393 94 283 117 329 94 b 494 122 433 94 467 103 b 561 199 521 140 543 166 l 561 537 b 494 611 544 568 521 593 b 394 639 466 630 433 639 b 253 559 330 639 283 612 b 207 353 222 507 207 438 l 207 339 m 585 1046 b 533 918 587 993 570 951 b 385 868 496 885 447 868 b 237 918 323 868 273 885 b 185 1046 200 951 183 993 l 186 1050 l 289 1050 b 312 977 289 1020 297 996 b 385 949 327 959 352 949 b 458 978 418 949 442 959 b 481 1050 474 996 481 1020 l 584 1050 "},"Ġ":{"ha":941,"x_min":0,"x_max":0,"o":"m 825 133 b 703 32 802 96 761 63 b 477 -14 645 1 569 -14 b 194 99 363 -14 269 24 b 82 392 119 175 82 272 l 82 595 b 190 888 82 715 118 813 b 468 1002 262 964 354 1002 b 728 914 578 1002 665 972 b 821 690 792 855 823 781 l 820 686 l 692 686 b 633 837 692 746 672 797 b 468 897 595 877 539 897 b 286 812 392 897 332 868 b 216 597 239 755 216 684 l 216 392 b 290 175 216 304 241 232 b 477 90 338 119 401 90 b 615 113 535 90 581 98 b 692 167 650 128 675 146 l 692 389 l 468 389 l 468 494 l 825 494 l 825 133 m 380 1102 l 380 1238 l 528 1238 l 528 1102 "},"ġ":{"ha":789,"x_min":0,"x_max":0,"o":"m 73 353 b 149 639 73 471 98 566 b 360 747 199 711 270 747 b 483 719 407 747 448 738 b 572 638 518 700 548 673 l 588 734 l 694 734 l 694 -4 b 612 -221 694 -98 667 -170 b 376 -296 558 -271 479 -296 b 261 -282 340 -296 302 -291 b 153 -242 221 -272 184 -259 l 174 -138 b 267 -171 199 -152 230 -163 b 374 -184 303 -180 339 -184 b 516 -139 439 -184 487 -169 b 561 -4 546 -110 561 -65 l 561 79 b 475 9 537 49 508 25 b 359 -14 441 -6 403 -14 b 149 83 269 -14 199 18 b 73 339 98 148 73 233 l 73 353 m 207 339 b 252 161 207 265 222 206 b 393 94 283 117 329 94 b 494 122 433 94 467 103 b 561 199 521 140 543 166 l 561 537 b 494 611 544 568 521 593 b 394 639 466 630 433 639 b 253 559 330 639 283 612 b 207 353 222 507 207 438 l 207 339 m 311 869 l 311 1006 l 458 1006 l 458 869 "},"Ģ":{"ha":941,"x_min":0,"x_max":0,"o":"m 825 133 b 703 32 802 96 761 63 b 477 -14 645 1 569 -14 b 194 99 363 -14 269 24 b 82 392 119 175 82 272 l 82 595 b 190 888 82 715 118 813 b 468 1002 262 964 354 1002 b 728 914 578 1002 665 972 b 821 690 792 855 823 781 l 820 686 l 692 686 b 633 837 692 746 672 797 b 468 897 595 877 539 897 b 286 812 392 897 332 868 b 216 597 239 755 216 684 l 216 392 b 290 175 216 304 241 232 b 477 90 338 119 401 90 b 615 113 535 90 581 98 b 692 167 650 128 675 146 l 692 389 l 468 389 l 468 494 l 825 494 l 825 133 m 420 -336 l 354 -336 l 395 -169 l 395 -80 l 503 -80 l 503 -175 "},"ģ":{"ha":789,"x_min":0,"x_max":0,"o":"m 73 353 b 149 639 73 471 98 566 b 360 747 199 711 270 747 b 483 719 407 747 448 738 b 572 638 518 700 548 673 l 588 734 l 694 734 l 694 -4 b 612 -221 694 -98 667 -170 b 376 -296 558 -271 479 -296 b 261 -282 340 -296 302 -291 b 153 -242 221 -272 184 -259 l 174 -138 b 267 -171 199 -152 230 -163 b 374 -184 303 -180 339 -184 b 516 -139 439 -184 487 -169 b 561 -4 546 -110 561 -65 l 561 79 b 475 9 537 49 508 25 b 359 -14 441 -6 403 -14 b 149 83 269 -14 199 18 b 73 339 98 148 73 233 l 73 353 m 207 339 b 252 161 207 265 222 206 b 393 94 283 117 329 94 b 494 122 433 94 467 103 b 561 199 521 140 543 166 l 561 537 b 494 611 544 568 521 593 b 394 639 466 630 433 639 b 253 559 330 639 283 612 b 207 353 222 507 207 438 l 207 339 m 395 1118 l 461 1118 l 447 943 l 447 850 l 313 850 l 313 950 "},"Ĥ":{"ha":977,"x_min":0,"x_max":0,"o":"m 728 0 l 728 436 l 249 436 l 249 0 l 115 0 l 115 987 l 249 987 l 249 541 l 728 541 l 728 987 l 862 987 l 862 0 m 692 1086 l 583 1086 l 483 1186 l 384 1086 l 275 1086 l 275 1103 l 442 1264 l 524 1264 l 692 1103 "},"ĥ":{"ha":789,"x_min":0,"x_max":0,"o":"m 231 635 b 324 718 256 671 287 698 b 446 747 361 738 401 747 b 629 677 524 747 585 724 b 694 460 673 630 694 557 l 694 0 l 561 0 l 561 461 b 522 595 561 522 548 566 b 406 639 496 624 457 639 b 302 615 366 639 331 631 b 231 550 272 600 249 578 l 231 0 l 97 0 l 97 1058 l 231 1058 l 231 635 m 554 1085 l 445 1085 l 345 1185 l 246 1085 l 138 1085 l 138 1103 l 304 1263 l 386 1263 l 554 1102 "},"Ħ":{"ha":976,"x_min":0,"x_max":0,"o":"m 965 793 l 965 694 l 867 694 l 867 0 l 734 0 l 734 436 l 254 436 l 254 0 l 121 0 l 121 694 l 21 694 l 21 793 l 121 793 l 121 987 l 254 987 l 254 793 l 734 793 l 734 987 l 867 987 l 867 793 m 734 541 l 734 694 l 254 694 l 254 541 "},"ħ":{"ha":789,"x_min":0,"x_max":0,"o":"m 231 835 l 231 635 b 324 718 256 671 287 698 b 446 747 361 738 401 747 b 629 677 524 747 585 724 b 694 460 673 630 694 557 l 694 0 l 561 0 l 561 461 b 522 595 561 522 548 566 b 406 639 496 624 457 639 b 302 615 366 639 331 631 b 231 550 272 600 249 578 l 231 0 l 97 0 l 97 835 l -19 835 l -19 940 l 97 940 l 97 1058 l 231 1058 l 231 940 l 416 940 l 416 835 "},"Ĩ":{"ha":393,"x_min":0,"x_max":0,"o":"m 129 0 l 129 987 l 263 987 l 263 0 m 432 1251 b 392 1143 432 1208 419 1172 b 290 1099 365 1113 331 1099 b 190 1130 258 1099 225 1109 b 103 1162 155 1151 126 1162 b 54 1140 84 1162 67 1154 b 35 1086 41 1125 35 1107 l -39 1104 b 1 1214 -39 1146 -25 1183 b 103 1260 28 1245 62 1260 b 198 1228 128 1260 160 1249 b 290 1196 236 1207 267 1196 b 338 1218 309 1196 325 1204 b 359 1272 352 1233 359 1251 l 432 1251 "},"ĩ":{"ha":349,"x_min":0,"x_max":0,"o":"m 104 0 l 104 734 l 237 734 l 237 0 m 407 1018 b 367 910 407 975 393 939 b 265 866 340 881 306 866 b 165 898 233 866 200 877 b 78 929 130 919 101 929 b 29 907 59 929 42 922 b 9 854 16 892 9 875 l -64 871 b -24 981 -64 913 -50 950 b 78 1027 3 1012 37 1027 b 173 996 103 1027 135 1017 b 265 964 211 974 242 964 b 313 986 284 964 300 971 b 334 1040 327 1000 334 1018 l 407 1018 "},"Ī":{"ha":393,"x_min":0,"x_max":0,"o":"m 129 0 l 129 987 l 263 987 l 263 0 m -44 1112 l -44 1211 l 445 1211 l 445 1112 "},"ī":{"ha":349,"x_min":0,"x_max":0,"o":"m 104 0 l 104 734 l 237 734 l 237 0 m -69 880 l -69 979 l 420 979 l 420 880 "},"Ĭ":{"ha":393,"x_min":0,"x_max":0,"o":"m 129 0 l 129 987 l 263 987 l 263 0 m 397 1264 b 345 1136 399 1212 382 1169 b 197 1086 309 1103 259 1086 b 49 1136 135 1086 85 1103 b -3 1264 12 1169 -5 1212 l -1 1268 l 101 1268 b 124 1196 101 1238 109 1214 b 197 1168 139 1177 164 1168 b 270 1196 230 1168 254 1177 b 294 1268 286 1215 294 1239 l 396 1268 "},"ĭ":{"ha":349,"x_min":0,"x_max":0,"o":"m 104 0 l 104 734 l 237 734 l 237 0 m 372 1031 b 320 903 374 979 357 936 b 172 854 283 870 234 854 b 24 903 110 854 60 870 b -28 1031 -13 936 -30 979 l -26 1036 l 76 1036 b 99 963 76 1006 84 982 b 172 935 114 944 139 935 b 245 963 205 935 229 945 b 269 1036 261 982 269 1006 l 371 1036 "},"Į":{"ha":393,"x_min":0,"x_max":0,"o":"m 129 0 l 129 987 l 263 987 l 263 0 m 248 0 b 173 -67 216 -24 191 -46 b 146 -136 155 -89 146 -112 b 162 -181 146 -155 152 -170 b 212 -197 172 -192 189 -197 b 245 -192 224 -197 235 -196 b 279 -180 256 -189 267 -185 l 301 -263 b 247 -284 285 -272 267 -279 b 177 -293 228 -290 204 -293 b 72 -256 134 -293 99 -281 b 31 -151 44 -231 31 -196 b 72 -48 31 -115 44 -81 b 199 39 99 -16 141 13 l 248 0 "},"į":{"ha":350,"x_min":0,"x_max":0,"o":"m 108 0 l 108 734 l 241 734 l 241 0 m 108 922 l 108 1058 l 241 1058 l 241 922 m 226 0 b 152 -67 194 -24 169 -46 b 125 -136 134 -89 125 -112 b 140 -181 125 -155 130 -170 b 190 -197 150 -192 167 -197 b 224 -192 202 -197 213 -196 b 257 -180 234 -189 245 -185 l 279 -263 b 225 -284 263 -272 245 -279 b 155 -293 206 -290 182 -293 b 50 -256 112 -293 77 -281 b 9 -151 22 -231 9 -196 b 50 -48 9 -115 22 -81 b 177 39 77 -16 120 13 l 226 0 "},"İ":{"ha":393,"x_min":0,"x_max":0,"o":"m 129 0 l 129 987 l 263 987 l 263 0 m 122 1088 l 122 1224 l 270 1224 l 270 1088 "},"ı":{"ha":349,"x_min":0,"x_max":0,"o":"m 104 0 l 104 734 l 237 734 l 237 0 "},"Ĳ":{"ha":1154,"x_min":0,"x_max":0,"o":"m 129 0 l 129 987 l 263 987 l 263 0 m 1041 987 l 1041 286 b 957 67 1041 194 1013 121 b 740 -14 901 13 829 -14 b 523 58 649 -14 577 10 b 446 268 470 106 444 176 l 448 272 l 576 272 b 618 135 576 210 590 165 b 740 90 647 105 687 90 b 861 144 789 90 829 108 b 907 286 892 179 907 227 l 907 987 "},"ĳ":{"ha":709,"x_min":0,"x_max":0,"o":"m 108 0 l 108 734 l 241 734 l 241 0 m 108 922 l 108 1058 l 241 1058 l 241 922 m 601 -60 b 543 -235 601 -136 581 -194 b 380 -296 504 -276 450 -296 b 342 -293 366 -296 354 -295 b 305 -284 331 -291 318 -288 l 315 -179 b 342 -185 321 -181 330 -183 b 371 -187 354 -186 363 -187 b 441 -157 400 -187 424 -177 b 467 -60 459 -137 467 -105 l 467 734 l 601 734 m 463 924 l 463 1058 l 597 1058 l 597 924 "},"Ĵ":{"ha":762,"x_min":0,"x_max":0,"o":"m 648 987 l 648 286 b 565 67 648 194 620 121 b 347 -14 509 13 436 -14 b 131 58 256 -14 184 10 b 54 268 77 106 51 176 l 55 272 l 183 272 b 226 135 183 210 197 165 b 347 90 254 105 295 90 b 468 144 397 90 437 108 b 515 286 499 179 515 227 l 515 987 m 785 1078 l 675 1078 l 576 1178 l 477 1078 l 368 1078 l 368 1095 l 535 1256 l 616 1256 l 785 1095 "},"ĵ":{"ha":355,"x_min":0,"x_max":0,"o":"m 250 -60 b 191 -235 250 -136 230 -194 b 29 -296 152 -276 98 -296 b -9 -293 15 -296 2 -295 b -46 -284 -21 -291 -33 -288 l -37 -182 b -5 -189 -30 -185 -20 -187 b 29 -191 10 -190 21 -191 b 93 -156 56 -191 77 -180 b 116 -60 108 -133 116 -101 l 116 734 l 250 734 m 393 840 l 283 840 l 184 941 l 85 840 l -24 840 l -24 858 l 143 1019 l 224 1019 l 393 857 "},"Ķ":{"ha":883,"x_min":0,"x_max":0,"o":"m 249 446 l 249 0 l 115 0 l 115 987 l 249 987 l 249 551 l 322 551 l 688 987 l 839 987 l 840 984 l 440 517 l 869 3 l 867 0 l 705 0 l 336 446 m 389 -324 l 323 -324 l 365 -157 l 365 -68 l 472 -68 l 472 -163 "},"ķ":{"ha":712,"x_min":0,"x_max":0,"o":"m 231 338 l 231 0 l 98 0 l 98 1058 l 231 1058 l 231 445 l 298 445 l 519 734 l 679 734 l 412 395 l 702 0 l 544 0 l 300 338 m 329 -323 l 263 -323 l 304 -156 l 304 -67 l 412 -67 l 412 -162 "},"ĸ":{"ha":776,"x_min":0,"x_max":0,"o":"m 237 311 l 237 0 l 104 0 l 104 734 l 237 734 l 237 424 l 294 424 l 557 734 l 714 734 l 715 730 l 410 382 l 738 3 l 736 0 l 573 0 l 306 311 "},"Ĺ":{"ha":764,"x_min":0,"x_max":0,"o":"m 730 104 l 730 0 l 115 0 l 115 987 l 249 987 l 249 104 m 401 1221 l 402 1217 l 220 1040 l 119 1040 l 245 1221 "},"ĺ":{"ha":350,"x_min":0,"x_max":0,"o":"m 108 0 l 108 1058 l 241 1058 l 241 0 m 395 1272 l 397 1267 l 214 1091 l 114 1091 l 239 1272 "},"Ļ":{"ha":764,"x_min":0,"x_max":0,"o":"m 730 104 l 730 0 l 115 0 l 115 987 l 249 987 l 249 104 m 385 -323 l 319 -323 l 361 -156 l 361 -67 l 468 -67 l 468 -162 "},"ļ":{"ha":350,"x_min":0,"x_max":0,"o":"m 108 0 l 108 1058 l 241 1058 l 241 0 m 140 -323 l 75 -323 l 116 -156 l 116 -67 l 223 -67 l 223 -162 "},"Ľ":{"ha":764,"x_min":0,"x_max":0,"o":"m 730 104 l 730 0 l 115 0 l 115 987 l 249 987 l 249 104 m 454 732 l 389 732 l 430 899 l 430 988 l 537 988 l 537 893 "},"ľ":{"ha":350,"x_min":0,"x_max":0,"o":"m 108 0 l 108 1058 l 241 1058 l 241 0 m 382 802 l 316 802 l 357 969 l 357 1058 l 465 1058 l 465 963 "},"Ŀ":{"ha":764,"x_min":0,"x_max":0,"o":"m 730 104 l 730 0 l 115 0 l 115 987 l 249 987 l 249 104 m 410 466 l 410 602 l 557 602 l 557 466 "},"ŀ":{"ha":350,"x_min":0,"x_max":0,"o":"m 108 0 l 108 1058 l 241 1058 l 241 0 m 271 454 l 271 591 l 418 591 l 418 454 "},"Ł":{"ha":730,"x_min":0,"x_max":0,"o":"m 427 630 l 427 517 l 244 459 l 244 104 l 726 104 l 726 0 l 111 0 l 111 417 l 27 391 l 27 503 l 111 530 l 111 987 l 244 987 l 244 572 "},"ł":{"ha":378,"x_min":0,"x_max":0,"o":"m 357 631 l 357 519 l 255 479 l 255 0 l 121 0 l 121 429 l 25 392 l 25 504 l 121 541 l 121 1058 l 255 1058 l 255 591 "},"Ń":{"ha":978,"x_min":0,"x_max":0,"o":"m 728 0 l 253 754 l 249 753 l 249 0 l 115 0 l 115 987 l 249 987 l 724 234 l 728 235 l 728 987 l 862 987 l 862 0 m 708 1263 l 709 1259 l 527 1083 l 427 1083 l 552 1263 "},"ń":{"ha":789,"x_min":0,"x_max":0,"o":"m 226 625 b 318 715 250 663 281 694 b 444 747 355 737 397 747 b 627 678 523 747 584 724 b 692 463 671 631 692 560 l 692 0 l 559 0 l 559 460 b 520 598 559 525 546 571 b 404 639 495 625 456 639 b 299 614 362 639 327 631 b 231 545 270 598 247 574 l 231 0 l 97 0 l 97 734 l 216 734 m 612 1045 l 614 1041 l 431 865 l 331 865 l 456 1045 "},"Ņ":{"ha":978,"x_min":0,"x_max":0,"o":"m 728 0 l 253 754 l 249 753 l 249 0 l 115 0 l 115 987 l 249 987 l 724 234 l 728 235 l 728 987 l 862 987 l 862 0 m 453 -323 l 387 -323 l 429 -156 l 429 -67 l 536 -67 l 536 -162 "},"ņ":{"ha":789,"x_min":0,"x_max":0,"o":"m 226 625 b 318 715 250 663 281 694 b 444 747 355 737 397 747 b 627 678 523 747 584 724 b 692 463 671 631 692 560 l 692 0 l 559 0 l 559 460 b 520 598 559 525 546 571 b 404 639 495 625 456 639 b 299 614 362 639 327 631 b 231 545 270 598 247 574 l 231 0 l 97 0 l 97 734 l 216 734 m 357 -323 l 292 -323 l 333 -156 l 333 -67 l 440 -67 l 440 -162 "},"Ň":{"ha":978,"x_min":0,"x_max":0,"o":"m 728 0 l 253 754 l 249 753 l 249 0 l 115 0 l 115 987 l 249 987 l 724 234 l 728 235 l 728 987 l 862 987 l 862 0 m 587 1265 l 702 1265 l 702 1253 l 528 1086 l 447 1086 l 275 1251 l 275 1265 l 387 1265 l 487 1164 "},"ň":{"ha":789,"x_min":0,"x_max":0,"o":"m 226 625 b 318 715 250 663 281 694 b 444 747 355 737 397 747 b 627 678 523 747 584 724 b 692 463 671 631 692 560 l 692 0 l 559 0 l 559 460 b 520 598 559 525 546 571 b 404 639 495 625 456 639 b 299 614 362 639 327 631 b 231 545 270 598 247 574 l 231 0 l 97 0 l 97 734 l 216 734 m 491 1046 l 606 1046 l 606 1034 l 432 868 l 351 868 l 179 1033 l 179 1046 l 292 1046 l 391 946 "},"ŉ":{"ha":789,"x_min":0,"x_max":0,"o":"m 226 625 b 318 715 250 663 281 694 b 444 747 355 737 397 747 b 627 678 523 747 584 724 b 692 463 671 631 692 560 l 692 0 l 559 0 l 559 460 b 520 598 559 525 546 571 b 404 639 495 625 456 639 b 299 614 362 639 327 631 b 231 545 270 598 247 574 l 231 0 l 97 0 l 97 734 l 216 734 m 43 802 l -22 802 l 19 969 l 19 1058 l 126 1058 l 126 963 "},"Ŋ":{"ha":960,"x_min":0,"x_max":0,"o":"m 856 -60 b 798 -235 856 -136 836 -194 b 635 -296 759 -276 704 -296 b 596 -293 621 -296 608 -295 b 559 -284 584 -291 572 -288 l 568 -182 b 600 -189 574 -185 585 -187 b 635 -191 616 -190 627 -191 b 699 -156 662 -191 683 -180 b 722 -60 714 -133 722 -101 l 722 0 l 247 754 l 243 753 l 243 0 l 109 0 l 109 987 l 243 987 l 718 233 l 722 235 l 722 987 l 856 987 "},"ŋ":{"ha":789,"x_min":0,"x_max":0,"o":"m 225 632 b 316 717 250 669 280 697 b 439 747 352 737 393 747 b 622 678 517 747 578 724 b 687 463 665 631 687 560 l 687 -60 b 629 -235 687 -136 668 -194 b 466 -296 590 -276 536 -296 b 427 -293 452 -296 439 -295 b 390 -284 415 -291 403 -288 l 399 -176 b 431 -181 405 -178 416 -180 b 466 -184 446 -183 458 -184 b 530 -152 493 -184 515 -173 b 553 -60 546 -131 553 -100 l 553 460 b 515 598 553 525 541 571 b 397 639 489 625 450 639 b 298 616 359 639 326 631 b 231 554 270 602 248 581 l 231 0 l 97 0 l 97 734 l 216 734 "},"Ō":{"ha":947,"x_min":0,"x_max":0,"o":"m 869 406 b 757 105 869 285 832 185 b 466 -14 682 26 585 -14 b 185 105 351 -14 257 26 b 77 406 113 185 77 285 l 77 581 b 185 882 77 701 113 802 b 466 1002 257 962 351 1002 b 757 882 585 1002 682 962 b 869 581 832 802 869 702 l 869 406 m 736 583 b 663 805 736 673 711 747 b 466 892 614 863 548 892 b 280 805 388 892 326 863 b 210 583 233 747 210 673 l 210 406 b 280 182 210 314 233 240 b 466 95 326 124 388 95 b 663 181 549 95 614 124 b 736 406 712 239 736 314 l 736 583 m 233 1126 l 233 1225 l 722 1225 l 722 1126 "},"ō":{"ha":789,"x_min":0,"x_max":0,"o":"m 66 374 b 154 642 66 482 95 572 b 393 747 213 712 293 747 b 634 642 495 747 575 712 b 723 374 693 572 723 483 l 723 359 b 635 90 723 249 694 160 b 395 -14 576 21 496 -14 b 154 91 293 -14 213 21 b 66 359 95 160 66 250 l 66 374 m 199 359 b 249 166 199 281 216 217 b 395 90 281 116 330 90 b 540 166 458 90 507 116 b 589 359 573 217 589 281 l 589 374 b 539 566 589 451 573 515 b 393 642 506 617 458 642 b 249 566 330 642 281 617 b 199 374 216 515 199 451 l 199 359 m 154 894 l 154 993 l 643 993 l 643 894 "},"Ŏ":{"ha":947,"x_min":0,"x_max":0,"o":"m 869 406 b 757 105 869 285 832 185 b 466 -14 682 26 585 -14 b 185 105 351 -14 257 26 b 77 406 113 185 77 285 l 77 581 b 185 882 77 701 113 802 b 466 1002 257 962 351 1002 b 757 882 585 1002 682 962 b 869 581 832 802 869 702 l 869 406 m 736 583 b 663 805 736 673 711 747 b 466 892 614 863 548 892 b 280 805 388 892 326 863 b 210 583 233 747 210 673 l 210 406 b 280 182 210 314 233 240 b 466 95 326 124 388 95 b 663 181 549 95 614 124 b 736 406 712 239 736 314 l 736 583 m 674 1278 b 622 1150 676 1226 659 1183 b 474 1101 585 1117 536 1101 b 326 1150 412 1101 362 1117 b 274 1278 289 1183 272 1226 l 275 1282 l 378 1282 b 401 1210 378 1253 385 1228 b 474 1182 416 1191 441 1182 b 547 1210 507 1182 531 1191 b 570 1282 562 1229 570 1253 l 673 1282 "},"ŏ":{"ha":789,"x_min":0,"x_max":0,"o":"m 66 374 b 154 642 66 482 95 572 b 393 747 213 712 293 747 b 634 642 495 747 575 712 b 723 374 693 572 723 483 l 723 359 b 635 90 723 249 694 160 b 395 -14 576 21 496 -14 b 154 91 293 -14 213 21 b 66 359 95 160 66 250 l 66 374 m 199 359 b 249 166 199 281 216 217 b 395 90 281 116 330 90 b 540 166 458 90 507 116 b 589 359 573 217 589 281 l 589 374 b 539 566 589 451 573 515 b 393 642 506 617 458 642 b 249 566 330 642 281 617 b 199 374 216 515 199 451 l 199 359 m 595 1046 b 543 918 597 993 580 951 b 395 868 507 885 457 868 b 247 918 333 868 283 885 b 195 1046 210 951 193 993 l 197 1050 l 299 1050 b 322 977 299 1020 307 996 b 395 949 338 959 362 949 b 468 978 428 949 452 959 b 492 1050 484 996 492 1020 l 594 1050 "},"Ő":{"ha":947,"x_min":0,"x_max":0,"o":"m 869 406 b 757 105 869 285 832 185 b 466 -14 682 26 585 -14 b 185 105 351 -14 257 26 b 77 406 113 185 77 285 l 77 581 b 185 882 77 701 113 802 b 466 1002 257 962 351 1002 b 757 882 585 1002 682 962 b 869 581 832 802 869 702 l 869 406 m 736 583 b 663 805 736 673 711 747 b 466 892 614 863 548 892 b 280 805 388 892 326 863 b 210 583 233 747 210 673 l 210 406 b 280 182 210 314 233 240 b 466 95 326 124 388 95 b 663 181 549 95 614 124 b 736 406 712 239 736 314 l 736 583 m 814 1280 l 817 1276 l 613 1100 l 497 1100 l 496 1103 l 659 1280 m 581 1280 l 583 1277 l 420 1100 l 313 1100 l 438 1280 "},"ő":{"ha":789,"x_min":0,"x_max":0,"o":"m 66 374 b 154 642 66 482 95 572 b 393 747 213 712 293 747 b 634 642 495 747 575 712 b 723 374 693 572 723 483 l 723 359 b 635 90 723 249 694 160 b 395 -14 576 21 496 -14 b 154 91 293 -14 213 21 b 66 359 95 160 66 250 l 66 374 m 199 359 b 249 166 199 281 216 217 b 395 90 281 116 330 90 b 540 166 458 90 507 116 b 589 359 573 217 589 281 l 589 374 b 539 566 589 451 573 515 b 393 642 506 617 458 642 b 249 566 330 642 281 617 b 199 374 216 515 199 451 l 199 359 m 736 1048 l 738 1044 l 534 867 l 418 867 l 417 871 l 581 1048 m 503 1048 l 504 1044 l 341 867 l 235 867 l 359 1048 "},"Œ":{"ha":1329,"x_min":0,"x_max":0,"o":"m 646 0 b 540 -11 605 -5 569 -8 b 450 -14 510 -13 481 -14 b 176 98 338 -14 246 23 b 71 391 106 173 71 271 l 71 597 b 175 889 71 717 105 814 b 449 1002 245 964 336 1002 b 544 998 480 1002 512 1000 b 646 987 577 995 611 991 l 1215 987 l 1215 882 l 747 882 l 747 563 l 1153 563 l 1153 458 l 747 458 l 747 104 l 1222 104 l 1222 0 m 450 91 b 533 94 478 91 505 92 b 614 103 561 96 588 99 l 614 884 b 531 893 586 887 559 890 b 449 897 503 895 476 897 b 269 820 373 897 313 871 b 204 598 226 768 204 694 l 204 391 b 270 168 204 294 226 220 b 450 91 314 117 374 91 "},"œ":{"ha":1257,"x_min":0,"x_max":0,"o":"m 930 -14 b 769 21 869 -14 815 -3 b 657 120 723 44 686 77 b 547 21 628 78 591 45 b 395 -14 502 -2 452 -14 b 154 91 293 -14 213 21 b 66 359 95 160 66 250 l 66 374 b 154 642 66 482 95 572 b 393 747 213 712 293 747 b 548 711 451 747 503 735 b 659 609 593 686 630 652 b 768 711 688 652 724 686 b 909 747 811 735 858 747 b 1129 656 1007 747 1080 717 b 1203 412 1179 595 1203 514 l 1203 342 l 734 342 l 732 338 b 781 159 732 265 748 205 b 930 90 813 113 863 90 b 1049 110 975 90 1015 97 b 1137 163 1083 122 1112 140 l 1189 76 b 1085 12 1163 51 1128 29 b 930 -14 1042 -6 990 -14 m 199 359 b 249 166 199 281 216 217 b 395 90 281 116 330 90 b 540 166 458 90 507 116 b 589 359 573 217 589 281 l 589 374 b 539 566 589 451 573 515 b 393 642 506 617 458 642 b 249 566 330 642 281 617 b 199 374 216 515 199 451 l 199 359 m 909 642 b 793 588 862 642 824 624 b 737 450 763 552 744 506 l 739 447 l 1069 447 l 1069 458 b 1030 590 1069 511 1056 555 b 909 642 1004 625 963 642 "},"Ŕ":{"ha":884,"x_min":0,"x_max":0,"o":"m 249 0 l 115 0 l 115 987 l 453 987 b 701 915 561 987 644 963 b 786 706 758 867 786 797 b 746 574 786 655 773 611 b 631 484 720 536 681 506 b 748 398 685 467 724 438 b 783 252 771 359 783 310 l 783 159 b 793 76 783 128 787 100 b 829 16 800 52 812 32 l 829 0 l 691 0 b 657 68 673 15 662 38 b 650 160 652 98 650 128 l 650 250 b 603 379 650 304 634 347 b 477 428 572 412 530 428 l 249 428 m 439 533 b 603 576 515 533 569 547 b 652 707 636 605 652 649 b 604 837 652 763 636 806 b 453 882 572 867 521 882 l 249 882 l 249 533 m 634 1263 l 635 1259 l 453 1083 l 353 1083 l 478 1263 "},"ŕ":{"ha":486,"x_min":0,"x_max":0,"o":"m 376 620 b 287 595 340 620 311 611 b 231 524 262 578 244 555 l 231 0 l 97 0 l 97 734 l 216 734 l 229 627 b 306 715 250 665 276 694 b 412 747 337 737 372 747 b 440 745 422 747 431 747 b 463 740 449 743 457 742 l 444 616 m 500 1045 l 502 1041 l 319 865 l 219 865 l 345 1045 "},"Ŗ":{"ha":884,"x_min":0,"x_max":0,"o":"m 249 0 l 115 0 l 115 987 l 453 987 b 701 915 561 987 644 963 b 786 706 758 867 786 797 b 746 574 786 655 773 611 b 631 484 720 536 681 506 b 748 398 685 467 724 438 b 783 252 771 359 783 310 l 783 159 b 793 76 783 128 787 100 b 829 16 800 52 812 32 l 829 0 l 691 0 b 657 68 673 15 662 38 b 650 160 652 98 650 128 l 650 250 b 603 379 650 304 634 347 b 477 428 572 412 530 428 l 249 428 m 439 533 b 603 576 515 533 569 547 b 652 707 636 605 652 649 b 604 837 652 763 636 806 b 453 882 572 867 521 882 l 249 882 l 249 533 m 379 -323 l 313 -323 l 355 -156 l 355 -67 l 462 -67 l 462 -162 "},"ŗ":{"ha":486,"x_min":0,"x_max":0,"o":"m 376 620 b 287 595 340 620 311 611 b 231 524 262 578 244 555 l 231 0 l 97 0 l 97 734 l 216 734 l 229 627 b 306 715 250 665 276 694 b 412 747 337 737 372 747 b 440 745 422 747 431 747 b 463 740 449 743 457 742 l 444 616 m 138 -323 l 73 -323 l 114 -156 l 114 -67 l 221 -67 l 221 -162 "},"Ř":{"ha":884,"x_min":0,"x_max":0,"o":"m 249 0 l 115 0 l 115 987 l 453 987 b 701 915 561 987 644 963 b 786 706 758 867 786 797 b 746 574 786 655 773 611 b 631 484 720 536 681 506 b 748 398 685 467 724 438 b 783 252 771 359 783 310 l 783 159 b 793 76 783 128 787 100 b 829 16 800 52 812 32 l 829 0 l 691 0 b 657 68 673 15 662 38 b 650 160 652 98 650 128 l 650 250 b 603 379 650 304 634 347 b 477 428 572 412 530 428 l 249 428 m 439 533 b 603 576 515 533 569 547 b 652 707 636 605 652 649 b 604 837 652 763 636 806 b 453 882 572 867 521 882 l 249 882 l 249 533 m 513 1265 l 628 1265 l 628 1253 l 454 1086 l 373 1086 l 201 1251 l 201 1265 l 313 1265 l 413 1164 "},"ř":{"ha":486,"x_min":0,"x_max":0,"o":"m 376 620 b 287 595 340 620 311 611 b 231 524 262 578 244 555 l 231 0 l 97 0 l 97 734 l 216 734 l 229 627 b 306 715 250 665 276 694 b 412 747 337 737 372 747 b 440 745 422 747 431 747 b 463 740 449 743 457 742 l 444 616 m 380 1046 l 495 1046 l 495 1034 l 321 868 l 240 868 l 68 1033 l 68 1046 l 180 1046 l 280 946 "},"Ś":{"ha":849,"x_min":0,"x_max":0,"o":"m 642 249 b 593 361 642 294 625 331 b 424 439 561 392 505 418 b 189 549 323 464 245 500 b 104 731 133 597 104 658 b 195 924 104 808 135 873 b 431 1002 256 976 335 1002 b 680 913 535 1002 618 972 b 770 707 742 854 772 785 l 768 703 l 640 703 b 582 842 640 759 621 805 b 431 897 542 878 492 897 b 288 851 369 897 321 881 b 238 733 255 821 238 781 b 293 626 238 690 256 654 b 470 550 329 597 388 572 b 697 436 569 524 645 486 b 775 250 749 386 775 324 b 681 58 775 171 744 107 b 436 -14 619 10 537 -14 b 183 66 341 -14 256 12 b 77 280 110 119 75 191 l 79 284 l 206 284 b 277 141 206 222 230 174 b 436 90 324 107 377 90 b 586 133 499 90 549 104 b 642 249 623 161 642 200 m 644 1278 l 646 1274 l 463 1097 l 363 1097 l 488 1278 "},"ś":{"ha":726,"x_min":0,"x_max":0,"o":"m 524 197 b 490 269 524 227 512 251 b 363 318 468 288 425 304 b 164 396 276 337 210 363 b 94 530 117 430 94 474 b 171 684 94 590 120 641 b 368 747 221 726 287 747 b 570 680 451 747 519 725 b 644 522 622 634 647 582 l 643 517 l 515 517 b 474 604 515 549 502 578 b 368 642 446 629 411 642 b 263 610 321 642 286 632 b 228 534 240 589 228 564 b 258 467 228 505 238 483 b 382 424 278 451 320 437 b 587 343 472 405 541 378 b 657 207 634 308 657 263 b 578 47 657 142 631 89 b 372 -14 525 6 457 -14 b 151 57 278 -14 204 9 b 74 223 97 104 71 160 l 75 227 l 203 227 b 256 123 205 180 223 145 b 372 90 289 101 327 90 b 483 120 419 90 456 100 b 524 197 510 140 524 166 m 583 1045 l 585 1041 l 402 865 l 302 865 l 427 1045 "},"Ŝ":{"ha":849,"x_min":0,"x_max":0,"o":"m 642 249 b 593 361 642 294 625 331 b 424 439 561 392 505 418 b 189 549 323 464 245 500 b 104 731 133 597 104 658 b 195 924 104 808 135 873 b 431 1002 256 976 335 1002 b 680 913 535 1002 618 972 b 770 707 742 854 772 785 l 768 703 l 640 703 b 582 842 640 759 621 805 b 431 897 542 878 492 897 b 288 851 369 897 321 881 b 238 733 255 821 238 781 b 293 626 238 690 256 654 b 470 550 329 597 388 572 b 697 436 569 524 645 486 b 775 250 749 386 775 324 b 681 58 775 171 744 107 b 436 -14 619 10 537 -14 b 183 66 341 -14 256 12 b 77 280 110 119 75 191 l 79 284 l 206 284 b 277 141 206 222 230 174 b 436 90 324 107 377 90 b 586 133 499 90 549 104 b 642 249 623 161 642 200 m 633 1100 l 524 1100 l 424 1200 l 325 1100 l 216 1100 l 216 1118 l 383 1278 l 465 1278 l 633 1117 "},"ŝ":{"ha":726,"x_min":0,"x_max":0,"o":"m 524 197 b 490 269 524 227 512 251 b 363 318 468 288 425 304 b 164 396 276 337 210 363 b 94 530 117 430 94 474 b 171 684 94 590 120 641 b 368 747 221 726 287 747 b 570 680 451 747 519 725 b 644 522 622 634 647 582 l 643 517 l 515 517 b 474 604 515 549 502 578 b 368 642 446 629 411 642 b 263 610 321 642 286 632 b 228 534 240 589 228 564 b 258 467 228 505 238 483 b 382 424 278 451 320 437 b 587 343 472 405 541 378 b 657 207 634 308 657 263 b 578 47 657 142 631 89 b 372 -14 525 6 457 -14 b 151 57 278 -14 204 9 b 74 223 97 104 71 160 l 75 227 l 203 227 b 256 123 205 180 223 145 b 372 90 289 101 327 90 b 483 120 419 90 456 100 b 524 197 510 140 524 166 m 572 867 l 463 867 l 363 968 l 264 867 l 155 867 l 155 885 l 322 1046 l 404 1046 l 572 884 "},"Ş":{"ha":849,"x_min":0,"x_max":0,"o":"m 642 249 b 593 361 642 294 625 331 b 424 439 561 392 505 418 b 189 549 323 464 245 500 b 104 731 133 597 104 658 b 195 924 104 808 135 873 b 431 1002 256 976 335 1002 b 680 913 535 1002 618 972 b 770 707 742 854 772 785 l 768 703 l 640 703 b 582 842 640 759 621 805 b 431 897 542 878 492 897 b 288 851 369 897 321 881 b 238 733 255 821 238 781 b 293 626 238 690 256 654 b 470 550 329 597 388 572 b 697 436 569 524 645 486 b 775 250 749 386 775 324 b 681 58 775 171 744 107 b 436 -14 619 10 537 -14 b 183 66 341 -14 256 12 b 77 280 110 119 75 191 l 79 284 l 206 284 b 277 141 206 222 230 174 b 436 90 324 107 377 90 b 586 133 499 90 549 104 b 642 249 623 161 642 200 m 467 -41 b 541 -77 497 -46 521 -58 b 570 -159 560 -95 570 -123 b 516 -262 570 -202 552 -237 b 363 -301 480 -288 429 -301 l 358 -227 b 437 -211 391 -227 417 -222 b 467 -161 457 -199 467 -183 b 442 -115 467 -139 458 -124 b 359 -98 426 -107 398 -101 l 380 -6 l 475 -6 "},"ş":{"ha":726,"x_min":0,"x_max":0,"o":"m 524 197 b 490 269 524 227 512 251 b 363 318 468 288 425 304 b 164 396 276 337 210 363 b 94 530 117 430 94 474 b 171 684 94 590 120 641 b 368 747 221 726 287 747 b 570 680 451 747 519 725 b 644 522 622 634 647 582 l 643 517 l 515 517 b 474 604 515 549 502 578 b 368 642 446 629 411 642 b 263 610 321 642 286 632 b 228 534 240 589 228 564 b 258 467 228 505 238 483 b 382 424 278 451 320 437 b 587 343 472 405 541 378 b 657 207 634 308 657 263 b 578 47 657 142 631 89 b 372 -14 525 6 457 -14 b 151 57 278 -14 204 9 b 74 223 97 104 71 160 l 75 227 l 203 227 b 256 123 205 180 223 145 b 372 90 289 101 327 90 b 483 120 419 90 456 100 b 524 197 510 140 524 166 m 406 -41 b 479 -76 436 -46 460 -57 b 509 -158 499 -94 509 -122 b 455 -262 509 -201 491 -236 b 302 -300 419 -288 368 -300 l 297 -227 b 376 -210 330 -227 356 -221 b 406 -160 396 -199 406 -182 b 381 -115 406 -138 397 -123 b 298 -97 365 -106 337 -100 l 319 -5 l 414 -5 "},"Š":{"ha":849,"x_min":0,"x_max":0,"o":"m 642 249 b 593 361 642 294 625 331 b 424 439 561 392 505 418 b 189 549 323 464 245 500 b 104 731 133 597 104 658 b 195 924 104 808 135 873 b 431 1002 256 976 335 1002 b 680 913 535 1002 618 972 b 770 707 742 854 772 785 l 768 703 l 640 703 b 582 842 640 759 621 805 b 431 897 542 878 492 897 b 288 851 369 897 321 881 b 238 733 255 821 238 781 b 293 626 238 690 256 654 b 470 550 329 597 388 572 b 697 436 569 524 645 486 b 775 250 749 386 775 324 b 681 58 775 171 744 107 b 436 -14 619 10 537 -14 b 183 66 341 -14 256 12 b 77 280 110 119 75 191 l 79 284 l 206 284 b 277 141 206 222 230 174 b 436 90 324 107 377 90 b 586 133 499 90 549 104 b 642 249 623 161 642 200 m 523 1279 l 638 1279 l 638 1267 l 464 1101 l 383 1101 l 211 1265 l 211 1279 l 323 1279 l 423 1179 "},"š":{"ha":726,"x_min":0,"x_max":0,"o":"m 524 197 b 490 269 524 227 512 251 b 363 318 468 288 425 304 b 164 396 276 337 210 363 b 94 530 117 430 94 474 b 171 684 94 590 120 641 b 368 747 221 726 287 747 b 570 680 451 747 519 725 b 644 522 622 634 647 582 l 643 517 l 515 517 b 474 604 515 549 502 578 b 368 642 446 629 411 642 b 263 610 321 642 286 632 b 228 534 240 589 228 564 b 258 467 228 505 238 483 b 382 424 278 451 320 437 b 587 343 472 405 541 378 b 657 207 634 308 657 263 b 578 47 657 142 631 89 b 372 -14 525 6 457 -14 b 151 57 278 -14 204 9 b 74 223 97 104 71 160 l 75 227 l 203 227 b 256 123 205 180 223 145 b 372 90 289 101 327 90 b 483 120 419 90 456 100 b 524 197 510 140 524 166 m 462 1046 l 577 1046 l 577 1034 l 403 868 l 322 868 l 150 1033 l 150 1046 l 262 1046 l 362 946 "},"Ţ":{"ha":831,"x_min":0,"x_max":0,"o":"m 480 882 l 480 0 l 347 0 l 347 882 l 25 882 l 25 987 l 806 987 l 806 882 m 381 -323 l 315 -323 l 357 -156 l 357 -67 l 464 -67 l 464 -162 "},"ţ":{"ha":468,"x_min":0,"x_max":0,"o":"m 283 734 l 422 734 l 422 635 l 283 635 l 283 189 b 304 117 283 155 290 131 b 361 96 318 103 337 96 b 387 99 368 96 377 97 b 410 105 396 101 404 103 l 429 14 b 385 -6 419 5 404 -1 b 327 -14 365 -12 346 -14 b 197 35 273 -14 229 2 b 149 189 165 68 149 119 l 149 635 l 33 635 l 33 734 l 149 734 l 149 911 l 283 911 m 284 -330 l 218 -330 l 260 -163 l 260 -74 l 367 -74 l 367 -169 "},"Ť":{"ha":831,"x_min":0,"x_max":0,"o":"m 480 882 l 480 0 l 347 0 l 347 882 l 25 882 l 25 987 l 806 987 l 806 882 m 515 1264 l 630 1264 l 630 1252 l 456 1086 l 375 1086 l 203 1251 l 203 1264 l 315 1264 l 415 1164 "},"ť":{"ha":468,"x_min":0,"x_max":0,"o":"m 283 734 l 422 734 l 422 635 l 283 635 l 283 189 b 304 117 283 155 290 131 b 361 96 318 103 337 96 b 387 99 368 96 377 97 b 410 105 396 101 404 103 l 429 14 b 385 -6 419 5 404 -1 b 327 -14 365 -12 346 -14 b 197 35 273 -14 229 2 b 149 189 165 68 149 119 l 149 635 l 33 635 l 33 734 l 149 734 l 149 911 l 283 911 m 444 821 l 378 821 l 420 987 l 420 1076 l 527 1076 l 527 981 "},"Ŧ":{"ha":831,"x_min":0,"x_max":0,"o":"m 480 556 l 480 0 l 347 0 l 347 556 l 195 556 l 195 661 l 347 661 l 347 882 l 25 882 l 25 987 l 806 987 l 806 882 l 480 882 l 480 661 l 629 661 l 629 556 "},"ŧ":{"ha":468,"x_min":0,"x_max":0,"o":"m 283 734 l 422 734 l 422 635 l 283 635 l 283 512 l 439 512 l 439 407 l 283 407 l 283 189 b 304 117 283 155 290 131 b 361 96 318 103 337 96 b 387 99 368 96 377 97 b 410 105 396 101 404 103 l 429 14 b 385 -6 419 5 404 -1 b 327 -14 365 -12 346 -14 b 197 35 273 -14 229 2 b 149 189 165 68 149 119 l 149 407 l 4 407 l 4 512 l 149 512 l 149 635 l 33 635 l 33 734 l 149 734 l 149 911 l 283 911 "},"Ũ":{"ha":940,"x_min":0,"x_max":0,"o":"m 844 332 b 738 77 844 223 808 138 b 465 -14 667 16 576 -14 b 202 78 358 -14 270 16 b 100 332 134 139 100 224 l 100 987 l 233 987 l 233 332 b 298 154 233 256 255 197 b 465 90 341 112 397 90 b 642 154 538 90 596 112 b 710 332 687 197 710 256 l 710 987 l 844 987 m 708 1251 b 668 1143 708 1208 695 1172 b 566 1099 641 1113 607 1099 b 466 1130 534 1099 501 1109 b 379 1162 431 1151 402 1162 b 330 1140 360 1162 343 1154 b 311 1086 317 1125 311 1107 l 237 1104 b 277 1214 237 1146 251 1183 b 379 1260 304 1245 338 1260 b 474 1228 404 1260 436 1249 b 566 1196 512 1207 543 1196 b 614 1218 585 1196 601 1204 b 635 1272 628 1233 635 1251 l 708 1251 "},"ũ":{"ha":789,"x_min":0,"x_max":0,"o":"m 563 109 b 474 18 540 69 510 39 b 349 -14 438 -4 396 -14 b 161 62 269 -14 206 11 b 94 301 117 113 94 193 l 94 734 l 228 734 l 228 300 b 262 138 228 222 239 168 b 370 94 286 109 321 94 b 488 123 418 94 457 104 b 558 205 519 142 542 170 l 558 734 l 692 734 l 692 0 l 572 0 l 563 109 m 629 1018 b 588 910 629 975 615 939 b 487 866 561 881 528 866 b 387 898 455 866 421 877 b 300 929 352 919 323 929 b 251 907 280 929 264 922 b 231 854 238 892 231 875 l 158 871 b 198 981 158 913 171 950 b 300 1027 225 1012 259 1027 b 395 996 325 1027 357 1017 b 487 964 433 974 463 964 b 535 986 505 964 522 971 b 555 1040 549 1000 555 1018 l 629 1018 "},"Ū":{"ha":940,"x_min":0,"x_max":0,"o":"m 844 332 b 738 77 844 223 808 138 b 465 -14 667 16 576 -14 b 202 78 358 -14 270 16 b 100 332 134 139 100 224 l 100 987 l 233 987 l 233 332 b 298 154 233 256 255 197 b 465 90 341 112 397 90 b 642 154 538 90 596 112 b 710 332 687 197 710 256 l 710 987 l 844 987 m 232 1112 l 232 1211 l 721 1211 l 721 1112 "},"ū":{"ha":789,"x_min":0,"x_max":0,"o":"m 563 109 b 474 18 540 69 510 39 b 349 -14 438 -4 396 -14 b 161 62 269 -14 206 11 b 94 301 117 113 94 193 l 94 734 l 228 734 l 228 300 b 262 138 228 222 239 168 b 370 94 286 109 321 94 b 488 123 418 94 457 104 b 558 205 519 142 542 170 l 558 734 l 692 734 l 692 0 l 572 0 l 563 109 m 153 880 l 153 979 l 642 979 l 642 880 "},"Ŭ":{"ha":940,"x_min":0,"x_max":0,"o":"m 844 332 b 738 77 844 223 808 138 b 465 -14 667 16 576 -14 b 202 78 358 -14 270 16 b 100 332 134 139 100 224 l 100 987 l 233 987 l 233 332 b 298 154 233 256 255 197 b 465 90 341 112 397 90 b 642 154 538 90 596 112 b 710 332 687 197 710 256 l 710 987 l 844 987 m 673 1264 b 621 1136 675 1212 658 1169 b 473 1086 585 1103 535 1086 b 325 1136 411 1086 361 1103 b 273 1264 288 1169 271 1212 l 275 1268 l 377 1268 b 400 1196 377 1238 385 1214 b 473 1168 415 1177 440 1168 b 546 1196 506 1168 530 1177 b 570 1268 562 1215 570 1239 l 672 1268 "},"ŭ":{"ha":789,"x_min":0,"x_max":0,"o":"m 563 109 b 474 18 540 69 510 39 b 349 -14 438 -4 396 -14 b 161 62 269 -14 206 11 b 94 301 117 113 94 193 l 94 734 l 228 734 l 228 300 b 262 138 228 222 239 168 b 370 94 286 109 321 94 b 488 123 418 94 457 104 b 558 205 519 142 542 170 l 558 734 l 692 734 l 692 0 l 572 0 l 563 109 m 594 1031 b 542 903 596 979 578 936 b 394 854 505 870 456 854 b 245 903 332 854 282 870 b 194 1031 209 936 192 979 l 195 1036 l 298 1036 b 321 963 298 1006 305 982 b 394 935 336 944 361 935 b 467 963 427 935 451 945 b 490 1036 482 982 490 1006 l 593 1036 "},"Ů":{"ha":940,"x_min":0,"x_max":0,"o":"m 844 332 b 738 77 844 223 808 138 b 465 -14 667 16 576 -14 b 202 78 358 -14 270 16 b 100 332 134 139 100 224 l 100 987 l 233 987 l 233 332 b 298 154 233 256 255 197 b 465 90 341 112 397 90 b 642 154 538 90 596 112 b 710 332 687 197 710 256 l 710 987 l 844 987 m 353 1176 b 388 1258 353 1208 364 1236 b 472 1291 411 1280 439 1291 b 555 1258 505 1291 532 1280 b 589 1176 578 1236 589 1208 b 555 1096 589 1143 578 1116 b 472 1065 532 1075 505 1065 b 387 1096 439 1065 410 1075 b 353 1176 364 1117 353 1143 m 420 1176 b 436 1140 420 1162 426 1150 b 472 1126 446 1131 458 1126 b 507 1140 486 1126 497 1131 b 522 1176 517 1149 522 1161 b 507 1213 522 1190 517 1203 b 472 1228 497 1223 486 1228 b 435 1213 458 1228 445 1223 b 420 1176 425 1203 420 1190 "},"ů":{"ha":789,"x_min":0,"x_max":0,"o":"m 563 109 b 474 18 540 69 510 39 b 349 -14 438 -4 396 -14 b 161 62 269 -14 206 11 b 94 301 117 113 94 193 l 94 734 l 228 734 l 228 300 b 262 138 228 222 239 168 b 370 94 286 109 321 94 b 488 123 418 94 457 104 b 558 205 519 142 542 170 l 558 734 l 692 734 l 692 0 l 572 0 l 563 109 m 273 943 b 308 1025 273 976 285 1003 b 393 1058 332 1047 360 1058 b 476 1025 425 1058 453 1047 b 510 943 499 1003 510 976 b 476 863 510 910 499 884 b 393 832 453 842 425 832 b 308 863 359 832 331 843 b 273 943 285 884 273 911 m 341 943 b 356 908 341 929 346 917 b 393 893 367 898 379 893 b 428 907 406 893 418 898 b 442 943 437 917 442 929 b 428 980 442 958 437 970 b 393 996 418 990 406 996 b 356 980 378 996 366 990 b 341 943 346 970 341 958 "},"Ű":{"ha":940,"x_min":0,"x_max":0,"o":"m 844 332 b 738 77 844 223 808 138 b 465 -14 667 16 576 -14 b 202 78 358 -14 270 16 b 100 332 134 139 100 224 l 100 987 l 233 987 l 233 332 b 298 154 233 256 255 197 b 465 90 341 112 397 90 b 642 154 538 90 596 112 b 710 332 687 197 710 256 l 710 987 l 844 987 m 814 1266 l 816 1262 l 612 1086 l 496 1086 l 495 1089 l 659 1266 m 581 1266 l 582 1263 l 419 1086 l 313 1086 l 437 1266 "},"ű":{"ha":789,"x_min":0,"x_max":0,"o":"m 563 109 b 474 18 540 69 510 39 b 349 -14 438 -4 396 -14 b 161 62 269 -14 206 11 b 94 301 117 113 94 193 l 94 734 l 228 734 l 228 300 b 262 138 228 222 239 168 b 370 94 286 109 321 94 b 488 123 418 94 457 104 b 558 205 519 142 542 170 l 558 734 l 692 734 l 692 0 l 572 0 l 563 109 m 734 1034 l 736 1029 l 533 853 l 417 853 l 416 857 l 579 1034 m 501 1034 l 503 1030 l 340 853 l 233 853 l 358 1034 "},"Ų":{"ha":940,"x_min":0,"x_max":0,"o":"m 844 332 b 738 77 844 223 808 138 b 465 -14 667 16 576 -14 b 202 78 358 -14 270 16 b 100 332 134 139 100 224 l 100 987 l 233 987 l 233 332 b 298 154 233 256 255 197 b 465 90 341 112 397 90 b 642 154 538 90 596 112 b 710 332 687 197 710 256 l 710 987 l 844 987 m 551 0 b 477 -67 520 -24 495 -46 b 450 -136 459 -89 450 -112 b 466 -181 450 -155 455 -170 b 515 -197 476 -192 492 -197 b 549 -192 528 -197 539 -196 b 583 -180 560 -189 571 -185 l 605 -263 b 551 -284 589 -272 571 -279 b 481 -293 531 -290 508 -293 b 375 -256 438 -293 403 -281 b 334 -151 348 -231 334 -196 b 375 -48 334 -115 348 -81 b 503 39 403 -16 445 13 l 551 0 "},"ų":{"ha":789,"x_min":0,"x_max":0,"o":"m 563 109 b 474 18 540 69 510 39 b 349 -14 438 -4 396 -14 b 161 62 269 -14 206 11 b 94 301 117 113 94 193 l 94 734 l 228 734 l 228 300 b 262 138 228 222 239 168 b 370 94 286 109 321 94 b 488 123 418 94 457 104 b 558 205 519 142 542 170 l 558 734 l 692 734 l 692 0 l 572 0 l 563 109 m 675 0 b 601 -67 643 -24 618 -46 b 574 -136 583 -89 574 -112 b 589 -181 574 -155 579 -170 b 639 -197 599 -192 616 -197 b 673 -192 651 -197 662 -196 b 706 -180 683 -189 694 -185 l 728 -263 b 674 -284 712 -272 694 -279 b 604 -293 655 -290 631 -293 b 499 -256 561 -293 526 -281 b 458 -151 471 -231 458 -196 b 499 -48 458 -115 471 -81 b 626 39 526 -16 569 13 l 675 0 "},"Ŵ":{"ha":1196,"x_min":0,"x_max":0,"o":"m 330 213 l 334 212 l 357 342 l 532 987 l 663 987 l 840 342 l 863 210 l 867 210 l 885 342 l 1026 987 l 1171 987 l 932 0 l 813 0 l 616 685 l 601 774 l 597 774 l 583 685 l 382 0 l 263 0 l 25 987 l 170 987 l 313 342 m 806 1086 l 697 1086 l 597 1186 l 498 1086 l 390 1086 l 390 1103 l 557 1264 l 638 1264 l 806 1103 "},"ŵ":{"ha":1051,"x_min":0,"x_max":0,"o":"m 302 173 l 306 173 l 323 267 l 470 734 l 577 734 l 724 267 l 743 162 l 747 162 l 769 267 l 878 734 l 1017 734 l 804 0 l 696 0 l 551 447 l 524 564 l 519 564 l 494 447 l 351 0 l 243 0 l 31 734 l 170 734 l 285 267 m 733 853 l 624 853 l 524 954 l 425 853 l 317 853 l 317 871 l 484 1031 l 565 1031 l 733 870 "},"Ŷ":{"ha":878,"x_min":0,"x_max":0,"o":"m 695 987 l 848 987 l 501 347 l 501 0 l 368 0 l 368 357 l 27 987 l 180 987 l 437 486 m 647 1085 l 538 1085 l 438 1185 l 339 1085 l 231 1085 l 231 1103 l 397 1263 l 479 1263 l 647 1102 "},"ŷ":{"ha":699,"x_min":0,"x_max":0,"o":"m 345 180 l 349 180 l 530 734 l 678 734 l 370 -113 b 290 -241 351 -162 325 -205 b 150 -296 255 -278 209 -296 b 109 -293 139 -296 125 -295 b 70 -286 92 -290 79 -288 l 83 -180 b 107 -182 81 -180 89 -180 b 143 -184 126 -183 138 -184 b 213 -146 172 -184 195 -171 b 258 -62 231 -120 246 -92 l 290 15 l 18 734 l 167 734 l 321 272 m 557 853 l 448 853 l 349 954 l 250 853 l 141 853 l 141 871 l 308 1031 l 389 1031 l 557 870 "},"Ÿ":{"ha":878,"x_min":0,"x_max":0,"o":"m 695 987 l 848 987 l 501 347 l 501 0 l 368 0 l 368 357 l 27 987 l 180 987 l 437 486 m 524 1088 l 524 1223 l 672 1223 l 672 1088 m 205 1088 l 205 1223 l 353 1223 l 353 1088 "},"Ź":{"ha":831,"x_min":0,"x_max":0,"o":"m 768 104 l 768 0 l 66 0 l 66 99 l 593 882 l 73 882 l 73 987 l 746 987 l 746 892 l 216 104 m 633 1263 l 635 1259 l 452 1083 l 352 1083 l 477 1263 "},"ź":{"ha":699,"x_min":0,"x_max":0,"o":"m 647 104 l 647 0 l 64 0 l 64 94 l 460 628 l 68 628 l 68 734 l 624 734 l 624 643 l 223 104 m 576 1031 l 577 1027 l 395 850 l 294 850 l 420 1031 "},"Ż":{"ha":831,"x_min":0,"x_max":0,"o":"m 768 104 l 768 0 l 66 0 l 66 99 l 593 882 l 73 882 l 73 987 l 746 987 l 746 892 l 216 104 m 339 1088 l 339 1224 l 487 1224 l 487 1088 "},"ż":{"ha":699,"x_min":0,"x_max":0,"o":"m 647 104 l 647 0 l 64 0 l 64 94 l 460 628 l 68 628 l 68 734 l 624 734 l 624 643 l 223 104 m 281 855 l 281 991 l 429 991 l 429 855 "},"Ž":{"ha":831,"x_min":0,"x_max":0,"o":"m 768 104 l 768 0 l 66 0 l 66 99 l 593 882 l 73 882 l 73 987 l 746 987 l 746 892 l 216 104 m 512 1265 l 627 1265 l 627 1253 l 453 1086 l 372 1086 l 200 1251 l 200 1265 l 313 1265 l 412 1164 "},"ž":{"ha":699,"x_min":0,"x_max":0,"o":"m 647 104 l 647 0 l 64 0 l 64 94 l 460 628 l 68 628 l 68 734 l 624 734 l 624 643 l 223 104 m 454 1032 l 570 1032 l 570 1020 l 395 854 l 315 854 l 142 1019 l 142 1032 l 255 1032 l 355 932 "},"ſ":{"ha":350,"x_min":0,"x_max":0,"o":"m 108 827 b 170 1008 108 905 128 965 b 341 1072 211 1051 268 1072 b 387 1068 356 1072 371 1071 b 439 1058 402 1066 420 1062 l 422 960 b 394 965 413 962 404 964 b 362 967 384 966 373 967 b 272 930 323 967 293 955 b 241 827 252 905 241 871 l 241 0 l 108 0 "},"ƒ":{"ha":476,"x_min":0,"x_max":0,"o":"m 280 635 l 280 -60 b 222 -235 280 -136 261 -194 b 60 -296 183 -276 129 -296 b 20 -293 45 -296 32 -295 b -16 -284 9 -291 -3 -288 l -6 -182 b 25 -189 -1 -185 10 -187 b 60 -191 40 -190 52 -191 b 123 -156 87 -191 108 -180 b 146 -60 139 -133 146 -101 l 146 635 l 32 635 l 32 734 l 146 734 l 146 827 b 208 1008 146 905 167 965 b 379 1072 249 1051 306 1072 b 426 1068 394 1072 410 1071 b 477 1058 441 1066 458 1062 l 461 956 b 432 961 453 958 443 960 b 396 963 420 962 408 963 b 309 928 357 963 328 951 b 280 827 290 905 280 871 l 280 734 l 413 734 l 413 635 "},"Ơ":{"ha":951,"x_min":0,"x_max":0,"o":"m 866 406 b 754 105 866 285 829 185 b 463 -14 679 26 582 -14 b 181 105 347 -14 254 26 b 73 406 109 185 73 285 l 73 581 b 181 882 73 701 109 802 b 463 1002 254 962 347 1002 b 614 975 517 1002 567 993 b 737 898 660 956 701 931 b 864 963 793 903 835 925 b 907 1121 893 1002 907 1055 l 1041 1121 b 981 908 1041 1034 1021 963 b 812 802 942 853 885 818 b 852 697 829 769 842 735 b 866 581 861 660 866 621 l 866 406 m 732 583 b 659 805 732 673 708 747 b 463 892 610 863 545 892 b 276 805 385 892 323 863 b 207 583 230 747 207 673 l 207 406 b 276 182 207 314 230 240 b 463 95 323 124 385 95 b 660 181 545 95 611 124 b 732 406 708 239 732 314 l 732 583 "},"ơ":{"ha":797,"x_min":0,"x_max":0,"o":"m 66 374 b 154 642 66 482 95 572 b 393 747 213 712 293 747 b 520 724 439 747 482 739 b 621 657 559 708 592 686 b 704 714 658 665 686 684 b 731 829 722 744 731 782 l 852 829 b 807 669 852 765 837 711 b 674 583 777 626 732 598 b 710 485 690 553 702 521 b 723 374 719 450 723 413 l 723 359 b 635 90 723 249 694 160 b 395 -14 576 21 496 -14 b 154 91 293 -14 213 21 b 66 359 95 160 66 250 l 66 374 m 199 359 b 249 166 199 281 216 217 b 395 90 281 116 330 90 b 540 166 458 90 507 116 b 589 359 573 217 589 281 l 589 374 b 539 566 589 451 573 515 b 393 642 506 617 458 642 b 249 566 330 642 281 617 b 199 374 216 515 199 451 l 199 359 "},"Ư":{"ha":970,"x_min":0,"x_max":0,"o":"m 844 867 l 848 865 b 937 939 887 878 916 902 b 968 1079 958 976 968 1022 l 1097 1079 l 1099 1076 b 1034 862 1100 988 1079 917 b 844 757 990 807 926 772 l 844 332 b 738 77 844 223 808 138 b 465 -14 667 16 576 -14 b 202 78 358 -14 270 16 b 100 332 134 139 100 224 l 100 987 l 233 987 l 233 332 b 298 154 233 256 255 197 b 465 90 341 112 397 90 b 642 154 538 90 596 112 b 710 332 687 197 710 256 l 710 987 l 844 987 "},"ư":{"ha":817,"x_min":0,"x_max":0,"o":"m 938 828 b 880 643 939 748 920 686 b 692 568 840 600 777 575 l 692 0 l 572 0 l 563 109 b 474 18 540 69 510 39 b 349 -14 438 -4 396 -14 b 161 62 269 -14 206 11 b 94 301 117 113 94 193 l 94 734 l 228 734 l 228 300 b 262 138 228 222 239 168 b 370 94 286 109 321 94 b 488 123 418 94 457 104 b 558 205 519 142 542 170 l 558 734 l 692 734 l 692 656 l 696 655 b 792 703 741 658 773 674 b 821 832 812 732 821 775 l 936 832 "},"ǰ":{"ha":355,"x_min":0,"x_max":0,"o":"m 250 -60 b 191 -235 250 -136 230 -194 b 29 -296 152 -276 98 -296 b -9 -293 15 -296 2 -295 b -46 -284 -21 -291 -33 -288 l -37 -182 b -5 -189 -30 -185 -20 -187 b 29 -191 10 -190 21 -191 b 93 -156 56 -191 77 -180 b 116 -60 108 -133 116 -101 l 116 734 l 250 734 m 283 1019 l 398 1019 l 398 1007 l 224 841 l 143 841 l -29 1006 l -29 1019 l 83 1019 l 183 919 "},"Ǻ":{"ha":878,"x_min":0,"x_max":0,"o":"m 254 254 l 165 0 l 29 0 l 385 987 l 500 987 l 848 0 l 712 0 l 625 254 m 587 366 l 444 790 l 439 790 l 292 366 m 642 1414 l 644 1410 l 497 1289 l 410 1289 l 507 1414 m 323 1142 b 357 1223 323 1175 334 1202 b 441 1255 380 1245 408 1255 b 523 1223 473 1255 500 1245 b 557 1142 545 1202 557 1175 b 523 1062 557 1109 546 1083 b 441 1031 501 1041 474 1031 b 357 1062 408 1031 380 1041 b 323 1142 334 1083 323 1109 m 382 1142 b 400 1102 382 1126 388 1113 b 441 1085 411 1091 425 1085 b 481 1101 457 1085 470 1090 b 498 1142 492 1112 498 1126 b 481 1184 498 1159 492 1173 b 441 1202 470 1196 457 1202 b 400 1184 425 1202 411 1196 b 382 1142 388 1173 382 1159 "},"ǻ":{"ha":764,"x_min":0,"x_max":0,"o":"m 548 0 b 537 59 543 22 540 42 b 533 110 535 76 533 93 b 436 21 508 75 476 45 b 307 -14 396 -2 353 -14 b 132 44 230 -14 172 5 b 72 206 92 84 72 137 b 157 371 72 276 100 331 b 388 430 214 410 291 430 l 533 430 l 533 503 b 494 605 533 545 520 579 b 382 642 467 630 430 642 b 277 610 339 642 304 631 b 237 532 251 588 237 562 l 111 530 l 109 534 b 184 681 106 588 131 637 b 390 747 237 725 306 747 b 591 684 473 747 540 726 b 667 501 641 642 667 581 l 667 148 b 671 72 667 122 668 96 b 686 0 673 47 678 24 l 548 0 m 326 98 b 457 135 375 98 418 110 b 533 220 496 160 521 188 l 533 340 l 383 340 b 254 299 329 340 286 326 b 205 203 222 272 205 240 b 236 126 205 171 216 145 b 326 98 256 107 286 98 m 579 1196 l 581 1192 l 434 1070 l 347 1070 l 444 1196 m 260 924 b 294 1005 260 956 271 983 b 378 1037 317 1026 345 1037 b 460 1005 410 1037 437 1026 b 494 924 482 983 494 956 b 460 844 494 891 483 864 b 378 812 438 823 411 812 b 294 844 345 812 317 823 b 260 924 271 864 260 891 m 319 924 b 337 883 319 908 325 894 b 378 867 348 872 362 867 b 418 883 394 867 407 872 b 435 924 429 894 435 907 b 418 966 435 940 429 955 b 378 983 407 978 394 983 b 337 966 362 983 348 978 b 319 924 325 955 319 940 "},"Ǽ":{"ha":1356,"x_min":0,"x_max":0,"o":"m 698 0 l 688 237 l 310 237 l 174 0 l 9 0 l 607 987 l 1263 987 l 1263 882 l 794 882 l 808 566 l 1208 566 l 1208 461 l 812 461 l 827 104 l 1305 104 l 1305 0 m 683 359 l 662 840 l 659 842 l 380 359 m 879 1263 l 880 1259 l 698 1083 l 597 1083 l 723 1263 "},"ǽ":{"ha":1213,"x_min":0,"x_max":0,"o":"m 876 -14 b 713 19 815 -14 760 -3 b 598 113 666 41 628 72 b 485 22 573 77 535 47 b 300 -14 434 -2 373 -14 b 122 45 224 -14 164 5 b 60 206 81 84 60 138 b 138 371 60 277 86 332 b 365 429 190 410 265 429 l 520 429 l 520 488 b 485 601 520 536 508 574 b 384 642 461 629 428 642 b 273 605 337 642 300 630 b 231 515 245 580 231 550 l 104 527 l 102 531 b 177 686 100 593 125 645 b 384 747 229 727 298 747 b 520 720 435 747 481 738 b 614 640 560 702 591 675 b 716 719 643 674 677 700 b 844 747 756 738 799 747 b 1068 659 941 747 1016 718 b 1146 416 1120 600 1146 519 l 1146 336 l 665 336 l 664 332 b 718 157 664 260 682 202 b 876 90 753 113 806 90 b 991 109 923 90 961 96 b 1089 162 1021 121 1054 139 l 1135 68 b 1035 12 1111 49 1077 30 b 876 -14 992 -5 939 -14 m 327 90 b 435 120 361 90 397 100 b 520 188 472 139 501 162 l 520 333 l 366 333 b 239 295 312 333 270 320 b 193 203 209 270 193 240 b 227 122 193 170 205 143 b 327 90 250 101 283 90 m 844 642 b 721 585 793 642 752 623 b 667 437 690 547 672 498 l 668 434 l 1013 434 l 1013 455 b 972 590 1013 510 999 555 b 844 642 945 625 902 642 m 823 1046 l 825 1042 l 642 865 l 542 865 l 667 1046 "},"Ǿ":{"ha":947,"x_min":0,"x_max":0,"o":"m 869 406 b 757 105 869 285 832 185 b 466 -14 682 26 585 -14 b 357 0 427 -14 391 -10 b 262 41 323 9 291 23 l 201 -64 l 100 -64 l 194 95 b 107 232 156 133 127 179 b 77 406 87 285 77 343 l 77 581 b 185 882 77 701 113 802 b 466 1002 257 962 351 1002 b 587 984 508 1002 549 996 b 693 936 625 973 661 957 l 748 1029 l 849 1029 l 760 879 b 841 745 794 841 821 796 b 869 581 860 694 869 640 l 869 406 m 210 406 b 223 298 210 367 215 331 b 260 214 232 265 244 237 l 264 213 l 633 834 b 557 877 610 853 585 867 b 466 892 529 887 498 892 b 280 805 388 892 326 863 b 210 583 233 747 210 673 l 210 406 m 736 583 b 725 679 736 616 732 649 b 693 758 717 709 707 736 l 689 759 l 322 141 b 388 106 342 126 364 114 b 466 95 412 99 438 95 b 663 181 549 95 614 124 b 736 406 712 239 736 314 l 736 583 m 694 1305 l 695 1301 l 513 1125 l 412 1125 l 538 1305 "},"ǿ":{"ha":789,"x_min":0,"x_max":0,"o":"m 66 374 b 154 642 66 482 95 572 b 393 747 213 712 293 747 b 466 740 419 747 443 745 b 532 719 490 735 512 728 l 583 820 l 670 820 l 600 677 b 691 548 639 643 670 600 b 723 374 712 496 723 437 l 723 359 b 635 90 723 249 694 160 b 395 -14 576 21 496 -14 b 329 -8 372 -14 350 -12 b 269 8 308 -5 288 1 l 220 -92 l 133 -92 l 201 47 b 101 176 157 79 124 122 b 66 359 77 231 66 291 l 66 374 m 199 359 b 213 246 199 318 204 280 b 254 162 222 212 236 184 l 258 162 l 484 619 b 441 636 470 626 456 632 b 393 642 426 640 410 642 b 249 566 330 642 281 617 b 199 374 216 515 199 451 l 199 359 m 589 374 b 577 476 589 410 585 444 b 544 555 570 508 558 534 l 540 555 l 318 106 b 353 94 329 100 341 96 b 395 90 366 91 380 90 b 540 166 458 90 507 116 b 589 359 573 217 589 281 l 589 374 m 586 1044 l 587 1040 l 405 864 l 304 864 l 430 1044 "},"Ș":{"ha":849,"x_min":0,"x_max":0,"o":"m 642 249 b 593 361 642 294 625 331 b 424 439 561 392 505 418 b 189 549 323 464 245 500 b 104 731 133 597 104 658 b 195 924 104 808 135 873 b 431 1002 256 976 335 1002 b 680 913 535 1002 618 972 b 770 707 742 854 772 785 l 768 703 l 640 703 b 582 842 640 759 621 805 b 431 897 542 878 492 897 b 288 851 369 897 321 881 b 238 733 255 821 238 781 b 293 626 238 690 256 654 b 470 550 329 597 388 572 b 697 436 569 524 645 486 b 775 250 749 386 775 324 b 681 58 775 171 744 107 b 436 -14 619 10 537 -14 b 183 66 341 -14 256 12 b 77 280 110 119 75 191 l 79 284 l 206 284 b 277 141 206 222 230 174 b 436 90 324 107 377 90 b 586 133 499 90 549 104 b 642 249 623 161 642 200 m 389 -336 l 323 -336 l 365 -170 l 365 -81 l 472 -81 l 472 -176 "},"ș":{"ha":726,"x_min":0,"x_max":0,"o":"m 524 197 b 490 269 524 227 512 251 b 363 318 468 288 425 304 b 164 396 276 337 210 363 b 94 530 117 430 94 474 b 171 684 94 590 120 641 b 368 747 221 726 287 747 b 570 680 451 747 519 725 b 644 522 622 634 647 582 l 643 517 l 515 517 b 474 604 515 549 502 578 b 368 642 446 629 411 642 b 263 610 321 642 286 632 b 228 534 240 589 228 564 b 258 467 228 505 238 483 b 382 424 278 451 320 437 b 587 343 472 405 541 378 b 657 207 634 308 657 263 b 578 47 657 142 631 89 b 372 -14 525 6 457 -14 b 151 57 278 -14 204 9 b 74 223 97 104 71 160 l 75 227 l 203 227 b 256 123 205 180 223 145 b 372 90 289 101 327 90 b 483 120 419 90 456 100 b 524 197 510 140 524 166 m 328 -336 l 262 -336 l 304 -169 l 304 -80 l 411 -80 l 411 -175 "},"ȷ":{"ha":355,"x_min":0,"x_max":0,"o":"m 250 -60 b 191 -235 250 -136 230 -194 b 29 -296 152 -276 98 -296 b -9 -293 15 -296 2 -295 b -46 -284 -21 -291 -33 -288 l -37 -182 b -5 -189 -30 -185 -20 -187 b 29 -191 10 -190 21 -191 b 93 -156 56 -191 77 -180 b 116 -60 108 -133 116 -101 l 116 734 l 250 734 "},"ʼ":{"ha":350,"x_min":0,"x_max":0,"o":"m 174 622 l 109 622 l 109 854 l 109 987 l 243 987 l 243 857 "},"ˆ":{"ha":664,"x_min":0,"x_max":0,"o":"m 532 849 l 423 849 l 323 949 l 224 849 l 116 849 l 116 867 l 283 1027 l 364 1027 l 532 866 "},"ˇ":{"ha":625,"x_min":0,"x_max":0,"o":"m 407 1027 l 522 1027 l 522 1015 l 348 849 l 267 849 l 95 1014 l 95 1027 l 208 1027 l 307 927 "},"˘":{"ha":594,"x_min":0,"x_max":0,"o":"m 491 983 b 439 855 493 931 475 888 b 291 806 402 822 353 806 b 142 855 229 806 179 822 b 91 983 106 888 89 931 l 92 987 l 195 987 b 218 915 195 958 202 933 b 291 887 233 896 257 887 b 363 915 323 887 348 896 b 387 987 379 934 387 958 l 490 987 "},"˙":{"ha":377,"x_min":0,"x_max":0,"o":"m 109 851 l 109 987 l 256 987 l 256 851 "},"˚":{"ha":472,"x_min":0,"x_max":0,"o":"m 112 887 b 147 969 112 920 124 947 b 231 1002 170 991 198 1002 b 314 969 264 1002 291 991 b 349 887 337 947 349 920 b 314 807 349 854 337 827 b 231 776 291 786 264 776 b 146 807 198 776 170 786 b 112 887 123 828 112 854 m 180 887 b 195 851 180 873 185 861 b 231 837 205 842 217 837 b 266 851 245 837 256 842 b 281 887 276 861 281 873 b 266 924 281 902 276 914 b 231 939 256 934 245 939 b 195 924 217 939 205 934 b 180 887 185 914 180 902 "},"˛":{"ha":381,"x_min":0,"x_max":0,"o":"m 263 0 b 189 -67 231 -24 207 -46 b 162 -136 171 -89 162 -112 b 177 -181 162 -155 167 -170 b 227 -197 188 -192 204 -197 b 261 -192 239 -197 251 -196 b 294 -180 271 -189 283 -185 l 317 -263 b 263 -284 300 -272 282 -279 b 193 -293 243 -290 220 -293 b 87 -256 150 -293 114 -281 b 46 -151 60 -231 46 -196 b 87 -48 46 -115 60 -81 b 214 39 114 -16 157 13 l 263 0 "},"˜":{"ha":664,"x_min":0,"x_max":0,"o":"m 562 1011 b 522 903 562 969 549 933 b 420 859 495 874 461 859 b 320 891 388 859 355 870 b 233 922 285 912 256 922 b 184 900 214 922 198 915 b 165 847 171 886 165 868 l 92 865 b 132 974 92 907 105 943 b 233 1021 158 1005 192 1021 b 328 989 259 1021 290 1010 b 420 957 366 968 397 957 b 469 979 439 957 455 964 b 489 1033 482 994 489 1012 l 562 1011 "},"˝":{"ha":517,"x_min":0,"x_max":0,"o":"m 569 1029 l 571 1025 l 368 849 l 252 849 l 250 852 l 414 1029 m 336 1029 l 337 1026 l 174 849 l 68 849 l 193 1029 "},"˳":{"ha":456,"x_min":0,"x_max":0,"o":"m 123 -159 b 154 -86 123 -129 134 -105 b 230 -57 175 -67 200 -57 b 303 -86 258 -57 283 -67 b 334 -159 323 -105 334 -129 b 303 -229 334 -187 324 -211 b 230 -257 283 -248 259 -257 b 154 -229 200 -257 175 -248 b 123 -159 134 -211 123 -187 m 184 -159 b 197 -189 184 -170 188 -181 b 230 -202 206 -198 217 -202 b 260 -190 242 -202 252 -198 b 273 -159 269 -181 273 -171 b 260 -125 273 -145 269 -134 b 230 -112 252 -116 242 -112 b 197 -125 217 -112 206 -116 b 184 -159 188 -135 184 -146 "},"̀":{"ha":0,"x_min":0,"x_max":0,"o":"m -420 857 l -538 1090 l -537 1095 l -428 1095 l -345 857 "},"́":{"ha":0,"x_min":0,"x_max":0,"o":"m -241 1096 l -240 1091 l -365 857 l -433 857 l -347 1096 "},"̃":{"ha":0,"x_min":0,"x_max":0,"o":"m -129 1011 b -169 903 -129 969 -142 933 b -271 859 -196 874 -230 859 b -371 891 -303 859 -336 870 b -458 922 -406 912 -435 922 b -507 900 -477 922 -493 915 b -526 847 -520 886 -526 868 l -600 865 b -559 974 -600 907 -586 943 b -458 1021 -533 1005 -499 1021 b -363 989 -432 1021 -401 1010 b -271 957 -325 968 -294 957 b -222 979 -252 957 -236 964 b -202 1033 -209 994 -202 1012 l -129 1011 "},"̉":{"ha":0,"x_min":0,"x_max":0,"o":"m -446 947 b -373 960 -412 949 -387 953 b -351 996 -358 968 -351 980 b -380 1036 -351 1014 -360 1027 b -459 1048 -400 1044 -426 1048 l -454 1122 b -301 1087 -388 1122 -337 1110 b -248 994 -265 1063 -248 1032 b -277 921 -248 962 -257 938 b -350 890 -296 905 -321 895 l -351 842 l -446 842 "},"̏":{"ha":0,"x_min":0,"x_max":0,"o":"m -345 849 l -461 849 l -665 1025 l -663 1029 l -507 1029 l -344 852 m -268 849 l -431 1026 l -430 1029 l -286 1029 l -161 849 "},"̣":{"ha":0,"x_min":0,"x_max":0,"o":"m -480 -229 l -480 -93 l -332 -93 l -332 -229 "},"΄":{"ha":357,"x_min":0,"x_max":0,"o":"m 301 1046 l 196 863 l 140 863 l 160 1046 "},"΅":{"ha":709,"x_min":0,"x_max":0,"o":"m 454 852 l 454 987 l 589 987 l 589 852 m 109 852 l 109 987 l 243 987 l 243 852 m 485 1173 l 399 996 l 302 996 l 337 1173 "},"Ά":{"ha":878,"x_min":0,"x_max":0,"o":"m 254 254 l 165 0 l 29 0 l 385 987 l 500 987 l 848 0 l 712 0 l 625 254 m 587 366 l 444 790 l 439 790 l 292 366 m 296 1046 l 191 863 l 135 863 l 155 1046 "},"·":{"ha":367,"x_min":0,"x_max":0,"o":"m 109 423 l 109 567 l 243 567 l 243 423 "},"Έ":{"ha":766,"x_min":0,"x_max":0,"o":"m 249 458 l 249 104 l 724 104 l 724 0 l 115 0 l 115 987 l 716 987 l 716 882 l 249 882 l 249 563 l 654 563 l 654 458 m 75 1048 l -31 864 l -87 864 l -66 1048 "},"Ή":{"ha":977,"x_min":0,"x_max":0,"o":"m 728 0 l 728 436 l 249 436 l 249 0 l 115 0 l 115 987 l 249 987 l 249 541 l 728 541 l 728 987 l 862 987 l 862 0 m 108 1048 l 3 864 l -54 864 l -33 1048 "},"Ί":{"ha":393,"x_min":0,"x_max":0,"o":"m 129 0 l 129 987 l 263 987 l 263 0 m 117 1047 l 12 863 l -44 863 l -24 1047 "},"Ό":{"ha":947,"x_min":0,"x_max":0,"o":"m 869 406 b 757 105 869 285 832 185 b 466 -14 682 26 585 -14 b 185 105 351 -14 257 26 b 77 406 113 185 77 285 l 77 581 b 185 882 77 701 113 802 b 466 1002 257 962 351 1002 b 757 882 585 1002 682 962 b 869 581 832 802 869 702 l 869 406 m 736 583 b 663 805 736 673 711 747 b 466 892 614 863 548 892 b 280 805 388 892 326 863 b 210 583 233 747 210 673 l 210 406 b 280 182 210 314 233 240 b 466 95 326 124 388 95 b 663 181 549 95 614 124 b 736 406 712 239 736 314 l 736 583 m 202 1046 l 97 863 l 41 863 l 61 1046 "},"Ύ":{"ha":878,"x_min":0,"x_max":0,"o":"m 695 987 l 848 987 l 501 347 l 501 0 l 368 0 l 368 357 l 27 987 l 180 987 l 437 486 m 28 1046 l -77 863 l -133 863 l -113 1046 "},"Ώ":{"ha":926,"x_min":0,"x_max":0,"o":"m 498 108 b 647 222 562 119 612 157 b 701 490 683 287 701 376 l 701 570 b 635 812 701 675 679 756 b 454 897 591 868 531 897 b 275 812 378 897 318 868 b 210 570 231 756 210 675 l 210 490 b 264 222 210 376 228 287 b 416 108 301 157 351 119 l 416 0 l 80 0 l 80 104 l 252 104 b 123 272 197 146 155 202 b 76 490 92 341 76 414 l 76 568 b 181 881 76 697 111 801 b 454 1002 251 962 342 1002 b 729 881 567 1002 658 962 b 834 568 799 801 834 697 l 834 490 b 787 272 834 414 818 342 b 660 104 756 202 713 146 l 836 104 l 836 0 l 498 0 l 498 108 m 196 1046 l 91 863 l 35 863 l 55 1046 "},"ΐ":{"ha":456,"x_min":0,"x_max":0,"o":"m 267 182 b 285 113 267 149 273 126 b 334 94 297 101 313 94 b 367 99 345 94 356 96 b 395 112 378 103 387 107 l 425 22 b 365 -7 405 8 385 -2 b 298 -14 344 -12 322 -14 b 176 34 245 -14 204 2 b 134 189 148 66 134 118 l 134 733 l 267 733 m 310 802 l 310 938 l 445 938 l 445 802 m -35 802 l -35 938 l 99 938 l 99 802 m 340 1124 l 254 946 l 158 946 l 193 1124 "},"Α":{"ha":878,"x_min":0,"x_max":0,"o":"m 254 254 l 165 0 l 29 0 l 385 987 l 500 987 l 848 0 l 712 0 l 625 254 m 587 366 l 444 790 l 439 790 l 292 366 "},"Β":{"ha":883,"x_min":0,"x_max":0,"o":"m 115 987 l 437 987 b 680 921 541 987 621 965 b 767 720 738 876 767 809 b 728 606 767 678 754 640 b 623 529 701 572 667 547 b 777 445 688 520 739 492 b 833 279 815 398 833 342 b 745 72 833 188 804 119 b 507 0 687 24 607 0 l 115 0 m 249 104 l 507 104 b 649 150 568 104 615 119 b 699 277 682 180 699 222 b 648 410 699 332 682 376 b 509 463 613 443 567 461 l 500 463 l 249 463 m 465 568 b 587 609 515 568 555 581 b 633 723 618 636 633 674 b 583 843 633 776 617 816 b 437 882 549 869 501 882 l 249 882 l 249 568 "},"Γ":{"ha":762,"x_min":0,"x_max":0,"o":"m 244 882 l 244 0 l 111 0 l 111 987 l 716 987 l 716 882 "},"Δ":{"ha":981,"x_min":0,"x_max":0,"o":"m 553 987 l 944 0 l 20 0 l 439 987 m 768 104 l 496 817 l 492 817 l 199 104 "},"∆":{"ha":981,"x_min":0,"x_max":0,"o":"m 439 987 l 20 0 l 944 0 l 553 987 m 199 104 l 492 817 l 496 817 l 768 104 "},"Ε":{"ha":766,"x_min":0,"x_max":0,"o":"m 249 458 l 249 104 l 724 104 l 724 0 l 115 0 l 115 987 l 716 987 l 716 882 l 249 882 l 249 563 l 654 563 l 654 458 "},"Ζ":{"ha":831,"x_min":0,"x_max":0,"o":"m 768 104 l 768 0 l 66 0 l 66 99 l 593 882 l 73 882 l 73 987 l 746 987 l 746 892 l 216 104 "},"Η":{"ha":977,"x_min":0,"x_max":0,"o":"m 728 0 l 728 436 l 249 436 l 249 0 l 115 0 l 115 987 l 249 987 l 249 541 l 728 541 l 728 987 l 862 987 l 862 0 "},"Θ":{"ha":947,"x_min":0,"x_max":0,"o":"m 305 447 l 305 551 l 650 551 l 650 447 m 869 406 b 757 105 869 285 832 185 b 466 -14 682 26 585 -14 b 185 105 351 -14 257 26 b 77 406 113 185 77 285 l 77 581 b 185 882 77 701 113 802 b 466 1002 257 962 351 1002 b 757 882 585 1002 682 962 b 869 581 832 802 869 702 l 869 406 m 736 583 b 663 805 736 673 711 747 b 466 892 614 863 548 892 b 280 805 388 892 326 863 b 210 583 233 747 210 673 l 210 406 b 280 182 210 314 233 240 b 466 95 326 124 388 95 b 663 181 549 95 614 124 b 736 406 712 239 736 314 l 736 583 "},"Ι":{"ha":393,"x_min":0,"x_max":0,"o":"m 129 0 l 129 987 l 263 987 l 263 0 "},"Κ":{"ha":883,"x_min":0,"x_max":0,"o":"m 249 446 l 249 0 l 115 0 l 115 987 l 249 987 l 249 551 l 322 551 l 688 987 l 839 987 l 840 984 l 440 517 l 869 3 l 867 0 l 705 0 l 336 446 "},"Λ":{"ha":912,"x_min":0,"x_max":0,"o":"m 451 794 l 170 0 l 33 0 l 395 987 l 511 987 l 873 0 l 736 0 l 455 794 "},"Μ":{"ha":1206,"x_min":0,"x_max":0,"o":"m 609 185 l 924 987 l 1090 987 l 1090 0 l 957 0 l 957 740 l 953 741 l 654 0 l 561 0 l 253 765 l 249 764 l 249 0 l 115 0 l 115 987 l 291 987 l 605 185 "},"Ν":{"ha":978,"x_min":0,"x_max":0,"o":"m 728 0 l 253 754 l 249 753 l 249 0 l 115 0 l 115 987 l 249 987 l 724 234 l 728 235 l 728 987 l 862 987 l 862 0 "},"Ξ":{"ha":795,"x_min":0,"x_max":0,"o":"m 719 104 l 719 0 l 83 0 l 83 104 m 656 565 l 656 460 l 140 460 l 140 565 m 711 987 l 711 882 l 84 882 l 84 987 "},"Ο":{"ha":947,"x_min":0,"x_max":0,"o":"m 869 406 b 757 105 869 285 832 185 b 466 -14 682 26 585 -14 b 185 105 351 -14 257 26 b 77 406 113 185 77 285 l 77 581 b 185 882 77 701 113 802 b 466 1002 257 962 351 1002 b 757 882 585 1002 682 962 b 869 581 832 802 869 702 l 869 406 m 736 583 b 663 805 736 673 711 747 b 466 892 614 863 548 892 b 280 805 388 892 326 863 b 210 583 233 747 210 673 l 210 406 b 280 182 210 314 233 240 b 466 95 326 124 388 95 b 663 181 549 95 614 124 b 736 406 712 239 736 314 l 736 583 "},"Π":{"ha":976,"x_min":0,"x_max":0,"o":"m 728 0 l 728 882 l 248 882 l 248 0 l 114 0 l 114 987 l 862 987 l 862 0 "},"Ρ":{"ha":883,"x_min":0,"x_max":0,"o":"m 249 0 l 115 0 l 115 987 l 493 987 b 739 906 598 987 680 960 b 827 692 797 852 827 780 b 739 477 827 602 797 531 b 493 396 680 423 598 396 l 249 396 m 493 500 b 643 554 560 500 610 518 b 692 690 676 590 692 636 b 643 827 692 745 676 791 b 493 882 609 864 559 882 l 249 882 l 249 500 "},"Σ":{"ha":795,"x_min":0,"x_max":0,"o":"m 212 109 l 214 105 l 743 105 l 743 0 l 47 0 l 47 100 l 373 494 l 47 888 l 47 987 l 709 987 l 709 882 l 214 882 l 212 879 l 514 501 l 514 485 "},"Τ":{"ha":831,"x_min":0,"x_max":0,"o":"m 480 882 l 480 0 l 347 0 l 347 882 l 25 882 l 25 987 l 806 987 l 806 882 "},"Υ":{"ha":878,"x_min":0,"x_max":0,"o":"m 695 987 l 848 987 l 501 347 l 501 0 l 368 0 l 368 357 l 27 987 l 180 987 l 437 486 "},"Φ":{"ha":976,"x_min":0,"x_max":0,"o":"m 556 833 b 816 734 660 831 747 798 b 920 490 886 670 920 589 b 816 244 920 390 886 308 b 556 144 747 179 660 146 l 556 0 l 422 0 l 422 144 b 161 243 318 146 230 179 b 57 489 92 307 57 389 b 161 734 57 588 92 670 b 422 834 230 799 318 832 l 422 987 l 556 987 l 556 833 m 189 489 b 249 316 189 416 209 359 b 418 254 289 274 346 253 l 422 255 l 422 724 l 418 725 b 250 662 346 725 290 704 b 189 489 209 619 189 561 m 787 490 b 727 662 787 562 767 619 b 560 725 687 704 631 725 l 556 724 l 556 255 l 560 254 b 727 317 631 253 687 274 b 787 490 767 360 787 418 "},"Χ":{"ha":878,"x_min":0,"x_max":0,"o":"m 671 987 l 833 987 l 519 498 l 840 0 l 680 0 l 444 392 l 206 0 l 45 0 l 365 498 l 52 987 l 212 987 l 441 602 "},"Ψ":{"ha":960,"x_min":0,"x_max":0,"o":"m 538 328 b 694 412 603 336 655 364 b 753 600 733 460 753 522 l 753 987 l 886 987 l 886 600 b 789 333 886 489 854 400 b 534 216 725 266 640 227 l 534 0 l 399 0 l 399 217 b 152 334 297 228 214 267 b 59 600 90 401 59 489 l 59 987 l 192 987 l 192 600 b 248 414 192 523 210 461 b 395 329 285 366 334 338 l 399 330 l 399 987 l 534 987 l 534 329 "},"Ω":{"ha":926,"x_min":0,"x_max":0,"o":"m 498 108 b 647 222 562 119 612 157 b 701 490 683 287 701 376 l 701 570 b 635 812 701 675 679 756 b 454 897 591 868 531 897 b 275 812 378 897 318 868 b 210 570 231 756 210 675 l 210 490 b 264 222 210 376 228 287 b 416 108 301 157 351 119 l 416 0 l 80 0 l 80 104 l 252 104 b 123 272 197 146 155 202 b 76 490 92 341 76 414 l 76 568 b 181 881 76 697 111 801 b 454 1002 251 962 342 1002 b 729 881 567 1002 658 962 b 834 568 799 801 834 697 l 834 490 b 787 272 834 414 818 342 b 660 104 756 202 713 146 l 836 104 l 836 0 l 498 0 l 498 108 "},"Ω":{"ha":926,"x_min":0,"x_max":0,"o":"m 498 108 l 498 0 l 836 0 l 836 104 l 660 104 b 787 272 713 146 756 202 b 834 490 818 342 834 414 l 834 568 b 729 881 834 697 799 801 b 454 1002 658 962 567 1002 b 181 881 342 1002 251 962 b 76 568 111 801 76 697 l 76 490 b 123 272 76 414 92 341 b 252 104 155 202 197 146 l 80 104 l 80 0 l 416 0 l 416 108 b 264 222 351 119 301 157 b 210 490 228 287 210 376 l 210 570 b 275 812 210 675 231 756 b 454 897 318 868 378 897 b 635 812 531 897 591 868 b 701 570 679 756 701 675 l 701 490 b 647 222 701 376 683 287 b 498 108 612 157 562 119 "},"Ϊ":{"ha":393,"x_min":0,"x_max":0,"o":"m 129 0 l 129 987 l 263 987 l 263 0 m 282 1088 l 282 1224 l 431 1224 l 431 1088 m -37 1088 l -37 1224 l 112 1224 l 112 1088 "},"Ϋ":{"ha":878,"x_min":0,"x_max":0,"o":"m 695 987 l 848 987 l 501 347 l 501 0 l 368 0 l 368 357 l 27 987 l 180 987 l 437 486 m 524 1088 l 524 1223 l 672 1223 l 672 1088 m 205 1088 l 205 1223 l 353 1223 l 353 1088 "},"ά":{"ha":785,"x_min":0,"x_max":0,"o":"m 679 187 b 693 119 679 155 683 132 b 730 100 702 107 715 100 b 749 101 737 100 743 101 b 766 105 755 102 761 103 l 781 9 b 741 -9 768 0 755 -6 b 696 -14 728 -13 713 -14 b 611 7 662 -14 634 -7 b 561 76 588 22 572 45 b 472 8 536 46 506 24 b 353 -14 437 -7 397 -14 b 142 83 263 -14 193 18 b 66 339 92 148 66 233 l 66 353 b 142 639 66 471 92 566 b 354 747 192 711 263 747 b 475 723 400 747 440 739 b 565 652 510 707 540 683 l 600 733 l 679 733 m 200 339 b 246 159 200 265 215 205 b 387 90 276 113 323 90 b 480 114 423 90 454 98 b 545 182 506 130 528 153 l 545 187 l 545 554 b 480 618 528 581 506 603 b 388 642 454 634 423 642 b 246 561 324 642 277 615 b 200 353 215 507 200 438 l 200 339 m 554 1051 l 449 867 l 393 867 l 413 1051 "},"έ":{"ha":748,"x_min":0,"x_max":0,"o":"m 365 323 b 242 295 310 323 269 314 b 201 207 214 275 201 246 b 247 123 201 174 216 146 b 374 90 278 101 320 90 b 499 127 424 90 466 102 b 548 217 532 153 548 183 l 674 217 l 675 213 b 589 45 678 140 649 84 b 374 -13 529 6 457 -13 b 152 46 282 -13 208 7 b 66 207 95 85 66 139 b 101 312 66 248 78 283 b 203 377 125 341 159 363 b 112 442 164 393 134 415 b 79 533 90 470 79 500 b 158 690 79 601 106 653 b 374 746 211 727 283 746 b 582 687 456 746 526 726 b 663 533 638 647 666 596 l 662 529 l 536 529 b 489 610 536 561 520 588 b 374 643 457 632 419 643 b 254 611 321 643 281 632 b 213 533 227 589 213 563 b 250 454 213 500 225 473 b 365 425 275 435 313 425 l 507 425 l 507 323 l 365 323 m 504 1050 l 399 867 l 342 867 l 363 1050 "},"ή":{"ha":789,"x_min":0,"x_max":0,"o":"m 225 632 b 316 717 250 669 280 697 b 439 747 352 737 393 747 b 623 681 519 747 580 725 b 687 463 666 637 687 564 l 687 -281 l 553 -281 l 553 460 b 515 600 553 525 541 572 b 397 642 489 628 450 642 b 298 620 359 642 326 635 b 231 556 270 604 248 583 l 231 0 l 97 0 l 97 734 l 216 734 m 522 1051 l 417 867 l 361 867 l 381 1051 "},"ί":{"ha":456,"x_min":0,"x_max":0,"o":"m 267 182 b 285 113 267 149 273 126 b 334 94 297 101 313 94 b 367 99 345 94 356 96 b 395 112 378 103 387 107 l 425 22 b 365 -7 405 8 385 -2 b 298 -14 344 -12 322 -14 b 176 34 245 -14 204 2 b 134 189 148 66 134 118 l 134 733 l 267 733 m 335 1038 l 230 854 l 174 854 l 194 1038 "},"ΰ":{"ha":789,"x_min":0,"x_max":0,"o":"m 229 319 b 276 145 229 240 245 182 b 402 90 307 109 349 90 b 541 176 464 90 510 119 b 587 381 571 233 587 302 b 562 554 585 438 577 496 b 503 734 547 612 527 672 l 642 734 b 699 573 665 685 684 632 b 720 381 713 515 720 451 b 645 97 720 266 695 171 b 409 -14 595 23 516 -14 b 177 68 309 -14 232 13 b 96 320 123 123 96 207 l 96 734 l 229 734 m 511 802 l 511 938 l 646 938 l 646 802 m 166 802 l 166 938 l 300 938 l 300 802 m 542 1124 l 456 946 l 359 946 l 394 1124 "},"α":{"ha":785,"x_min":0,"x_max":0,"o":"m 679 187 b 693 119 679 155 683 132 b 730 100 702 107 715 100 b 749 101 737 100 743 101 b 766 105 755 102 761 103 l 781 9 b 741 -9 768 0 755 -6 b 696 -14 728 -13 713 -14 b 611 7 662 -14 634 -7 b 561 76 588 22 572 45 b 472 8 536 46 506 24 b 353 -14 437 -7 397 -14 b 142 83 263 -14 193 18 b 66 339 92 148 66 233 l 66 353 b 142 639 66 471 92 566 b 354 747 192 711 263 747 b 475 723 400 747 440 739 b 565 652 510 707 540 683 l 600 733 l 679 733 m 200 339 b 246 159 200 265 215 205 b 387 90 276 113 323 90 b 480 114 423 90 454 98 b 545 182 506 130 528 153 l 545 187 l 545 554 b 480 618 528 581 506 603 b 388 642 454 634 423 642 b 246 561 324 642 277 615 b 200 353 215 507 200 438 l 200 339 "},"β":{"ha":823,"x_min":0,"x_max":0,"o":"m 412 1002 b 624 927 500 1002 571 977 b 704 734 677 877 704 813 b 670 621 704 693 693 655 b 577 538 647 586 616 559 b 703 442 631 519 673 486 b 748 288 733 398 748 347 b 662 66 748 194 719 120 b 439 -14 605 13 531 -14 b 332 1 402 -14 367 -9 b 240 47 297 11 267 27 l 240 -260 l 106 -260 l 106 728 b 197 921 106 802 137 867 b 412 1002 257 975 328 1002 m 409 583 b 531 624 464 583 505 597 b 570 737 557 652 570 689 b 528 849 570 780 556 817 b 412 897 500 881 461 897 b 290 848 363 897 323 880 b 240 728 257 816 240 776 l 240 165 b 318 110 260 141 286 123 b 426 90 350 97 386 90 b 564 144 484 90 530 108 b 614 286 598 181 614 228 b 570 420 614 336 600 381 b 450 478 540 459 500 478 l 353 478 l 353 583 l 409 583 "},"γ":{"ha":699,"x_min":0,"x_max":0,"o":"m 675 734 l 421 42 l 421 -283 l 288 -283 l 288 45 l 31 734 l 168 734 l 342 216 l 353 165 l 357 165 l 370 216 l 539 734 "},"δ":{"ha":789,"x_min":0,"x_max":0,"o":"m 636 885 l 328 885 l 327 881 l 578 693 b 685 559 624 659 660 614 b 723 374 710 503 723 441 l 723 359 b 635 90 723 249 694 160 b 395 -14 576 21 496 -14 b 154 91 293 -14 213 21 b 66 359 95 160 66 250 l 66 374 b 137 621 66 471 90 553 b 334 743 185 688 251 729 l 339 743 l 340 747 l 139 907 l 139 987 l 636 987 m 393 642 b 249 566 330 642 281 617 b 199 374 216 515 199 451 l 199 359 b 249 166 199 281 216 217 b 395 90 281 116 330 90 b 540 166 458 90 507 116 b 589 359 573 217 589 281 l 589 374 b 539 566 589 451 573 515 b 393 642 506 617 458 642 "},"ε":{"ha":748,"x_min":0,"x_max":0,"o":"m 365 323 b 242 295 310 323 269 314 b 201 207 214 275 201 246 b 247 123 201 174 216 146 b 374 90 278 101 320 90 b 499 127 424 90 466 102 b 548 217 532 153 548 183 l 674 217 l 675 213 b 589 45 678 140 649 84 b 374 -13 529 6 457 -13 b 152 46 282 -13 208 7 b 66 207 95 85 66 139 b 101 312 66 248 78 283 b 203 377 125 341 159 363 b 112 442 164 393 134 415 b 79 533 90 470 79 500 b 158 690 79 601 106 653 b 374 746 211 727 283 746 b 582 687 456 746 526 726 b 663 533 638 647 666 596 l 662 529 l 536 529 b 489 610 536 561 520 588 b 374 643 457 632 419 643 b 254 611 321 643 281 632 b 213 533 227 589 213 563 b 250 454 213 500 225 473 b 365 425 275 435 313 425 l 507 425 l 507 323 l 365 323 "},"ζ":{"ha":726,"x_min":0,"x_max":0,"o":"m 658 911 l 426 618 b 300 438 368 549 326 489 b 262 262 275 386 262 328 b 297 144 262 210 274 171 b 402 104 321 118 356 104 l 424 104 b 593 61 496 104 552 90 b 654 -68 633 33 654 -11 b 600 -200 653 -119 635 -162 b 473 -288 565 -237 523 -266 l 418 -201 b 495 -151 448 -187 474 -171 b 527 -75 516 -132 527 -106 b 499 -20 527 -51 518 -33 b 410 0 481 -7 451 0 l 375 0 b 191 73 294 0 233 24 b 128 259 149 121 128 183 b 175 449 128 313 144 377 b 320 673 207 522 255 596 l 502 879 l 500 882 l 78 882 l 78 987 l 658 987 "},"η":{"ha":789,"x_min":0,"x_max":0,"o":"m 225 632 b 316 717 250 669 280 697 b 439 747 352 737 393 747 b 623 681 519 747 580 725 b 687 463 666 637 687 564 l 687 -281 l 553 -281 l 553 460 b 515 600 553 525 541 572 b 397 642 489 628 450 642 b 298 620 359 642 326 635 b 231 556 270 604 248 583 l 231 0 l 97 0 l 97 734 l 216 734 "},"θ":{"ha":790,"x_min":0,"x_max":0,"o":"m 709 349 b 624 83 709 237 681 149 b 395 -14 568 18 491 -14 b 166 83 300 -14 224 18 b 81 349 109 149 81 237 l 81 639 b 166 903 81 750 109 838 b 394 1002 223 969 299 1002 b 624 903 490 1002 566 969 b 709 639 681 838 709 750 l 709 349 m 576 545 l 576 667 b 528 835 576 738 560 794 b 394 897 497 876 452 897 b 261 835 337 897 292 876 b 214 667 230 794 214 738 l 214 545 m 214 439 l 214 321 b 262 153 214 250 230 194 b 395 90 294 111 338 90 b 529 152 453 90 498 111 b 576 321 560 194 576 250 l 576 439 "},"ι":{"ha":456,"x_min":0,"x_max":0,"o":"m 267 182 b 285 113 267 149 273 126 b 334 94 297 101 313 94 b 367 99 345 94 356 96 b 395 112 378 103 387 107 l 425 22 b 365 -7 405 8 385 -2 b 298 -14 344 -12 322 -14 b 176 34 245 -14 204 2 b 134 189 148 66 134 118 l 134 733 l 267 733 "},"κ":{"ha":776,"x_min":0,"x_max":0,"o":"m 237 311 l 237 0 l 104 0 l 104 734 l 237 734 l 237 424 l 294 424 l 557 734 l 714 734 l 715 730 l 410 382 l 738 3 l 736 0 l 573 0 l 306 311 "},"λ":{"ha":789,"x_min":0,"x_max":0,"o":"m 38 0 l 303 697 l 266 795 b 215 888 251 833 234 864 b 144 924 195 912 172 924 b 119 923 140 924 132 924 b 98 921 107 922 100 921 l 98 1019 b 133 1026 107 1022 119 1024 b 171 1029 148 1028 160 1029 b 310 975 229 1029 276 1011 b 389 846 345 938 371 895 l 633 205 b 672 128 643 173 656 147 b 726 100 688 109 706 100 b 739 100 733 100 737 100 b 758 103 741 100 747 101 l 756 -1 b 736 -8 751 -4 745 -6 b 716 -12 728 -10 721 -12 b 588 33 663 -12 620 3 b 503 172 555 62 527 108 l 366 532 l 362 531 l 342 454 l 186 0 "},"μ":{"ha":789,"x_min":0,"x_max":0,"o":"m 237 298 b 276 134 238 218 251 163 b 381 90 301 105 336 90 b 489 115 425 90 461 98 b 551 186 516 131 537 155 l 551 734 l 685 734 l 685 0 l 565 0 l 559 73 b 486 8 539 45 515 23 b 387 -14 457 -7 424 -14 b 301 -3 354 -14 325 -11 b 237 32 276 4 255 16 l 237 -282 l 104 -282 l 104 734 l 237 734 "},"ν":{"ha":699,"x_min":0,"x_max":0,"o":"m 353 165 l 357 165 l 370 216 l 539 734 l 675 734 l 406 0 l 304 0 l 31 734 l 168 734 l 342 216 "},"ξ":{"ha":707,"x_min":0,"x_max":0,"o":"m 625 882 l 425 882 b 299 833 369 879 327 862 b 256 724 270 803 256 767 b 306 624 256 681 273 648 b 459 589 338 601 389 589 l 556 589 l 556 484 l 459 484 b 266 431 375 484 310 466 b 200 274 222 395 200 343 b 254 142 200 220 218 176 b 404 91 290 108 340 91 l 445 91 b 614 48 518 91 574 77 b 675 -83 655 19 675 -24 b 621 -214 674 -133 656 -177 b 494 -301 586 -251 544 -280 l 441 -215 b 517 -165 470 -201 496 -184 b 549 -89 538 -146 549 -120 b 525 -33 549 -65 541 -47 b 450 -13 509 -20 484 -13 l 404 -13 b 160 64 304 -13 222 13 b 66 277 98 115 66 186 b 120 442 66 342 84 397 b 277 538 156 486 209 519 b 163 613 229 557 191 582 b 123 721 136 645 123 681 b 143 814 123 756 130 787 b 204 882 157 841 177 864 l 58 882 l 58 987 l 625 987 "},"ο":{"ha":789,"x_min":0,"x_max":0,"o":"m 66 374 b 154 642 66 482 95 572 b 393 747 213 712 293 747 b 634 642 495 747 575 712 b 723 374 693 572 723 483 l 723 359 b 635 90 723 249 694 160 b 395 -14 576 21 496 -14 b 154 91 293 -14 213 21 b 66 359 95 160 66 250 l 66 374 m 199 359 b 249 166 199 281 216 217 b 395 90 281 116 330 90 b 540 166 458 90 507 116 b 589 359 573 217 589 281 l 589 374 b 539 566 589 451 573 515 b 393 642 506 617 458 642 b 249 566 330 642 281 617 b 199 374 216 515 199 451 l 199 359 "},"π":{"ha":806,"x_min":0,"x_max":0,"o":"m 675 628 l 675 182 b 693 113 675 149 681 126 b 741 94 705 101 721 94 b 774 99 753 94 764 96 b 803 112 785 103 795 107 l 833 22 b 772 -7 812 8 792 -2 b 706 -14 752 -12 730 -14 b 583 34 652 -14 611 2 b 541 189 555 66 541 118 l 541 628 l 292 628 l 292 0 l 159 0 l 159 628 l 54 628 l 54 734 l 758 734 l 758 628 "},"ρ":{"ha":789,"x_min":0,"x_max":0,"o":"m 719 339 b 645 83 719 233 694 147 b 437 -14 595 18 526 -14 b 319 6 393 -14 354 -7 b 231 66 285 20 255 40 l 231 -282 l 97 -282 l 97 391 l 97 391 b 184 653 97 503 126 590 b 401 747 242 716 315 747 b 637 640 504 747 583 712 b 719 353 692 568 719 473 l 719 339 m 585 353 b 541 562 585 439 570 508 b 401 642 511 615 464 642 b 274 564 346 642 303 616 b 231 391 245 512 231 454 l 231 186 b 296 116 247 156 269 133 b 396 90 323 99 357 90 b 538 159 459 90 506 113 b 585 339 569 205 585 265 l 585 353 "},"ς":{"ha":747,"x_min":0,"x_max":0,"o":"m 389 747 b 594 676 473 747 542 724 b 671 485 647 629 673 565 l 669 481 l 549 481 b 507 596 549 527 535 566 b 389 642 480 627 440 642 b 248 564 326 642 279 616 b 200 381 216 512 200 451 l 200 353 b 256 188 200 288 219 233 b 424 103 293 142 349 114 b 603 50 505 91 565 73 b 660 -70 641 26 660 -14 b 606 -201 659 -120 641 -164 b 479 -288 571 -238 529 -267 l 425 -202 b 501 -152 454 -188 480 -171 b 533 -76 522 -133 533 -108 b 503 -26 533 -54 523 -38 b 409 0 483 -15 452 -6 b 153 115 295 16 210 54 b 66 353 95 176 66 255 l 66 381 b 153 641 66 484 95 570 b 389 747 211 712 289 747 "},"σ":{"ha":789,"x_min":0,"x_max":0,"o":"m 591 628 b 689 507 633 595 666 555 b 723 347 712 459 723 406 l 723 332 b 633 88 723 237 693 156 b 395 -14 574 20 494 -14 b 154 91 293 -14 213 21 b 66 359 95 160 66 250 l 66 374 b 154 632 66 478 95 564 b 393 734 212 699 292 733 l 779 734 l 779 628 m 199 359 b 249 166 199 281 216 217 b 395 90 281 116 330 90 b 540 166 458 90 507 116 b 589 359 573 217 589 281 l 589 374 b 539 555 589 446 573 507 b 393 628 506 604 458 628 b 249 555 330 628 281 604 b 199 374 216 507 199 446 l 199 359 "},"τ":{"ha":727,"x_min":0,"x_max":0,"o":"m 427 630 l 427 0 l 294 0 l 294 630 l 55 630 l 55 734 l 670 734 l 670 630 "},"υ":{"ha":789,"x_min":0,"x_max":0,"o":"m 229 319 b 276 145 229 240 245 182 b 402 90 307 109 349 90 b 541 176 464 90 510 119 b 587 381 571 233 587 302 b 562 554 585 438 577 496 b 503 734 547 612 527 672 l 642 734 b 699 573 665 685 684 632 b 720 381 713 515 720 451 b 645 97 720 266 695 171 b 409 -14 595 23 516 -14 b 177 68 309 -14 232 13 b 96 320 123 123 96 207 l 96 734 l 229 734 "},"φ":{"ha":983,"x_min":0,"x_max":0,"o":"m 552 734 b 817 625 655 734 743 697 b 927 355 890 552 927 463 b 835 106 927 257 896 174 b 552 -11 774 39 680 0 l 552 -324 l 418 -324 l 418 -11 b 144 115 295 0 203 42 b 56 382 86 188 56 277 b 78 573 56 452 64 515 b 135 734 92 631 111 685 l 275 734 b 214 555 249 673 229 614 b 190 382 199 497 191 439 b 245 197 190 312 208 250 b 414 100 282 143 338 111 l 418 102 l 418 734 l 552 734 m 793 355 b 728 546 792 429 770 493 b 556 624 686 600 628 626 l 552 623 l 552 100 l 556 98 b 735 186 636 108 696 137 b 793 355 774 235 793 292 "},"χ":{"ha":789,"x_min":0,"x_max":0,"o":"m 137 744 b 276 690 195 744 242 726 b 355 562 310 654 336 611 l 418 412 l 422 412 l 580 734 l 714 734 l 483 254 l 621 -79 b 665 -157 636 -113 651 -139 b 714 -184 679 -175 695 -184 b 727 -183 720 -184 725 -184 b 745 -180 729 -183 735 -182 l 743 -286 b 724 -293 739 -289 732 -291 b 703 -296 716 -295 709 -296 b 577 -252 651 -296 609 -282 b 494 -112 546 -223 518 -176 l 408 92 l 404 92 l 224 -281 l 83 -281 l 342 249 l 232 511 b 180 603 217 548 200 579 b 111 639 161 627 138 639 b 85 637 106 639 98 638 b 64 635 73 636 66 635 l 64 734 b 99 741 73 736 85 738 b 137 744 114 743 126 744 "},"ψ":{"ha":977,"x_min":0,"x_max":0,"o":"m 546 101 l 550 100 b 728 197 630 110 689 143 b 787 385 767 251 787 314 b 762 556 785 441 777 498 b 702 734 747 615 727 674 l 842 734 b 899 575 865 686 884 633 b 920 385 913 517 920 454 b 830 113 920 276 890 185 b 546 -12 770 40 675 -2 l 546 -321 l 412 -321 l 412 -10 b 153 109 300 1 214 41 b 62 404 92 177 62 276 l 62 734 l 195 734 l 195 403 b 253 188 195 309 214 238 b 408 101 291 139 342 110 l 412 102 l 412 733 l 546 733 "},"ω":{"ha":1181,"x_min":0,"x_max":0,"o":"m 318 734 b 239 555 285 673 258 614 b 207 381 219 497 209 439 b 245 171 207 295 220 225 b 364 90 270 117 310 90 b 480 145 413 90 451 109 b 523 319 509 182 523 240 l 523 522 l 657 522 l 657 319 b 700 145 657 240 671 182 b 816 90 728 109 767 90 b 935 171 870 90 910 117 b 973 381 961 224 973 294 b 941 555 971 439 960 497 b 862 734 921 614 895 673 l 1002 734 b 1078 574 1033 686 1058 633 b 1107 381 1097 515 1107 451 b 1038 97 1107 266 1084 171 b 823 -14 993 23 921 -14 b 678 27 766 -14 717 0 b 590 149 638 55 609 95 b 502 27 571 95 541 55 b 357 -14 462 0 414 -14 b 142 97 259 -14 187 23 b 73 381 96 171 73 266 b 102 574 73 451 83 516 b 178 734 121 633 147 686 l 318 734 "},"ϊ":{"ha":456,"x_min":0,"x_max":0,"o":"m 267 182 b 285 113 267 149 273 126 b 334 94 297 101 313 94 b 367 99 345 94 356 96 b 395 112 378 103 387 107 l 425 22 b 365 -7 405 8 385 -2 b 298 -14 344 -12 322 -14 b 176 34 245 -14 204 2 b 134 189 148 66 134 118 l 134 733 l 267 733 m 291 856 l 291 991 l 439 991 l 439 856 m -28 856 l -28 991 l 121 991 l 121 856 "},"ϋ":{"ha":789,"x_min":0,"x_max":0,"o":"m 229 319 b 276 145 229 240 245 182 b 402 90 307 109 349 90 b 541 176 464 90 510 119 b 587 381 571 233 587 302 b 562 554 585 438 577 496 b 503 734 547 612 527 672 l 642 734 b 699 573 665 685 684 632 b 720 381 713 515 720 451 b 645 97 720 266 695 171 b 409 -14 595 23 516 -14 b 177 68 309 -14 232 13 b 96 320 123 123 96 207 l 96 734 l 229 734 m 492 856 l 492 991 l 641 991 l 641 856 m 174 856 l 174 991 l 322 991 l 322 856 "},"ό":{"ha":789,"x_min":0,"x_max":0,"o":"m 66 374 b 154 642 66 482 95 572 b 393 747 213 712 293 747 b 634 642 495 747 575 712 b 723 374 693 572 723 483 l 723 359 b 635 90 723 249 694 160 b 395 -14 576 21 496 -14 b 154 91 293 -14 213 21 b 66 359 95 160 66 250 l 66 374 m 199 359 b 249 166 199 281 216 217 b 395 90 281 116 330 90 b 540 166 458 90 507 116 b 589 359 573 217 589 281 l 589 374 b 539 566 589 451 573 515 b 393 642 506 617 458 642 b 249 566 330 642 281 617 b 199 374 216 515 199 451 l 199 359 m 525 1051 l 420 867 l 363 867 l 384 1051 "},"ύ":{"ha":789,"x_min":0,"x_max":0,"o":"m 229 319 b 276 145 229 240 245 182 b 402 90 307 109 349 90 b 541 176 464 90 510 119 b 587 381 571 233 587 302 b 562 554 585 438 577 496 b 503 734 547 612 527 672 l 642 734 b 699 573 665 685 684 632 b 720 381 713 515 720 451 b 645 97 720 266 695 171 b 409 -14 595 23 516 -14 b 177 68 309 -14 232 13 b 96 320 123 123 96 207 l 96 734 l 229 734 m 537 1038 l 432 854 l 376 854 l 396 1038 "},"ώ":{"ha":1181,"x_min":0,"x_max":0,"o":"m 318 734 b 239 555 285 673 258 614 b 207 381 219 497 209 439 b 245 171 207 295 220 225 b 364 90 270 117 310 90 b 480 145 413 90 451 109 b 523 319 509 182 523 240 l 523 522 l 657 522 l 657 319 b 700 145 657 240 671 182 b 816 90 728 109 767 90 b 935 171 870 90 910 117 b 973 381 961 224 973 294 b 941 555 971 439 960 497 b 862 734 921 614 895 673 l 1002 734 b 1078 574 1033 686 1058 633 b 1107 381 1097 515 1107 451 b 1038 97 1107 266 1084 171 b 823 -14 993 23 921 -14 b 678 27 766 -14 717 0 b 590 149 638 55 609 95 b 502 27 571 95 541 55 b 357 -14 462 0 414 -14 b 142 97 259 -14 187 23 b 73 381 96 171 73 266 b 102 574 73 451 83 516 b 178 734 121 633 147 686 l 318 734 m 720 1038 l 615 854 l 559 854 l 579 1038 "},"ϑ":{"ha":858,"x_min":0,"x_max":0,"o":"m 353 745 b 417 931 353 822 375 885 b 584 1002 460 978 516 1002 b 752 933 655 1002 711 979 b 814 745 793 887 814 825 l 814 401 b 710 99 814 276 779 175 b 439 -14 641 24 551 -14 b 177 104 331 -14 244 25 b 77 401 110 182 77 282 l 77 849 l 210 850 l 210 401 b 272 180 210 311 231 237 b 439 95 313 123 369 95 b 615 175 513 95 572 122 b 681 397 658 229 680 303 b 443 487 582 400 503 431 b 353 703 383 544 353 616 l 353 703 m 681 745 b 656 855 681 793 673 830 b 584 892 640 879 616 892 b 513 855 554 892 530 879 b 487 745 496 830 487 793 l 487 701 b 538 566 487 647 504 602 b 677 510 572 531 618 512 l 681 511 l 681 745 "},"ϒ":{"ha":739,"x_min":0,"x_max":0,"o":"m 503 840 b 579 960 526 896 552 936 b 676 995 607 983 640 995 b 716 991 692 995 705 994 b 751 979 727 989 739 985 l 735 876 b 724 879 733 877 729 878 b 708 881 719 880 714 881 b 667 869 693 881 679 877 b 637 831 655 861 645 848 l 434 392 l 434 0 l 301 0 l 301 392 l 98 831 b 67 869 90 848 80 861 b 27 881 55 877 42 881 b 11 879 21 881 15 880 b 0 876 6 878 2 877 l -15 979 b 18 991 -4 985 7 989 b 59 995 30 994 43 995 b 155 960 95 995 127 983 b 232 840 183 936 208 896 l 353 565 l 366 517 l 370 517 l 382 565 l 503 840 "},"ϖ":{"ha":1090,"x_min":0,"x_max":0,"o":"m 968 628 b 999 511 982 591 992 552 b 1010 381 1007 470 1010 427 b 951 97 1010 266 991 172 b 768 -14 912 23 851 -14 b 631 27 714 -14 668 -1 b 548 146 594 54 566 94 b 465 26 529 94 502 54 b 329 -14 427 -1 382 -14 b 145 97 245 -14 184 23 b 86 381 106 172 86 266 b 97 511 86 427 90 470 b 128 628 104 552 115 591 l 53 628 l 53 734 l 1059 734 l 1059 628 m 877 381 b 861 503 876 421 870 462 b 825 628 852 544 840 586 l 272 628 b 235 503 256 585 244 544 b 220 381 226 461 221 421 b 248 171 220 295 229 225 b 336 90 267 117 296 90 b 442 145 381 90 416 109 b 481 319 468 182 481 240 l 481 488 l 616 488 l 616 319 b 655 145 616 240 629 182 b 761 90 681 109 716 90 b 848 171 800 90 829 117 b 877 381 867 225 877 295 "},"Ѐ":{"ha":766,"x_min":0,"x_max":0,"o":"m 249 458 l 249 104 l 724 104 l 724 0 l 115 0 l 115 987 l 716 987 l 716 882 l 249 882 l 249 563 l 654 563 l 654 458 m 369 1086 l 199 1262 l 201 1266 l 357 1266 l 476 1086 "},"Ё":{"ha":766,"x_min":0,"x_max":0,"o":"m 249 458 l 249 104 l 724 104 l 724 0 l 115 0 l 115 987 l 716 987 l 716 882 l 249 882 l 249 563 l 654 563 l 654 458 m 505 1088 l 505 1224 l 654 1224 l 654 1088 m 186 1088 l 186 1224 l 335 1224 l 335 1088 "},"Ђ":{"ha":1027,"x_min":0,"x_max":0,"o":"m 494 882 l 494 597 l 616 597 b 876 510 723 597 809 568 b 977 274 943 452 977 373 b 909 85 976 212 953 149 b 714 -34 865 21 800 -19 l 680 66 b 804 143 737 82 779 107 b 842 274 830 178 842 222 b 780 429 842 340 821 392 b 616 485 739 466 684 485 l 494 485 l 494 0 l 360 0 l 360 882 l 39 882 l 39 987 l 819 987 l 819 882 "},"Ѓ":{"ha":762,"x_min":0,"x_max":0,"o":"m 244 882 l 244 0 l 111 0 l 111 987 l 716 987 l 716 882 m 634 1263 l 635 1259 l 453 1083 l 353 1083 l 478 1263 "},"Є":{"ha":940,"x_min":0,"x_max":0,"o":"m 833 313 b 735 80 835 220 802 142 b 470 -14 668 18 580 -14 b 197 105 358 -14 267 26 b 92 406 127 184 92 285 l 92 582 b 197 883 92 703 127 804 b 470 1002 267 963 358 1002 b 736 913 582 1002 670 973 b 833 677 802 854 835 775 l 831 673 l 703 673 b 642 837 703 742 683 797 b 470 897 602 877 544 897 b 292 807 395 897 336 867 b 225 583 247 747 225 672 l 225 551 l 606 551 l 606 447 l 225 447 l 225 406 b 292 181 225 316 247 241 b 470 91 336 121 395 91 b 642 151 544 91 602 111 b 703 317 683 191 703 246 l 831 317 "},"Ѕ":{"ha":849,"x_min":0,"x_max":0,"o":"m 642 249 b 593 361 642 294 625 331 b 424 439 561 392 505 418 b 189 549 323 464 245 500 b 104 731 133 597 104 658 b 195 924 104 808 135 873 b 431 1002 256 976 335 1002 b 680 913 535 1002 618 972 b 770 707 742 854 772 785 l 768 703 l 640 703 b 582 842 640 759 621 805 b 431 897 542 878 492 897 b 288 851 369 897 321 881 b 238 733 255 821 238 781 b 293 626 238 690 256 654 b 470 550 329 597 388 572 b 697 436 569 524 645 486 b 775 250 749 386 775 324 b 681 58 775 171 744 107 b 436 -14 619 10 537 -14 b 183 66 341 -14 256 12 b 77 280 110 119 75 191 l 79 284 l 206 284 b 277 141 206 222 230 174 b 436 90 324 107 377 90 b 586 133 499 90 549 104 b 642 249 623 161 642 200 "},"І":{"ha":393,"x_min":0,"x_max":0,"o":"m 129 0 l 129 987 l 263 987 l 263 0 "},"Ї":{"ha":393,"x_min":0,"x_max":0,"o":"m 129 0 l 129 987 l 263 987 l 263 0 m 282 1088 l 282 1224 l 431 1224 l 431 1088 m -37 1088 l -37 1224 l 112 1224 l 112 1088 "},"Ј":{"ha":762,"x_min":0,"x_max":0,"o":"m 648 987 l 648 286 b 565 67 648 194 620 121 b 347 -14 509 13 436 -14 b 131 58 256 -14 184 10 b 54 268 77 106 51 176 l 55 272 l 183 272 b 226 135 183 210 197 165 b 347 90 254 105 295 90 b 468 144 397 90 437 108 b 515 286 499 179 515 227 l 515 987 "},"Љ":{"ha":1493,"x_min":0,"x_max":0,"o":"m 862 603 l 1105 603 b 1351 519 1210 603 1292 575 b 1438 301 1409 463 1438 391 b 1351 83 1438 212 1409 139 b 1105 0 1292 28 1210 0 l 728 0 l 728 882 l 387 882 l 386 522 b 312 125 385 341 361 209 b 69 0 264 42 183 0 l 34 0 l 34 104 l 61 104 b 208 201 129 104 178 137 b 253 522 237 266 253 373 l 253 987 l 862 987 m 862 104 l 1105 104 b 1255 162 1172 104 1222 124 b 1305 302 1288 200 1305 247 b 1255 441 1305 357 1288 404 b 1105 498 1222 479 1172 498 l 862 498 "},"Њ":{"ha":1493,"x_min":0,"x_max":0,"o":"m 728 561 l 728 987 l 862 987 l 862 570 l 1105 570 b 1351 492 1211 570 1293 544 b 1438 288 1409 441 1438 373 b 1351 80 1438 202 1409 133 b 1105 0 1292 27 1210 0 l 728 0 l 728 456 l 248 456 l 248 0 l 114 0 l 114 987 l 248 987 l 248 561 m 862 112 l 1105 112 b 1255 162 1172 112 1222 129 b 1305 289 1288 196 1305 238 b 1255 415 1305 340 1288 381 b 1105 465 1222 448 1172 465 l 862 465 "},"Ћ":{"ha":1133,"x_min":0,"x_max":0,"o":"m 505 882 l 505 652 l 704 652 b 950 577 812 652 894 627 b 1036 340 1007 527 1036 448 l 1036 0 l 902 0 l 902 340 b 854 500 902 416 886 469 b 704 547 823 531 773 547 l 505 547 l 505 0 l 371 0 l 371 882 l 50 882 l 50 987 l 830 987 l 830 882 "},"Ќ":{"ha":883,"x_min":0,"x_max":0,"o":"m 249 446 l 249 0 l 115 0 l 115 987 l 249 987 l 249 551 l 322 551 l 688 987 l 839 987 l 840 984 l 440 517 l 869 3 l 867 0 l 705 0 l 336 446 m 630 1204 l 631 1200 l 449 1023 l 349 1023 l 474 1204 "},"Ѝ":{"ha":977,"x_min":0,"x_max":0,"o":"m 864 987 l 864 0 l 730 0 l 730 753 l 726 754 l 251 0 l 117 0 l 117 987 l 251 987 l 251 235 l 255 234 l 730 987 m 441 1086 l 272 1262 l 274 1266 l 430 1266 l 549 1086 "},"Ў":{"ha":880,"x_min":0,"x_max":0,"o":"m 435 396 l 439 396 l 675 987 l 830 987 l 471 162 b 379 32 446 106 415 63 b 220 -14 343 1 290 -14 b 138 -7 191 -14 164 -12 b 77 11 112 -2 92 4 l 94 109 b 149 96 109 104 127 100 b 206 90 171 92 190 90 b 295 119 243 90 273 100 b 349 193 317 138 335 163 l 375 250 l 45 987 l 195 987 l 385 526 m 639 1264 b 587 1136 641 1212 623 1169 b 439 1086 550 1103 501 1086 b 290 1136 376 1086 327 1103 b 239 1264 254 1169 236 1212 l 240 1268 l 342 1268 b 366 1196 342 1238 350 1214 b 439 1168 381 1177 405 1168 b 511 1196 471 1168 496 1177 b 535 1268 527 1215 535 1239 l 637 1268 "},"Џ":{"ha":976,"x_min":0,"x_max":0,"o":"m 248 987 l 248 104 l 728 104 l 728 987 l 862 987 l 862 0 l 559 0 l 559 -243 l 426 -243 l 426 0 l 114 0 l 114 987 "},"А":{"ha":878,"x_min":0,"x_max":0,"o":"m 254 254 l 165 0 l 29 0 l 385 987 l 500 987 l 848 0 l 712 0 l 625 254 m 587 366 l 444 790 l 439 790 l 292 366 "},"Б":{"ha":876,"x_min":0,"x_max":0,"o":"m 244 882 l 244 597 l 488 597 b 733 516 593 597 675 570 b 821 301 792 462 821 390 b 733 83 821 212 792 139 b 488 0 674 28 592 0 l 111 0 l 111 987 l 716 987 l 716 882 m 244 104 l 488 104 b 637 162 554 104 604 124 b 688 302 671 200 688 247 b 638 437 688 356 671 401 b 488 492 605 474 555 492 l 244 492 "},"В":{"ha":883,"x_min":0,"x_max":0,"o":"m 115 987 l 437 987 b 680 921 541 987 621 965 b 767 720 738 876 767 809 b 728 606 767 678 754 640 b 623 529 701 572 667 547 b 777 445 688 520 739 492 b 833 279 815 398 833 342 b 745 72 833 188 804 119 b 507 0 687 24 607 0 l 115 0 m 249 104 l 507 104 b 649 150 568 104 615 119 b 699 277 682 180 699 222 b 648 410 699 332 682 376 b 509 463 613 443 567 461 l 500 463 l 249 463 m 465 568 b 587 609 515 568 555 581 b 633 723 618 636 633 674 b 583 843 633 776 617 816 b 437 882 549 869 501 882 l 249 882 l 249 568 "},"Г":{"ha":762,"x_min":0,"x_max":0,"o":"m 244 882 l 244 0 l 111 0 l 111 987 l 716 987 l 716 882 "},"Д":{"ha":1068,"x_min":0,"x_max":0,"o":"m 896 -242 l 896 0 l 170 0 l 170 -243 l 37 -243 l 37 104 l 107 104 b 241 228 167 104 211 145 b 298 588 271 310 290 430 l 320 987 l 895 987 l 895 104 l 1029 104 l 1029 -242 m 433 588 b 396 298 427 475 415 379 b 317 104 378 217 352 153 l 761 104 l 761 882 l 448 882 l 433 588 "},"Е":{"ha":766,"x_min":0,"x_max":0,"o":"m 249 458 l 249 104 l 724 104 l 724 0 l 115 0 l 115 987 l 716 987 l 716 882 l 249 882 l 249 563 l 654 563 l 654 458 "},"Ж":{"ha":1144,"x_min":0,"x_max":0,"o":"m 641 453 l 641 0 l 508 0 l 508 453 l 465 453 l 184 0 l 18 0 l 353 522 l 45 987 l 201 987 l 464 558 l 508 558 l 508 987 l 641 987 l 641 558 l 680 558 l 943 987 l 1099 987 l 790 523 l 1126 0 l 960 0 l 677 453 "},"З":{"ha":939,"x_min":0,"x_max":0,"o":"m 831 720 b 785 595 831 675 815 633 b 657 507 754 557 711 528 b 797 419 718 488 765 458 b 846 275 830 380 846 332 b 738 62 846 184 810 113 b 454 -14 665 11 571 -14 b 191 58 352 -14 264 10 b 85 270 118 107 83 177 l 86 274 l 214 274 b 281 143 214 222 236 179 b 454 90 326 108 383 90 b 644 141 535 90 598 107 b 712 273 689 174 712 218 b 650 407 712 333 691 377 b 465 450 608 436 547 450 l 341 450 l 341 556 l 465 556 b 640 601 544 556 602 571 b 697 723 678 631 697 671 b 636 848 697 774 677 815 b 454 897 595 880 534 897 b 293 848 391 897 337 880 b 228 729 250 816 228 777 l 100 729 l 100 733 b 199 927 97 813 130 877 b 454 1002 268 977 353 1002 b 730 928 571 1002 662 977 b 831 720 797 880 831 810 "},"И":{"ha":977,"x_min":0,"x_max":0,"o":"m 864 987 l 864 0 l 730 0 l 730 753 l 726 754 l 251 0 l 117 0 l 117 987 l 251 987 l 251 235 l 255 234 l 730 987 "},"Й":{"ha":977,"x_min":0,"x_max":0,"o":"m 864 987 l 864 0 l 730 0 l 730 753 l 726 754 l 251 0 l 117 0 l 117 987 l 251 987 l 251 235 l 255 234 l 730 987 m 693 1264 b 641 1136 695 1212 677 1169 b 493 1086 604 1103 555 1086 b 345 1136 431 1086 381 1103 b 293 1264 308 1169 291 1212 l 294 1268 l 397 1268 b 420 1196 397 1238 404 1214 b 493 1168 435 1177 460 1168 b 566 1196 526 1168 550 1177 b 589 1268 581 1215 589 1239 l 692 1268 "},"К":{"ha":883,"x_min":0,"x_max":0,"o":"m 249 446 l 249 0 l 115 0 l 115 987 l 249 987 l 249 551 l 322 551 l 688 987 l 839 987 l 840 984 l 440 517 l 869 3 l 867 0 l 705 0 l 336 446 "},"Л":{"ha":976,"x_min":0,"x_max":0,"o":"m 862 0 l 728 0 l 728 882 l 372 882 l 371 522 b 301 125 371 341 348 209 b 69 0 255 42 177 0 l 33 0 l 33 104 l 61 104 b 196 201 123 104 168 137 b 238 522 224 266 238 373 l 239 987 l 862 987 "},"М":{"ha":1206,"x_min":0,"x_max":0,"o":"m 609 185 l 924 987 l 1090 987 l 1090 0 l 957 0 l 957 740 l 953 741 l 654 0 l 561 0 l 253 765 l 249 764 l 249 0 l 115 0 l 115 987 l 291 987 l 605 185 "},"Н":{"ha":977,"x_min":0,"x_max":0,"o":"m 728 0 l 728 436 l 249 436 l 249 0 l 115 0 l 115 987 l 249 987 l 249 541 l 728 541 l 728 987 l 862 987 l 862 0 "},"О":{"ha":947,"x_min":0,"x_max":0,"o":"m 869 406 b 757 105 869 285 832 185 b 466 -14 682 26 585 -14 b 185 105 351 -14 257 26 b 77 406 113 185 77 285 l 77 581 b 185 882 77 701 113 802 b 466 1002 257 962 351 1002 b 757 882 585 1002 682 962 b 869 581 832 802 869 702 l 869 406 m 736 583 b 663 805 736 673 711 747 b 466 892 614 863 548 892 b 280 805 388 892 326 863 b 210 583 233 747 210 673 l 210 406 b 280 182 210 314 233 240 b 466 95 326 124 388 95 b 663 181 549 95 614 124 b 736 406 712 239 736 314 l 736 583 "},"П":{"ha":976,"x_min":0,"x_max":0,"o":"m 728 0 l 728 882 l 248 882 l 248 0 l 114 0 l 114 987 l 862 987 l 862 0 "},"Р":{"ha":883,"x_min":0,"x_max":0,"o":"m 249 0 l 115 0 l 115 987 l 493 987 b 739 906 598 987 680 960 b 827 692 797 852 827 780 b 739 477 827 602 797 531 b 493 396 680 423 598 396 l 249 396 m 493 500 b 643 554 560 500 610 518 b 692 690 676 590 692 636 b 643 827 692 745 676 791 b 493 882 609 864 559 882 l 249 882 l 249 500 "},"С":{"ha":880,"x_min":0,"x_max":0,"o":"m 821 312 b 724 79 823 219 791 142 b 458 -14 657 17 568 -14 b 185 104 347 -14 256 25 b 80 406 115 184 80 284 l 80 581 b 185 883 80 703 115 803 b 458 1002 256 962 347 1002 b 725 912 570 1002 659 972 b 821 676 791 853 823 774 l 820 672 l 692 672 b 631 836 692 741 671 796 b 458 897 590 876 533 897 b 280 806 384 897 324 866 b 214 583 236 746 214 672 l 214 406 b 280 180 214 316 236 241 b 458 90 324 120 384 90 b 631 150 533 90 590 110 b 692 316 671 190 692 245 l 820 316 "},"Т":{"ha":831,"x_min":0,"x_max":0,"o":"m 480 882 l 480 0 l 347 0 l 347 882 l 25 882 l 25 987 l 806 987 l 806 882 "},"У":{"ha":880,"x_min":0,"x_max":0,"o":"m 435 396 l 439 396 l 675 987 l 830 987 l 471 162 b 379 32 446 106 415 63 b 220 -14 343 1 290 -14 b 138 -7 191 -14 164 -12 b 77 11 112 -2 92 4 l 94 109 b 149 96 109 104 127 100 b 206 90 171 92 190 90 b 295 119 243 90 273 100 b 349 193 317 138 335 163 l 375 250 l 45 987 l 195 987 l 385 526 "},"Ф":{"ha":976,"x_min":0,"x_max":0,"o":"m 556 833 b 816 734 660 831 747 798 b 920 490 886 670 920 589 b 816 244 920 390 886 308 b 556 144 747 179 660 146 l 556 0 l 422 0 l 422 144 b 161 243 318 146 230 179 b 57 489 92 307 57 389 b 161 734 57 588 92 670 b 422 834 230 799 318 832 l 422 987 l 556 987 l 556 833 m 189 489 b 249 316 189 416 209 359 b 418 254 289 274 346 253 l 422 255 l 422 724 l 418 725 b 250 662 346 725 290 704 b 189 489 209 619 189 561 m 787 490 b 727 662 787 562 767 619 b 560 725 687 704 631 725 l 556 724 l 556 255 l 560 254 b 727 317 631 253 687 274 b 787 490 767 360 787 418 "},"Х":{"ha":878,"x_min":0,"x_max":0,"o":"m 671 987 l 833 987 l 519 498 l 840 0 l 680 0 l 444 392 l 206 0 l 45 0 l 365 498 l 52 987 l 212 987 l 441 602 "},"Ц":{"ha":1040,"x_min":0,"x_max":0,"o":"m 243 987 l 243 105 l 724 105 l 724 987 l 857 987 l 857 109 l 985 109 l 985 -243 l 852 -243 l 852 0 l 109 0 l 109 987 "},"Ч":{"ha":947,"x_min":0,"x_max":0,"o":"m 833 0 l 699 0 l 699 409 b 574 380 656 396 615 386 b 431 372 534 375 486 372 b 184 443 322 372 240 395 b 100 675 128 491 100 568 l 100 987 l 234 987 l 234 675 b 281 520 234 601 250 549 b 431 477 312 492 362 477 b 567 487 478 477 524 481 b 699 515 610 493 654 503 l 699 987 l 833 987 "},"Ш":{"ha":1410,"x_min":0,"x_max":0,"o":"m 245 104 l 646 104 l 646 987 l 779 987 l 779 104 l 1179 104 l 1179 987 l 1312 987 l 1312 0 l 111 0 l 111 987 l 245 987 "},"Щ":{"ha":1457,"x_min":0,"x_max":0,"o":"m 245 104 l 646 104 l 646 987 l 779 987 l 779 104 l 1179 104 l 1179 987 l 1312 987 l 1312 106 l 1428 106 l 1428 -244 l 1294 -244 l 1294 0 l 111 0 l 111 987 l 245 987 "},"Ъ":{"ha":989,"x_min":0,"x_max":0,"o":"m 355 987 l 355 597 l 598 597 b 844 516 703 597 785 570 b 932 301 903 462 932 390 b 844 83 932 212 902 139 b 598 0 785 28 703 0 l 221 0 l 221 882 l 0 882 l 0 987 m 355 104 l 598 104 b 748 162 665 104 715 124 b 798 302 781 200 798 247 b 748 437 798 356 782 401 b 598 492 715 474 665 492 l 355 492 "},"Ы":{"ha":1186,"x_min":0,"x_max":0,"o":"m 488 597 b 733 516 593 597 675 570 b 821 301 792 462 821 390 b 733 83 821 212 792 139 b 488 0 674 28 592 0 l 111 0 l 111 987 l 244 987 l 244 597 m 244 104 l 488 104 b 637 162 554 104 604 124 b 688 302 671 200 688 247 b 638 437 688 356 671 401 b 488 492 605 474 555 492 l 244 492 m 941 0 l 941 987 l 1076 987 l 1076 0 "},"Ь":{"ha":875,"x_min":0,"x_max":0,"o":"m 488 597 b 733 516 593 597 675 570 b 821 301 792 462 821 390 b 733 83 821 212 792 139 b 488 0 674 28 592 0 l 111 0 l 111 987 l 244 987 l 244 597 m 244 104 l 488 104 b 637 162 554 104 604 124 b 688 302 671 200 688 247 b 638 437 688 356 671 401 b 488 492 605 474 555 492 l 244 492 "},"Э":{"ha":939,"x_min":0,"x_max":0,"o":"m 126 675 b 223 908 124 767 156 845 b 488 1002 291 971 379 1002 b 762 883 600 1002 691 963 b 867 582 832 804 867 703 l 867 406 b 762 105 867 284 832 184 b 488 -14 691 26 600 -14 b 222 75 377 -14 288 16 b 126 311 156 134 124 213 l 127 315 l 256 315 b 316 151 256 246 276 191 b 488 91 356 111 414 91 b 666 181 562 91 622 121 b 733 405 711 241 733 315 l 733 460 l 344 460 l 344 565 l 733 565 l 733 582 b 666 807 733 671 711 746 b 488 897 622 867 562 897 b 316 837 414 897 356 877 b 256 671 276 797 256 741 l 127 671 "},"Ю":{"ha":1238,"x_min":0,"x_max":0,"o":"m 1195 406 b 1083 105 1195 285 1158 185 b 791 -14 1008 26 911 -14 b 510 105 676 -14 582 26 b 402 406 438 185 402 285 l 402 429 l 263 429 l 263 0 l 129 0 l 129 987 l 263 987 l 263 533 l 402 533 l 402 581 b 510 882 402 701 438 802 b 791 1002 582 962 676 1002 b 1083 882 911 1002 1008 962 b 1195 581 1158 802 1195 702 l 1195 406 m 1061 583 b 988 805 1061 673 1037 747 b 791 892 939 863 874 892 b 605 805 714 892 652 863 b 536 583 559 747 536 673 l 536 406 b 605 182 536 314 559 240 b 791 95 652 124 714 95 b 988 181 874 95 940 124 b 1061 406 1037 239 1061 314 l 1061 583 "},"Я":{"ha":821,"x_min":0,"x_max":0,"o":"m 30 0 l 262 448 b 116 547 198 471 149 504 b 66 704 82 590 66 642 b 159 913 66 794 97 864 b 415 987 221 963 306 987 l 731 987 l 731 0 l 597 0 l 597 413 l 378 413 l 172 0 m 415 882 b 254 835 345 882 291 867 b 199 705 218 804 199 760 b 255 570 199 650 218 605 b 414 519 291 536 345 519 l 597 519 l 597 882 "},"а":{"ha":764,"x_min":0,"x_max":0,"o":"m 548 0 b 537 59 543 22 540 42 b 533 110 535 76 533 93 b 436 21 508 75 476 45 b 307 -14 396 -2 353 -14 b 132 44 230 -14 172 5 b 72 206 92 84 72 137 b 157 371 72 276 100 331 b 388 430 214 410 291 430 l 533 430 l 533 503 b 494 605 533 545 520 579 b 382 642 467 630 430 642 b 277 610 339 642 304 631 b 237 532 251 588 237 562 l 111 530 l 109 534 b 184 681 106 588 131 637 b 390 747 237 725 306 747 b 591 684 473 747 540 726 b 667 501 641 642 667 581 l 667 148 b 671 72 667 122 668 96 b 686 0 673 47 678 24 l 548 0 m 326 98 b 457 135 375 98 418 110 b 533 220 496 160 521 188 l 533 340 l 383 340 b 254 299 329 340 286 326 b 205 203 222 272 205 240 b 236 126 205 171 216 145 b 326 98 256 107 286 98 "},"б":{"ha":768,"x_min":0,"x_max":0,"o":"m 420 747 b 642 642 513 747 587 712 b 723 374 696 572 723 483 l 723 359 b 635 90 723 249 694 160 b 395 -14 576 21 496 -14 b 154 91 293 -14 213 21 b 66 359 95 160 66 250 l 66 374 l 66 383 b 66 391 66 385 66 388 l 66 551 b 150 858 66 690 94 792 b 397 966 206 924 288 960 b 541 989 459 969 507 977 b 592 1053 575 1002 592 1023 l 694 1053 l 696 1049 b 625 899 698 978 674 928 b 408 853 575 870 503 855 b 243 796 340 851 284 832 b 182 635 201 760 181 706 l 184 632 b 287 715 211 666 245 694 b 420 747 328 737 373 747 m 393 642 b 249 566 330 642 281 617 b 200 374 216 515 200 451 l 200 359 b 249 166 200 281 216 217 b 395 90 281 116 330 90 b 540 166 458 90 507 116 b 589 359 573 217 589 281 l 589 374 b 539 566 589 451 573 515 b 393 642 506 617 458 642 "},"в":{"ha":789,"x_min":0,"x_max":0,"o":"m 98 734 l 387 734 b 612 683 484 734 559 717 b 692 532 666 650 692 599 b 661 440 692 497 682 467 b 573 378 640 413 611 392 b 680 315 619 367 654 346 b 718 209 705 284 718 249 b 643 53 718 140 693 88 b 434 0 593 18 524 0 l 98 0 m 231 103 l 434 103 b 546 131 483 103 521 112 b 584 212 571 150 584 177 b 546 293 584 247 571 274 b 434 321 521 312 483 321 l 231 321 m 388 424 b 516 449 444 424 487 432 b 559 525 544 466 559 491 b 515 604 559 560 544 586 b 387 630 486 621 444 630 l 231 630 l 231 424 "},"г":{"ha":576,"x_min":0,"x_max":0,"o":"m 231 628 l 231 0 l 97 0 l 97 734 l 564 734 l 564 628 "},"д":{"ha":880,"x_min":0,"x_max":0,"o":"m 119 104 b 196 192 154 104 180 133 b 231 458 212 250 223 338 l 248 734 l 735 734 l 735 104 l 832 104 l 832 -243 l 699 -243 l 699 0 l 180 0 l 180 -243 l 47 -243 l 47 104 l 119 104 m 365 458 b 343 244 359 371 352 300 b 301 104 334 188 320 141 l 602 104 l 602 615 l 374 615 l 365 458 "},"е":{"ha":727,"x_min":0,"x_max":0,"o":"m 401 -14 b 154 87 295 -14 213 19 b 66 353 95 154 66 243 l 66 382 b 157 644 66 488 96 575 b 380 747 218 713 292 747 b 601 656 478 747 551 717 b 674 412 650 595 674 514 l 674 342 l 205 342 l 203 338 b 252 159 203 265 219 205 b 401 90 284 113 334 90 b 520 110 446 90 486 97 b 608 163 554 122 583 140 l 660 76 b 556 12 634 51 599 29 b 401 -14 513 -6 461 -14 m 380 642 b 264 588 333 642 295 624 b 208 450 234 552 215 506 l 210 447 l 541 447 l 541 458 b 501 590 541 511 527 555 b 380 642 475 625 434 642 "}}}
